<svg width="669" height="559" viewBox="0 0 669 559" fill="none" xmlns="http://www.w3.org/2000/svg">
<g clip-path="url(#clip0_700_10614)">
<rect width="669" height="559" rx="30" fill="#272727"/>
<path d="M191.29 280.498C187.01 280.498 183.266 276.752 183.266 272.472C183.266 268.192 187.01 264.447 191.29 264.447C195.57 264.447 199.315 268.192 199.315 272.472C199.315 276.752 195.57 280.498 191.29 280.498ZM191.29 270.332C190.22 270.332 189.15 271.402 189.15 272.472C189.15 273.542 190.22 274.612 191.29 274.612C192.36 274.612 193.43 273.542 193.43 272.472C193.43 271.402 192.36 270.332 191.29 270.332Z" fill="#6B71FF"/>
<path d="M191.29 307.249C187.01 307.249 183.266 303.504 183.266 299.223C183.266 294.943 187.01 291.198 191.29 291.198C195.57 291.198 199.315 294.943 199.315 299.223C199.315 303.504 195.57 307.249 191.29 307.249ZM191.29 297.083C190.22 297.083 189.15 298.153 189.15 299.223C189.15 300.294 190.22 301.364 191.29 301.364C192.36 301.364 193.43 300.294 193.43 299.223C193.43 298.153 192.36 297.083 191.29 297.083Z" fill="#8A8A8A"/>
<path d="M191.29 334C187.01 334 183.266 330.255 183.266 325.975C183.266 321.695 187.01 317.949 191.29 317.949C195.57 317.949 199.315 321.695 199.315 325.975C199.315 330.255 195.57 334 191.29 334ZM191.29 323.835C190.22 323.835 189.15 324.905 189.15 325.975C189.15 327.045 190.22 328.115 191.29 328.115C192.36 328.115 193.43 327.045 193.43 325.975C193.43 324.905 192.36 323.835 191.29 323.835Z" fill="#00F78B"/>
<path d="M106.761 304.039C106.226 304.039 105.691 303.504 105.691 302.969V295.478C105.691 294.943 106.226 294.408 106.761 294.408C107.296 294.408 107.831 294.943 107.831 295.478V302.969C107.831 303.504 107.296 304.039 106.761 304.039ZM106.761 288.523C106.226 288.523 105.691 287.988 105.691 287.453V279.963C105.691 279.428 106.226 278.893 106.761 278.893C107.296 278.893 107.831 279.428 107.831 279.963V287.453C107.831 287.988 107.296 288.523 106.761 288.523ZM106.761 273.007C106.226 273.007 105.691 272.472 105.691 271.937V264.447C105.691 263.912 106.226 263.377 106.761 263.377C107.296 263.377 107.831 263.912 107.831 264.447V271.937C107.831 272.472 107.296 273.007 106.761 273.007ZM106.761 257.492C106.226 257.492 105.691 256.957 105.691 256.422V248.931C105.691 248.396 106.226 247.861 106.761 247.861C107.296 247.861 107.831 248.396 107.831 248.931V256.422C107.831 256.957 107.296 257.492 106.761 257.492ZM106.761 241.976C106.226 241.976 105.691 241.441 105.691 240.906V233.416C105.691 232.88 106.226 232.345 106.761 232.345C107.296 232.345 107.831 232.88 107.831 233.416V240.906C107.831 241.441 107.296 241.976 106.761 241.976ZM106.761 226.46C106.226 226.46 105.691 225.925 105.691 225.39V217.9C105.691 217.365 106.226 216.83 106.761 216.83C107.296 216.83 107.831 217.365 107.831 217.9V225.39C107.831 226.46 107.296 226.46 106.761 226.46ZM106.761 210.945C106.226 210.945 105.691 210.409 105.691 209.874V202.384C105.691 201.849 106.226 201.314 106.761 201.314C107.296 201.314 107.831 201.849 107.831 202.384V209.874C107.831 210.944 107.296 210.945 106.761 210.945ZM106.761 195.429C106.226 195.429 105.691 194.894 105.691 194.359V186.868C105.691 186.333 106.226 185.798 106.761 185.798C107.296 185.798 107.831 186.333 107.831 186.868V194.359C107.831 195.429 107.296 195.429 106.761 195.429ZM106.761 179.913C106.226 179.913 105.691 179.378 105.691 178.843V171.353C105.691 170.818 106.226 170.283 106.761 170.283C107.296 170.283 107.831 170.818 107.831 171.353V179.378C107.831 179.913 107.296 179.913 106.761 179.913ZM106.761 164.397C106.226 164.397 105.691 163.862 105.691 163.327V155.837C105.691 155.302 106.226 154.767 106.761 154.767C107.296 154.767 107.831 155.302 107.831 155.837V163.327C107.831 164.397 107.296 164.397 106.761 164.397ZM106.761 148.882C106.226 148.882 105.691 148.347 105.691 147.812V140.321C105.691 139.786 106.226 139.251 106.761 139.251C107.296 139.251 107.831 139.786 107.831 140.321V147.812C107.831 148.882 107.296 148.882 106.761 148.882ZM106.761 133.366C106.226 133.366 105.691 132.831 105.691 132.296V124.806C105.691 124.271 106.226 123.736 106.761 123.736C107.296 123.736 107.831 124.271 107.831 124.806V132.296C107.831 133.366 107.296 133.366 106.761 133.366ZM106.761 118.385C106.226 118.385 105.691 117.85 105.691 117.315V109.825C105.691 109.29 106.226 108.755 106.761 108.755C107.296 108.755 107.831 109.29 107.831 109.825V117.315C107.831 117.85 107.296 118.385 106.761 118.385ZM106.761 102.87C106.226 102.87 105.691 102.335 105.691 101.8V93.7742C105.691 93.2392 106.226 92.7041 106.761 92.7041C107.296 92.7041 107.831 93.2392 107.831 93.7742V101.265C107.831 102.335 107.296 102.87 106.761 102.87ZM106.761 87.3539C106.226 87.3539 105.691 86.8189 105.691 86.2839V78.7935C105.691 78.2585 106.226 77.7235 106.761 77.7235C107.296 77.7235 107.831 78.2585 107.831 78.7935V86.2839C107.831 86.8189 107.296 87.3539 106.761 87.3539ZM106.761 71.8382C106.226 71.8382 105.691 71.3032 105.691 70.7682V63.2778C105.691 62.7428 106.226 62.2078 106.761 62.2078C107.296 62.2078 107.831 62.7428 107.831 63.2778V70.7682C107.831 71.3032 107.296 71.8382 106.761 71.8382ZM106.761 56.3225C106.226 56.3225 105.691 55.7875 105.691 55.2525V47.7621C105.691 47.2271 106.226 46.6921 106.761 46.6921C107.296 46.6921 107.831 47.2271 107.831 47.7621V55.2525C107.831 55.7875 107.296 56.3225 106.761 56.3225ZM106.761 40.8068C106.226 40.8068 105.691 40.2718 105.691 39.7368V32.2464C105.691 31.7114 106.226 31.1764 106.761 31.1764C107.296 31.1764 107.831 31.7114 107.831 32.2464V39.7368C107.831 40.2718 107.296 40.8068 106.761 40.8068ZM106.761 25.2911C106.226 25.2911 105.691 24.7561 105.691 24.2211V16.7307C105.691 16.1957 106.226 15.6607 106.761 15.6607C107.296 15.6607 107.831 16.1957 107.831 16.7307V24.2211C107.831 24.7561 107.296 25.2911 106.761 25.2911ZM106.761 9.77541C106.226 9.77541 105.691 9.24039 105.691 8.70536V1.21503C105.691 0.680016 106.226 0.144981 106.761 0.144981C107.296 0.144981 107.831 0.680016 107.831 1.21503V8.70536C107.831 9.24039 107.296 9.77541 106.761 9.77541ZM106.761 -5.74028C106.226 -5.74028 105.691 -6.2753 105.691 -6.81033V-14.3007C105.691 -14.8357 106.226 -15.3707 106.761 -15.3707C107.296 -15.3707 107.831 -14.8357 107.831 -14.3007V-6.81033C107.831 -6.2753 107.296 -5.74028 106.761 -5.74028ZM106.761 -21.256C106.226 -21.256 105.691 -21.791 105.691 -22.326V-29.8164C105.691 -30.3514 106.226 -30.8864 106.761 -30.8864C107.296 -30.8864 107.831 -30.3514 107.831 -29.8164V-22.326C107.831 -21.791 107.296 -21.256 106.761 -21.256ZM106.761 -36.7717C106.226 -36.7717 105.691 -37.3067 105.691 -37.8417V-45.3321C105.691 -45.8671 106.226 -46.4021 106.761 -46.4021C107.296 -46.4021 107.831 -45.8671 107.831 -45.3321V-37.8417C107.831 -37.3067 107.296 -36.7717 106.761 -36.7717ZM106.761 -52.2874C106.226 -52.2874 105.691 -52.8224 105.691 -53.3574V-60.8478C105.691 -61.3828 106.226 -61.9178 106.761 -61.9178C107.296 -61.9178 107.831 -61.3828 107.831 -60.8478V-53.3574C107.831 -52.8224 107.296 -52.2874 106.761 -52.2874ZM106.761 -67.8031C106.226 -67.8031 105.691 -68.3381 105.691 -68.8731V-76.3635C105.691 -76.8985 106.226 -77.4335 106.761 -77.4335C107.296 -77.4335 107.831 -76.8985 107.831 -76.3635V-68.8731C107.831 -68.3381 107.296 -67.8031 106.761 -67.8031ZM106.761 -83.3188C106.226 -83.3188 105.691 -83.8538 105.691 -84.3888V-91.8792C105.691 -92.4142 106.226 -92.9492 106.761 -92.9492C107.296 -92.9492 107.831 -92.4142 107.831 -91.8792V-84.3888C107.831 -83.8538 107.296 -83.3188 106.761 -83.3188Z" fill="white"/>
<path d="M-63.9019 205.594C-64.4369 205.594 -64.4369 205.594 -64.9719 205.059C-64.9719 204.524 -64.9719 203.989 -64.4369 203.989L-58.0169 200.244C-57.4819 200.244 -56.9469 200.244 -56.9469 200.779C-56.9469 201.314 -56.9469 201.849 -57.4819 201.849L-63.9019 205.594ZM-51.062 197.569C-51.597 197.569 -51.597 197.569 -52.132 197.034C-52.132 196.499 -52.132 195.964 -51.597 195.964L-44.6421 192.219C-44.1071 192.219 -43.5721 192.219 -43.5721 192.754C-43.5721 193.289 -43.5721 193.824 -44.1071 193.824L-51.062 197.569C-50.527 197.569 -50.527 197.569 -51.062 197.569ZM-37.6872 190.078C-38.2221 190.078 -38.2221 190.078 -38.7571 189.543C-38.7571 189.008 -38.7571 188.473 -38.2221 188.473L-31.2672 184.728C-30.7322 184.728 -30.1972 184.728 -30.1972 185.263C-30.1972 185.798 -30.1972 186.333 -30.7322 186.333L-37.6872 190.078C-37.1522 190.078 -37.1522 190.078 -37.6872 190.078ZM-24.3123 182.053C-24.8473 182.053 -24.8473 182.053 -25.3823 181.518C-25.3823 180.983 -25.3823 180.448 -24.8473 180.448L-17.8924 176.703C-17.3574 176.703 -16.8224 176.703 -16.8224 177.238C-16.8224 177.773 -16.8224 178.308 -17.3574 178.308L-24.3123 182.053C-23.7773 182.053 -23.7773 182.053 -24.3123 182.053ZM-10.9374 174.563C-11.4724 174.563 -11.4724 174.563 -12.0074 174.028C-12.0074 173.493 -12.0074 172.958 -11.4724 172.958L-4.51751 169.213C-3.98251 169.213 -3.44752 169.213 -3.44752 169.748C-3.44752 170.283 -3.44752 170.818 -3.98251 170.818L-10.9374 174.563C-10.4024 174.563 -10.4024 174.563 -10.9374 174.563ZM2.97241 167.072C2.43742 167.072 2.43742 167.072 1.90243 166.537C1.90243 166.002 1.90242 165.467 2.43742 165.467L9.39235 161.722C9.92735 161.722 10.4623 161.722 10.4623 162.257C10.4623 162.792 10.4623 163.327 9.92734 163.327L2.97241 167.072ZM16.3473 159.047C15.8123 159.047 15.8123 159.047 15.2773 158.512C15.2773 157.977 15.2773 157.442 15.8123 157.442L22.7672 153.697C23.3022 153.697 23.8372 153.697 23.8372 154.232C23.8372 154.767 23.8372 155.302 23.3022 155.302L16.3473 159.047ZM29.7221 151.557C29.1871 151.557 29.1871 151.557 28.6521 151.022C28.6521 150.487 28.6521 149.952 29.1871 149.952L36.1421 146.206C36.6771 146.206 37.2121 146.206 37.2121 146.742C37.2121 147.277 37.2121 147.812 36.6771 147.812L29.7221 151.557ZM43.097 143.531C42.562 143.531 42.562 143.531 42.027 142.996C42.027 142.461 42.027 141.926 42.562 141.926L49.5169 138.181C50.0519 138.181 50.5869 138.181 50.5869 138.716C50.5869 139.251 50.5869 139.786 50.0519 139.786L43.097 143.531ZM56.4718 136.041C55.9369 136.041 55.9369 136.041 55.4019 135.506C55.4019 134.971 55.4019 134.436 55.9369 134.436L62.8918 130.691C63.4268 130.691 63.9618 130.691 63.9618 131.226C63.9618 131.761 63.9618 132.296 63.4268 132.296L56.4718 136.041ZM69.8467 128.016C69.3117 128.016 69.3117 128.016 68.7767 127.481C68.7767 126.946 68.7767 126.411 69.3117 126.411L76.2666 122.665C76.8016 122.665 77.3366 122.665 77.3366 123.2C77.3366 123.735 77.3366 124.271 76.8016 124.271L69.8467 128.016ZM83.2216 120.525C82.6866 120.525 82.6866 120.525 82.1516 119.99C82.1516 119.455 82.1516 118.92 82.6866 118.92L89.6415 115.175C90.1765 115.175 90.7115 115.175 90.7115 115.71C90.7115 116.245 90.7115 116.78 90.1765 116.78L83.2216 120.525ZM96.5964 112.5C96.0614 112.5 96.0614 112.5 95.5264 111.965C95.5264 111.43 95.5264 110.895 96.0614 110.895L103.016 107.15C103.551 107.15 104.086 107.15 104.086 107.685C104.086 108.22 104.086 108.755 103.551 108.755L96.5964 112.5C97.1314 112.5 97.1314 112.5 96.5964 112.5ZM109.971 105.01C109.436 105.01 109.436 105.01 108.901 104.475C108.901 103.94 108.901 103.405 109.436 103.405L116.391 99.6594C116.926 99.6594 117.461 99.6594 117.461 100.194C117.461 100.729 117.461 101.264 116.926 101.264L109.971 105.01C110.506 105.01 110.506 105.01 109.971 105.01ZM123.346 96.9843C122.811 96.9843 122.811 96.9843 122.276 96.4492C122.276 95.9142 122.276 95.3792 122.811 95.3792L129.766 91.634C130.301 91.634 130.836 91.634 130.836 92.1691C130.836 92.7041 130.836 93.2391 130.301 93.2391L123.346 96.9843C123.881 96.9843 123.881 96.9843 123.346 96.9843ZM136.721 89.4939C136.186 89.4939 136.186 89.4939 135.651 88.9589C135.651 88.4239 135.651 87.8889 136.186 87.8889L143.141 84.1437C143.676 84.1437 144.211 84.1437 144.211 84.6787C144.211 85.2137 144.211 85.7488 143.676 85.7488L136.721 89.4939C137.256 89.4939 137.256 89.4939 136.721 89.4939ZM150.631 81.4686C150.096 81.4686 150.096 81.4686 149.561 80.9335C149.561 80.3985 149.561 79.8635 150.096 79.8635L157.051 76.1183C157.586 76.1183 158.121 76.1183 158.121 76.6533C158.121 77.1884 158.121 77.7234 157.586 77.7234L150.631 81.4686ZM164.006 73.9782C163.471 73.9782 163.471 73.9782 162.936 73.4432C162.936 72.9082 162.936 72.3732 163.471 72.3732L170.426 68.628C170.961 68.628 171.496 68.628 171.496 69.163C171.496 69.698 171.496 70.233 170.961 70.233L164.006 73.9782ZM177.381 65.9529C176.846 65.9529 176.846 65.9529 176.311 65.4178C176.311 64.8828 176.311 64.3478 176.846 64.3478L183.8 60.6026C184.335 60.6026 184.87 60.6026 184.87 61.1377C184.87 61.6727 184.87 62.2077 184.335 62.2077L177.381 65.9529ZM190.755 58.4625C190.22 58.4625 190.22 58.4625 189.685 57.9275C189.685 57.3925 189.685 56.8574 190.22 56.8574L197.175 53.1123C197.71 53.1123 198.245 53.1123 198.245 53.6473C198.245 54.1823 198.245 54.7174 197.71 54.7174L190.755 58.4625ZM204.13 50.4372C203.595 50.4372 203.595 50.4372 203.06 49.9021C203.06 49.3671 203.06 48.8321 203.595 48.8321L210.55 45.0869C211.085 45.0869 211.62 45.0869 211.62 45.6219C211.62 46.157 211.62 46.692 211.085 46.692L204.13 50.4372ZM217.505 42.9468C216.97 42.9468 216.97 42.9468 216.435 42.4118C216.435 41.8768 216.435 41.3418 216.97 41.3418L223.925 37.5966C224.46 37.5966 224.995 37.5966 224.995 38.1316C224.995 38.6666 224.995 39.2017 224.46 39.2017L217.505 42.9468ZM230.88 34.9215C230.345 34.9215 230.345 34.9215 230.345 34.3864C230.345 33.8514 230.345 33.3164 230.88 33.3164L237.835 29.5712C238.37 29.5712 238.905 29.5712 238.905 30.1062C238.905 30.6413 238.905 31.1763 238.37 31.1763L230.88 34.9215ZM244.255 27.4311C243.72 27.4311 243.72 27.4311 243.185 26.8961C243.185 26.3611 243.185 25.826 243.72 25.826L250.675 22.0809C251.21 22.0809 251.745 22.0809 251.745 22.6159C251.745 23.1509 251.745 23.686 251.21 23.686L244.255 27.4311C244.79 27.4311 244.79 27.4311 244.255 27.4311ZM257.63 19.4058C257.095 19.4058 257.095 19.4058 256.56 18.8707C256.56 18.3357 256.56 17.8007 257.095 17.8007L264.05 14.0555C264.585 14.0555 265.12 14.0555 265.12 14.5905C265.12 15.1256 265.12 15.6606 264.585 15.6606L257.63 19.4058C258.165 19.4058 258.165 19.4058 257.63 19.4058ZM271.005 11.9154C270.47 11.9154 270.47 11.9154 269.935 11.3804C269.935 10.8454 269.935 10.3104 270.47 10.3104L277.424 6.56519C277.96 6.56519 278.494 6.56518 278.494 7.1002C278.494 7.63523 278.494 8.17025 277.959 8.17025L271.005 11.9154C271.54 11.9154 271.54 11.9154 271.005 11.9154Z" fill="white"/>
<path d="M277.959 205.594L271.005 201.849C270.47 201.314 270.47 200.779 270.47 200.779C271.005 200.244 271.54 200.244 271.54 200.244L277.959 203.989C278.494 204.524 278.494 205.059 278.494 205.059C278.494 205.059 278.494 205.594 277.959 205.594ZM264.585 197.569L257.63 193.824C257.095 193.289 257.095 192.754 257.095 192.219C257.63 191.684 258.165 191.684 258.165 191.684L265.12 195.429C265.655 195.964 265.655 196.499 265.655 196.499C265.655 197.569 265.12 197.569 264.585 197.569ZM251.21 190.078L244.255 186.333C243.72 185.798 243.72 185.263 243.72 185.263C244.255 184.728 244.79 184.728 244.79 184.728L251.745 188.473C252.28 189.008 252.28 189.543 252.28 189.543C252.28 190.078 251.745 190.078 251.21 190.078ZM237.835 182.053L230.88 178.308C230.345 177.773 230.345 177.238 230.345 177.238C230.88 176.703 231.415 176.703 231.415 176.703L238.37 180.448C238.905 180.983 238.905 181.518 238.905 181.518C238.37 182.053 238.37 182.053 237.835 182.053ZM224.46 174.563L217.505 170.818C216.97 170.283 216.97 169.748 216.97 169.748C217.505 169.213 218.04 169.213 218.04 169.213L224.995 172.958C225.53 173.493 225.53 174.028 225.53 174.028C224.995 174.563 224.995 174.563 224.46 174.563ZM211.085 167.072L204.13 163.327C203.595 162.792 203.595 162.257 203.595 162.257C204.13 161.722 204.665 161.722 204.665 161.722L211.62 165.467C212.155 166.002 212.155 166.537 212.155 166.537C211.62 166.537 211.62 167.072 211.085 167.072ZM197.71 159.047L190.755 155.302C190.22 154.767 190.22 154.232 190.22 154.232C190.755 153.697 191.29 153.697 191.29 153.697L198.245 157.442C198.78 157.977 198.78 158.512 198.78 158.512C198.245 159.047 198.245 159.047 197.71 159.047ZM184.335 151.557L176.846 147.277C176.311 146.742 176.311 146.206 176.311 146.206C176.846 145.671 177.381 145.671 177.381 145.671L184.335 149.417C184.87 149.952 184.87 150.487 184.87 150.487C184.87 151.022 184.335 151.557 184.335 151.557ZM170.961 143.531C170.426 143.531 170.426 143.531 170.961 143.531L164.006 139.786C163.471 139.251 163.471 138.716 163.471 138.716C164.006 138.181 164.541 138.181 164.541 138.181L171.496 141.926C172.031 142.461 172.031 142.996 172.031 142.996C171.496 143.531 170.961 143.531 170.961 143.531ZM157.586 136.041C157.051 135.506 157.051 136.041 157.586 136.041L150.096 131.761C149.561 131.226 149.561 130.691 149.561 130.691C150.096 130.156 150.631 130.156 150.631 130.156L157.586 133.901C158.121 134.436 158.121 134.971 158.121 134.971C158.121 135.506 157.586 136.041 157.586 136.041ZM144.211 128.016C143.676 128.016 143.676 128.016 144.211 128.016L137.256 124.271C136.721 123.735 136.721 123.2 136.721 123.2C137.256 122.665 137.791 122.665 137.791 122.665L144.746 126.411C145.281 126.946 145.281 127.481 145.281 127.481C144.746 128.016 144.211 128.016 144.211 128.016ZM130.301 120.525L123.346 116.245C122.811 115.71 122.811 115.175 122.811 115.175C123.346 114.64 123.881 114.64 123.881 114.64L130.836 118.385C131.371 118.92 131.371 119.455 131.371 119.455C131.371 119.99 130.836 120.525 130.301 120.525ZM116.926 112.5L109.971 108.755C109.436 108.22 109.436 107.685 109.436 107.685C109.971 107.15 110.506 107.15 110.506 107.15L117.461 110.895C117.996 111.43 117.996 111.965 117.996 111.965C117.996 112.5 117.461 112.5 116.926 112.5ZM103.551 105.01L96.5964 100.729C96.0614 100.194 96.0614 99.6594 96.0614 99.6594C96.5964 99.1244 97.1314 99.1244 97.6664 99.1244L104.621 102.87C105.156 103.405 105.156 103.94 105.156 103.94C104.086 104.475 104.086 105.01 103.551 105.01ZM90.1765 96.9843L83.2216 93.2391C82.6866 92.7041 82.6866 92.1691 82.6866 92.1691C83.2216 91.634 83.7566 91.634 83.7566 91.634L90.7115 95.3792C91.2465 95.9142 91.2465 96.4492 91.2465 96.4492C90.7115 96.9843 90.7115 96.9843 90.1765 96.9843ZM76.8016 89.4939L69.8467 85.2137C69.3117 84.6787 69.3117 84.1437 69.3117 84.1437C69.8467 83.6087 70.3817 83.6087 70.3817 83.6087L77.3366 87.3538C77.8716 87.8888 77.8716 88.4239 77.8716 88.4239C77.3366 88.9589 77.3366 89.4939 76.8016 89.4939ZM63.4268 81.4686L56.4718 77.7234C55.9369 77.1884 55.9369 76.6533 55.9369 76.6533C56.4718 76.1183 57.0069 76.1183 57.0069 76.1183L63.9618 79.8635C64.4968 80.3985 64.4968 80.9335 64.4968 80.9335C63.9618 81.4686 63.9618 81.4686 63.4268 81.4686ZM50.0519 73.9782L43.097 70.233C42.562 69.698 42.562 69.163 42.562 69.163C43.097 68.628 43.632 68.628 43.632 68.628L50.5869 72.3732C51.1219 72.9082 51.1219 73.4432 51.1219 73.4432C50.5869 73.4432 50.5869 73.9782 50.0519 73.9782ZM36.6771 65.9529C36.1421 65.9529 36.1421 65.9529 36.6771 65.9529L29.7221 62.2077C29.1871 61.6727 29.1871 61.1377 29.1871 61.1377C29.7221 60.6026 30.2571 60.6026 30.2571 60.6026L37.2121 64.3478C37.747 64.8828 37.747 65.4178 37.747 65.4178C37.2121 65.9529 36.6771 65.9529 36.6771 65.9529ZM23.3022 58.4625C22.7672 58.4625 22.7672 58.4625 23.3022 58.4625L16.3473 54.7174C15.8123 54.1823 15.8123 53.6473 15.8123 53.6473C16.3473 53.1123 16.8823 53.1123 16.8823 53.1123L23.8372 56.8574C24.3722 57.3925 24.3722 57.9275 24.3722 57.9275C23.8372 57.9275 23.3022 58.4625 23.3022 58.4625ZM9.92734 50.4372C9.39234 50.4372 9.39234 50.4372 9.92734 50.4372L2.97241 46.692C2.43742 46.157 2.43742 45.6219 2.43742 45.6219C2.97241 45.0869 3.50741 45.0869 3.50741 45.0869L10.4623 48.8321C10.9973 49.3671 10.9973 49.9021 10.9973 49.9021C10.4623 50.4372 9.92734 50.4372 9.92734 50.4372ZM-3.44752 42.9468C-3.98251 42.9468 -3.98251 42.9468 -3.44752 42.9468L-10.4024 39.2017C-10.9374 38.6666 -10.9374 38.1316 -10.9374 38.1316C-10.4024 37.5966 -9.86745 37.5966 -9.86745 37.5966L-2.91253 41.3418C-2.37753 41.8768 -2.37753 42.4118 -2.37753 42.4118C-2.91252 42.4118 -3.44752 42.9468 -3.44752 42.9468ZM-17.3574 34.9215L-24.3123 31.1763C-24.8473 30.6413 -24.8473 30.1062 -24.8473 30.1062C-24.3123 29.5712 -23.7773 29.5712 -23.7773 29.5712L-16.8224 33.3164C-16.2874 33.8514 -16.2874 34.3864 -16.2874 34.3864C-16.2874 34.9215 -16.8224 34.9215 -17.3574 34.9215ZM-30.7322 27.4311L-37.6872 23.686C-38.2221 23.1509 -38.2221 22.6159 -38.2221 22.6159C-37.6872 22.0809 -37.1522 22.0809 -37.1522 22.0809L-30.1972 25.826C-29.6622 26.3611 -29.6622 26.8961 -29.6622 26.8961C-29.6622 26.8961 -30.1972 27.4311 -30.7322 27.4311ZM-44.1071 19.4058L-51.062 15.6606C-51.597 15.1256 -51.597 14.5905 -51.597 14.5905C-51.062 13.5205 -50.527 13.5205 -49.992 14.0555L-43.0371 17.8007C-42.5021 18.3357 -42.5021 18.8707 -42.5021 18.8707C-43.5721 19.4058 -43.5721 19.4058 -44.1071 19.4058ZM-57.4819 11.9154L-64.4369 8.17025C-64.9719 7.63523 -64.9719 7.1002 -64.9719 7.1002C-64.4369 6.56518 -63.9019 6.56519 -63.9019 6.56519L-56.9469 10.3104C-56.412 10.8454 -56.412 11.3804 -56.412 11.3804C-56.9469 11.3804 -56.9469 11.9154 -57.4819 11.9154Z" fill="white"/>
<path d="M284.914 217.365C283.309 217.365 281.704 216.83 280.634 216.295C276.354 213.619 274.75 208.269 277.424 203.989C280.099 199.709 285.449 198.104 289.729 200.779C294.009 203.454 295.614 208.804 292.939 213.084C290.799 215.76 288.124 217.365 284.914 217.365ZM281.169 214.69C284.379 216.83 288.659 215.225 290.799 212.014C292.939 208.804 291.334 204.524 288.124 202.384C284.914 200.244 280.634 201.849 278.494 205.059C276.889 208.269 277.959 212.549 281.169 214.69Z" fill="#7F7F7F"/>
<path d="M106.761 320.089C101.946 320.089 97.6664 316.344 97.6664 310.994C97.6664 306.179 101.411 301.899 106.761 301.899C111.576 301.899 115.856 305.644 115.856 310.994C115.856 316.344 111.576 320.089 106.761 320.089ZM106.761 304.039C103.016 304.039 99.8063 307.249 99.8063 310.994C99.8063 314.739 103.016 317.949 106.761 317.949C110.506 317.949 113.716 314.739 113.716 310.994C113.716 307.249 110.506 304.039 106.761 304.039Z" fill="#7F7F7F"/>
<path d="M284.914 11.9156C281.704 11.9156 279.029 10.3105 276.889 7.63537C274.214 3.35518 275.819 -1.99507 280.099 -4.67019C284.379 -7.34531 289.729 -5.74024 292.404 -1.46004C293.474 0.680053 294.009 2.82015 293.474 5.49527C292.939 7.63536 291.334 9.77546 289.194 10.8455C288.124 11.3805 286.519 11.9156 284.914 11.9156ZM284.914 -4.13516C283.844 -4.13516 282.774 -3.60015 281.169 -3.06512C277.959 -0.925026 276.889 3.35517 278.494 6.56532C280.634 9.77546 284.914 10.8455 288.124 9.24044C289.729 8.17039 290.799 6.56532 291.334 4.96025C291.869 3.35518 291.334 1.21508 290.799 -0.389991C289.729 -2.53009 287.054 -4.13516 284.914 -4.13516Z" fill="#7F7F7F"/>
<path d="M-4.51753 182.588C-8.79749 182.588 -12.5424 180.983 -15.2174 176.703C-21.1024 167.607 -12.0075 160.652 -1.84256 152.092C9.92732 142.461 24.3722 130.691 28.1171 110.895C30.2571 100.729 28.6521 93.7741 27.5821 86.8188C25.9771 78.2584 24.9072 70.2331 29.7221 58.9976C35.072 47.227 42.027 42.9468 50.5869 38.1316C56.4718 34.3864 63.4268 30.1062 70.9167 22.0809C86.9665 4.42509 90.7115 -15.3708 93.3864 -29.8165C95.5264 -41.587 97.6664 -51.2174 105.156 -52.2875C113.181 -53.8925 117.461 -45.8672 123.881 -35.1667C130.836 -23.3962 141.001 -6.81041 160.261 8.17026C170.961 16.7307 180.591 21.5459 188.08 25.291C199.315 30.6413 207.34 34.9215 210.015 45.6219C212.69 54.7174 209.48 60.6026 205.2 68.628C201.455 75.5833 197.175 84.6787 193.43 99.1244C189.685 114.105 190.22 123.2 190.755 130.691C191.29 138.716 191.29 144.601 185.94 152.092C168.821 176.703 124.951 175.098 105.691 174.028C93.9214 173.493 88.5715 171.888 82.6865 170.818C77.3366 169.213 72.5217 168.142 62.3568 167.607C40.957 166.537 24.3722 172.958 12.0673 177.238C6.71735 180.448 0.297419 182.588 -4.51753 182.588ZM107.296 -46.9372H106.761C103.016 -46.4022 101.411 -39.9819 99.2714 -28.7464C96.5964 -13.7657 92.3164 7.10021 75.1966 25.8261C67.1717 34.3864 60.2168 38.6666 53.2619 42.9468C45.2369 47.762 39.352 51.5072 34.5371 61.6727C30.2571 71.3031 31.3271 77.7234 32.9321 85.7488C34.0021 92.7041 35.607 100.729 33.4671 111.965C29.1871 133.901 13.1373 147.277 1.3674 156.907C-9.33248 165.467 -13.6124 169.748 -10.9375 174.028C-7.7275 179.378 -2.91255 177.773 10.4623 172.958C22.7672 168.142 39.887 161.722 62.8918 162.792C73.5916 163.327 78.9416 164.932 84.2915 166.002C89.6415 167.607 94.9914 168.677 106.226 169.213C123.881 169.748 166.146 171.888 181.126 149.952C185.405 144.066 185.405 139.251 184.87 131.761C184.335 124.27 183.8 114.64 188.08 98.5893C191.825 83.0737 196.64 73.9782 200.385 66.4879C204.665 58.4625 206.805 54.1823 205.2 47.227C203.06 38.6666 196.64 35.4565 185.94 30.1062C177.916 26.3611 168.286 21.0108 157.051 12.4505C136.721 -3.60027 126.556 -20.186 119.601 -32.4916C114.251 -41.587 110.506 -46.9372 107.296 -46.9372Z" fill="#8A8A8A"/>
<path d="M102.481 212.549C97.6663 212.549 93.9213 208.804 87.5014 203.454C82.6865 199.174 76.2665 193.824 66.6366 186.868C54.8668 178.308 44.7019 173.493 37.7469 169.748C27.0471 163.862 20.0921 160.652 19.5571 152.627C19.0221 145.136 24.3721 140.856 30.257 136.576C36.142 132.296 42.5619 126.946 46.3069 117.315C50.0518 106.08 46.8418 94.8441 44.1669 86.2838C41.4919 78.2584 39.3519 71.3031 44.7019 67.0229C50.0518 62.2077 58.6117 65.9529 67.7066 69.698C76.2665 73.4432 86.4314 77.7234 92.3164 73.9782C96.5963 71.3031 97.1313 65.9529 97.6663 60.0676C98.7363 53.6473 99.8063 46.692 105.691 42.9468C113.716 38.1316 122.276 42.4118 131.906 47.227C136.186 49.3671 140.466 51.5072 144.746 53.1123C173.101 62.7427 203.595 42.9468 226.065 28.5012C241.58 18.3357 252.28 11.3804 258.165 17.2657C271.539 29.5712 230.345 85.2137 230.345 85.7487C219.11 101.264 197.71 129.621 161.331 142.461C154.911 144.601 150.631 145.671 146.886 146.206C142.071 147.277 139.396 147.812 134.581 151.022C122.276 160.652 119.601 175.633 116.926 189.008C114.786 200.244 113.181 210.409 105.156 213.085C104.621 212.549 103.551 212.549 102.481 212.549ZM50.5868 70.233C49.5168 70.233 48.4468 70.233 47.9118 71.3031C45.7719 72.9082 47.3768 78.2584 49.5168 84.6787C52.1918 93.7741 55.9368 106.08 51.6568 119.455C47.9118 130.691 39.8869 136.576 34.002 141.391C28.117 145.671 24.9071 148.347 25.4421 152.627C25.9771 156.907 30.257 159.582 40.4219 164.932C47.9118 168.677 57.5417 174.028 69.8466 182.588C79.4765 189.543 86.4314 195.429 91.2464 199.174C98.7363 205.594 101.411 207.734 104.086 206.664C108.901 205.059 110.506 197.034 112.111 187.403C114.251 174.028 117.461 156.907 131.906 145.671C137.256 141.391 141.001 140.856 146.351 139.786C149.561 139.251 153.841 138.181 159.726 136.041C194.5 124.27 214.83 96.4492 226.065 81.4686C245.325 55.2524 259.77 25.291 254.955 21.0108C252.28 18.3357 240.51 26.3611 229.81 32.7813C206.805 47.762 174.705 68.628 143.676 58.4625C138.861 56.8575 134.046 54.7173 129.766 52.5772C121.206 48.2971 114.251 45.0869 108.901 47.762C105.156 50.4372 104.086 55.2524 103.551 61.1376C102.481 67.5579 101.411 74.5132 95.5263 78.7934C86.9664 84.6787 75.1965 79.8635 65.0317 75.0483C59.6817 72.9082 54.3318 70.233 50.5868 70.233Z" fill="#6B71FF"/>
<path d="M108.901 247.861C107.831 247.861 106.761 247.861 105.691 247.326C94.9914 243.581 94.4564 223.785 93.9214 201.314C93.3864 176.703 92.8514 148.347 78.9415 142.461C75.1966 140.856 70.3816 140.856 66.6367 140.856C61.2867 140.856 55.9368 141.391 53.2618 136.576C50.5868 131.226 54.8668 126.411 59.1467 121.06C62.3567 117.315 66.1017 113.035 66.6367 108.22C68.7766 96.9843 57.0068 76.6534 -8.26255 39.2017C-16.2875 34.9215 -24.8474 30.6413 -33.4073 25.291C-41.4322 21.0108 -41.9672 20.4758 -40.3622 17.8007L-39.8272 16.7306L-38.7572 16.1956C-37.1522 15.6606 -37.1522 15.6606 -31.8023 19.4058C-31.2673 19.4058 -31.2673 19.9408 -30.7323 19.9408C-30.1973 19.9408 -30.1973 20.4758 -29.6623 20.4758C-23.2424 23.686 -14.1475 28.5012 -3.4476 34.9215C47.9119 60.6026 70.9166 57.9275 81.6165 49.9021C92.3164 41.8768 94.4564 24.221 96.0614 10.3104C97.6663 -2.53021 98.7363 -12.6957 106.226 -13.7657C112.646 -14.8358 115.856 -8.95051 120.671 -0.925151C126.021 8.17026 134.046 21.0108 149.026 32.2464C157.051 38.1316 163.471 40.8067 169.356 43.4819C177.38 47.227 183.8 50.4372 188.08 58.9976C192.36 68.093 189.685 75.5833 187.01 83.0736C185.405 88.4239 183.265 94.3092 183.265 101.264C183.8 124.271 205.735 141.391 222.855 154.767C236.765 165.467 247.465 173.493 244.255 182.588C241.58 190.078 233.02 190.078 220.18 190.613C206.27 191.149 187.01 191.684 166.146 201.849C146.886 210.944 135.116 224.32 126.556 233.95C120.136 241.976 114.786 247.861 108.901 247.861ZM69.8466 134.971C73.5916 134.971 77.3365 135.506 81.0815 137.111C98.2013 144.601 99.2713 174.563 99.8063 201.314C100.341 220.04 100.876 239.836 107.831 242.511C111.041 243.581 115.321 239.301 122.276 231.275C131.371 221.645 143.141 207.734 163.471 198.104C185.405 187.403 205.2 186.868 219.645 186.333C229.81 185.798 237.3 185.798 238.37 182.053C239.975 177.238 229.81 169.213 218.575 160.652C199.85 146.206 176.845 128.551 176.311 102.87C176.311 94.8442 178.45 88.4239 180.055 83.0736C182.73 76.1183 184.335 70.2331 181.125 63.2777C177.915 56.3224 173.101 54.1823 165.611 50.9722C159.726 48.2971 152.771 45.0869 144.746 39.2017C128.696 27.4311 120.671 13.5205 114.786 4.42509C111.041 -1.46017 108.366 -6.27539 106.226 -5.74037C103.016 -5.20534 101.946 4.96012 100.876 13.5205C99.2713 28.5012 97.1313 47.227 84.2915 57.3925C72.5216 66.4879 53.7968 66.4879 28.1171 57.9275C53.2618 75.0483 75.1966 95.3792 71.9866 111.965C70.9166 117.85 66.6367 122.665 63.4267 126.946C60.7517 130.691 57.5418 134.436 58.6117 136.041C59.1467 137.646 62.8917 137.111 66.6367 137.111C67.1717 134.971 68.7766 134.971 69.8466 134.971Z" fill="#00F78B"/>
<path d="M339.598 379.858C334.43 379.858 330 375.431 330 370.267C330 365.103 334.43 360.677 339.598 360.677C344.766 360.677 349.195 365.103 349.195 370.267C349.195 375.431 344.766 379.858 339.598 379.858ZM339.598 362.89C335.906 362.89 332.953 365.841 332.953 369.529C332.953 373.218 335.906 376.169 339.598 376.169C343.289 376.169 346.242 373.218 346.242 369.529C346.242 365.841 343.289 362.89 339.598 362.89Z" fill="#595959"/>
<path d="M339.598 314.2C334.43 314.2 330 309.774 330 304.61C330 299.446 334.43 295.02 339.598 295.02C344.766 295.02 349.195 299.446 349.195 304.61C349.195 309.774 344.766 314.2 339.598 314.2ZM339.598 297.97C335.906 297.97 332.953 300.921 332.953 304.61C332.953 308.299 335.906 311.25 339.598 311.25C343.289 311.25 346.242 308.299 346.242 304.61C346.242 300.921 343.289 297.97 339.598 297.97Z" fill="#595959"/>
<path d="M339.598 249.28C334.43 249.28 330 244.854 330 239.69C330 234.526 334.43 230.1 339.598 230.1C344.766 230.1 349.195 234.526 349.195 239.69C349.195 244.854 344.766 249.28 339.598 249.28ZM339.598 233.051C335.906 233.051 332.953 236.001 332.953 239.69C332.953 243.379 335.906 246.33 339.598 246.33C343.289 246.33 346.242 243.379 346.242 239.69C346.242 236.001 343.289 233.051 339.598 233.051Z" fill="#595959"/>
<path d="M339.598 444.777C334.43 444.777 330 440.351 330 435.187C330 430.023 334.43 425.597 339.598 425.597C344.766 425.597 349.195 430.023 349.195 435.187C349.195 440.351 344.766 444.777 339.598 444.777ZM339.598 428.547C335.906 428.547 332.953 431.498 332.953 435.187C332.953 438.876 335.906 441.827 339.598 441.827C343.289 441.827 346.242 438.876 346.242 435.187C346.242 431.498 343.289 428.547 339.598 428.547Z" fill="#595959"/>
<path d="M339.598 509.697C334.43 509.697 330 505.271 330 500.107C330 494.943 334.43 490.517 339.598 490.517C344.766 490.517 349.195 494.943 349.195 500.107C349.195 506.009 344.766 509.697 339.598 509.697ZM339.598 493.468C335.906 493.468 332.953 496.418 332.953 500.107C332.953 503.796 335.906 506.747 339.598 506.747C343.289 506.747 346.242 503.796 346.242 500.107C346.242 496.418 343.289 493.468 339.598 493.468Z" fill="#595959"/>
<path d="M431.883 372.48C430.406 372.48 428.93 371.005 428.93 369.53V290.593C428.93 287.642 426.715 285.429 423.762 285.429C420.809 285.429 418.594 287.642 418.594 290.593V369.53C418.594 371.005 417.117 372.48 415.641 372.48C414.164 372.48 412.687 371.005 412.687 369.53V290.593C412.687 284.691 417.855 279.527 423.762 279.527C429.668 279.527 434.836 284.691 434.836 290.593V369.53C434.836 371.743 434.098 372.48 431.883 372.48Z" fill="#00F78B"/>
<path d="M462.152 372.48C460.676 372.48 459.199 371.005 459.199 369.529V320.84C459.199 317.889 456.984 315.676 454.031 315.676C451.078 315.676 448.863 317.889 448.863 320.84V369.529C448.863 371.005 447.387 372.48 445.91 372.48C444.434 372.48 442.957 371.005 442.957 369.529V320.84C442.957 314.938 448.125 309.774 454.031 309.774C459.937 309.774 465.105 314.938 465.105 320.84V369.529C465.105 371.743 463.629 372.48 462.152 372.48Z" fill="#5555C9"/>
<path d="M491.684 372.48C490.207 372.48 488.73 371.005 488.73 369.529V229.361C488.73 226.411 486.516 224.197 483.562 224.197C480.609 224.197 478.395 226.411 478.395 229.361V369.529C478.395 371.005 476.918 372.48 475.441 372.48C473.965 372.48 472.488 371.005 472.488 369.529V229.361C472.488 223.46 477.656 218.296 483.562 218.296C489.469 218.296 494.637 223.46 494.637 229.361V369.529C494.637 371.743 493.898 372.48 491.684 372.48Z" fill="#595959"/>
<path d="M513.832 460.27C507.926 460.27 502.758 455.106 502.758 449.204V370.267C502.758 368.792 504.234 367.316 505.711 367.316C507.187 367.316 508.664 368.792 508.664 370.267V449.204C508.664 452.155 510.879 454.368 513.832 454.368C516.785 454.368 519 452.155 519 449.204V370.267C519 368.792 520.476 367.316 521.953 367.316C523.43 367.316 524.906 368.792 524.906 370.267V449.204C524.906 455.106 519.738 460.27 513.832 460.27Z" fill="#00F78B"/>
<path d="M544.102 531.829C538.195 531.829 533.027 526.665 533.027 520.763V370.267C533.027 368.792 534.504 367.316 535.98 367.316C537.457 367.316 538.934 368.792 538.934 370.267V521.501C538.934 524.452 541.148 526.665 544.102 526.665C547.055 526.665 549.27 524.452 549.27 521.501V370.267C549.27 368.792 550.746 367.316 552.223 367.316C553.699 367.316 555.176 368.792 555.176 370.267V521.501C554.437 527.403 550.008 531.829 544.102 531.829Z" fill="#5555C9"/>
<path d="M573.633 432.974C567.727 432.974 562.559 427.81 562.559 421.908V369.529C562.559 368.054 564.035 366.578 565.512 366.578C566.988 366.578 568.465 368.054 568.465 369.529V421.908C568.465 424.859 570.68 427.072 573.633 427.072C576.586 427.072 578.801 424.859 578.801 421.908V369.529C578.801 368.054 580.277 366.578 581.754 366.578C583.23 366.578 584.707 368.054 584.707 369.529V421.908C584.707 427.81 579.539 432.974 573.633 432.974Z" fill="#595959"/>
<path d="M612.023 372.481C610.547 372.481 609.07 371.005 609.07 369.53V309.774C609.07 306.823 606.855 304.61 603.902 304.61C600.949 304.61 598.734 306.823 598.734 309.774V369.53C598.734 371.005 597.258 372.481 595.781 372.481C594.305 372.481 592.828 371.005 592.828 369.53V309.774C592.828 303.872 597.996 298.708 603.902 298.708C609.809 298.708 614.977 303.872 614.977 309.774V369.53C614.238 371.743 613.5 372.481 612.023 372.481Z" fill="#00F78B"/>
<path d="M633.433 430.023C627.527 430.023 622.359 424.859 622.359 418.957V369.529C622.359 368.054 623.836 366.578 625.312 366.578C626.789 366.578 628.266 368.054 628.266 369.529V418.957C628.266 421.908 630.48 424.121 633.433 424.121C636.387 424.121 638.601 421.908 638.601 418.957V369.529C638.601 368.054 640.078 366.578 641.555 366.578C643.031 366.578 644.508 368.054 644.508 369.529V418.957C644.508 425.597 639.34 430.023 633.433 430.023Z" fill="#5555C9"/>
<path d="M663.703 508.222C657.797 508.222 652.629 503.058 652.629 497.156V370.267C652.629 368.792 654.105 367.316 655.582 367.316C657.059 367.316 658.535 368.792 658.535 370.267V497.156C658.535 500.107 660.75 502.32 663.703 502.32C666.656 502.32 668.871 500.107 668.871 497.156V370.267C668.871 368.792 670.348 367.316 671.824 367.316C673.301 367.316 674.777 368.792 674.777 370.267V497.156C674.039 503.796 669.609 508.222 663.703 508.222Z" fill="#595959"/>
<path d="M893.309 373.218H382.418C380.203 373.218 378.727 371.743 378.727 369.53C378.727 367.317 380.203 365.841 382.418 365.841H893.309C895.523 365.841 897 367.317 897 369.53C897 371.743 895.523 373.218 893.309 373.218Z" fill="#595959"/>
<path d="M893.309 373.218H382.418C380.203 373.218 378.727 371.743 378.727 369.53C378.727 367.317 380.203 365.841 382.418 365.841H893.309C895.523 365.841 897 367.317 897 369.53C897 371.743 895.523 373.218 893.309 373.218Z" stroke="black"/>
</g>
<defs>
<clipPath id="clip0_700_10614">
<rect width="669" height="559" rx="30" fill="white"/>
</clipPath>
</defs>
</svg>
