<svg fill="none" height="559" viewBox="0 0 669 559" width="669" xmlns="http://www.w3.org/2000/svg" xmlns:xlink="http://www.w3.org/1999/xlink"><clipPath id="a"><rect height="559" rx="30" width="669"/></clipPath><g clip-path="url(#a)"><rect fill="#272727" height="559" rx="30" width="669"/><path d="m191.29 280.498c-4.28 0-8.024-3.746-8.024-8.026s3.744-8.025 8.024-8.025 8.025 3.745 8.025 8.025-3.745 8.026-8.025 8.026zm0-10.166c-1.07 0-2.14 1.07-2.14 2.14s1.07 2.14 2.14 2.14 2.14-1.07 2.14-2.14-1.07-2.14-2.14-2.14z" fill="#6b71ff"/><path d="m191.29 307.249c-4.28 0-8.024-3.745-8.024-8.026 0-4.28 3.744-8.025 8.024-8.025s8.025 3.745 8.025 8.025c0 4.281-3.745 8.026-8.025 8.026zm0-10.166c-1.07 0-2.14 1.07-2.14 2.14 0 1.071 1.07 2.141 2.14 2.141s2.14-1.07 2.14-2.141c0-1.07-1.07-2.14-2.14-2.14z" fill="#8a8a8a"/><path d="m191.29 334c-4.28 0-8.024-3.745-8.024-8.025s3.744-8.026 8.024-8.026 8.025 3.746 8.025 8.026-3.745 8.025-8.025 8.025zm0-10.165c-1.07 0-2.14 1.07-2.14 2.14s1.07 2.14 2.14 2.14 2.14-1.07 2.14-2.14-1.07-2.14-2.14-2.14z" fill="#00f78b"/><path d="m106.761 304.039c-.535 0-1.07-.535-1.07-1.07v-7.491c0-.535.535-1.07 1.07-1.07s1.07.535 1.07 1.07v7.491c0 .535-.535 1.07-1.07 1.07zm0-15.516c-.535 0-1.07-.535-1.07-1.07v-7.49c0-.535.535-1.07 1.07-1.07s1.07.535 1.07 1.07v7.49c0 .535-.535 1.07-1.07 1.07zm0-15.516c-.535 0-1.07-.535-1.07-1.07v-7.49c0-.535.535-1.07 1.07-1.07s1.07.535 1.07 1.07v7.49c0 .535-.535 1.07-1.07 1.07zm0-15.515c-.535 0-1.07-.535-1.07-1.07v-7.491c0-.535.535-1.07 1.07-1.07s1.07.535 1.07 1.07v7.491c0 .535-.535 1.07-1.07 1.07zm0-15.516c-.535 0-1.07-.535-1.07-1.07v-7.49c0-.536.535-1.071 1.07-1.071s1.07.535 1.07 1.071v7.49c0 .535-.535 1.07-1.07 1.07zm0-15.516c-.535 0-1.07-.535-1.07-1.07v-7.49c0-.535.535-1.07 1.07-1.07s1.07.535 1.07 1.07v7.49c0 1.07-.535 1.07-1.07 1.07zm0-15.515c-.535 0-1.07-.536-1.07-1.071v-7.49c0-.535.535-1.07 1.07-1.07s1.07.535 1.07 1.07v7.49c0 1.07-.535 1.071-1.07 1.071zm0-15.516c-.535 0-1.07-.535-1.07-1.07v-7.491c0-.535.535-1.07 1.07-1.07s1.07.535 1.07 1.07v7.491c0 1.07-.535 1.07-1.07 1.07zm0-15.516c-.535 0-1.07-.535-1.07-1.07v-7.49c0-.535.535-1.07 1.07-1.07s1.07.535 1.07 1.07v8.025c0 .535-.535.535-1.07.535zm0-15.516c-.535 0-1.07-.535-1.07-1.07v-7.49c0-.535.535-1.07 1.07-1.07s1.07.535 1.07 1.07v7.49c0 1.07-.535 1.07-1.07 1.07zm0-15.515c-.535 0-1.07-.535-1.07-1.07v-7.491c0-.535.535-1.07 1.07-1.07s1.07.535 1.07 1.07v7.491c0 1.07-.535 1.07-1.07 1.07zm0-15.516c-.535 0-1.07-.535-1.07-1.07v-7.49c0-.535.535-1.07 1.07-1.07s1.07.535 1.07 1.07v7.49c0 1.07-.535 1.07-1.07 1.07zm0-14.981c-.535 0-1.07-.535-1.07-1.07v-7.49c0-.535.535-1.07 1.07-1.07s1.07.535 1.07 1.07v7.49c0 .535-.535 1.07-1.07 1.07zm0-15.515c-.535 0-1.07-.535-1.07-1.07v-8.0258c0-.535.535-1.0701 1.07-1.0701s1.07.5351 1.07 1.0701v7.4908c0 1.07-.535 1.605-1.07 1.605zm0-15.5161c-.535 0-1.07-.535-1.07-1.07v-7.4904c0-.535.535-1.07 1.07-1.07s1.07.535 1.07 1.07v7.4904c0 .535-.535 1.07-1.07 1.07zm0-15.5157c-.535 0-1.07-.535-1.07-1.07v-7.4904c0-.535.535-1.07 1.07-1.07s1.07.535 1.07 1.07v7.4904c0 .535-.535 1.07-1.07 1.07zm0-15.5157c-.535 0-1.07-.535-1.07-1.07v-7.4904c0-.535.535-1.07 1.07-1.07s1.07.535 1.07 1.07v7.4904c0 .535-.535 1.07-1.07 1.07zm0-15.5157c-.535 0-1.07-.535-1.07-1.07v-7.4904c0-.535.535-1.07 1.07-1.07s1.07.535 1.07 1.07v7.4904c0 .535-.535 1.07-1.07 1.07zm0-15.5157c-.535 0-1.07-.535-1.07-1.07v-7.4904c0-.535.535-1.07 1.07-1.07s1.07.535 1.07 1.07v7.4904c0 .535-.535 1.07-1.07 1.07zm0-15.51569c-.535 0-1.07-.53502-1.07-1.07005v-7.49033c0-.535014.535-1.070049 1.07-1.070049s1.07.535035 1.07 1.070049v7.49033c0 .53503-.535 1.07005-1.07 1.07005zm0-15.51569c-.535 0-1.07-.53502-1.07-1.07005v-7.49037c0-.535.535-1.07 1.07-1.07s1.07.535 1.07 1.07v7.49037c0 .53503-.535 1.07005-1.07 1.07005zm0-15.51572c-.535 0-1.07-.535-1.07-1.07v-7.4904c0-.535.535-1.07 1.07-1.07s1.07.535 1.07 1.07v7.4904c0 .535-.535 1.07-1.07 1.07zm0-15.5157c-.535 0-1.07-.535-1.07-1.07v-7.4904c0-.535.535-1.07 1.07-1.07s1.07.535 1.07 1.07v7.4904c0 .535-.535 1.07-1.07 1.07zm0-15.5157c-.535 0-1.07-.535-1.07-1.07v-7.4904c0-.535.535-1.07 1.07-1.07s1.07.535 1.07 1.07v7.4904c0 .535-.535 1.07-1.07 1.07zm0-15.5157c-.535 0-1.07-.535-1.07-1.07v-7.4904c0-.535.535-1.07 1.07-1.07s1.07.535 1.07 1.07v7.4904c0 .535-.535 1.07-1.07 1.07zm0-15.5157c-.535 0-1.07-.535-1.07-1.07v-7.4904c0-.535.535-1.07 1.07-1.07s1.07.535 1.07 1.07v7.4904c0 .535-.535 1.07-1.07 1.07z" fill="#fff"/><path d="m-63.9019 205.594c-.535 0-.535 0-1.07-.535 0-.535 0-1.07.535-1.07l6.42-3.745c.535 0 1.07 0 1.07.535s0 1.07-.535 1.07zm12.8399-8.025c-.535 0-.535 0-1.07-.535 0-.535 0-1.07.535-1.07l6.9549-3.745c.535 0 1.07 0 1.07.535s0 1.07-.535 1.07l-6.9549 3.745c.535 0 .535 0 0 0zm13.3748-7.491c-.5349 0-.5349 0-1.0699-.535 0-.535 0-1.07.535-1.07l6.9549-3.745c.535 0 1.07 0 1.07.535s0 1.07-.535 1.07l-6.955 3.745c.535 0 .535 0 0 0zm13.3749-8.025c-.535 0-.535 0-1.07-.535 0-.535 0-1.07.535-1.07l6.9549-3.745c.535 0 1.07 0 1.07.535s0 1.07-.535 1.07l-6.9549 3.745c.535 0 .535 0 0 0zm13.3749-7.49c-.535 0-.535 0-1.07-.535 0-.535 0-1.07.535-1.07l6.95489-3.745c.535 0 1.06999 0 1.06999.535s0 1.07-.53499 1.07l-6.95489 3.745c.535 0 .535 0 0 0zm13.90981-7.491c-.53499 0-.53499 0-1.06998-.535 0-.535-.00001-1.07.53499-1.07l6.95493-3.745c.535 0 1.06995 0 1.06995.535s0 1.07-.53496 1.07zm13.37489-8.025c-.535 0-.535 0-1.07-.535 0-.535 0-1.07.535-1.07l6.9549-3.745c.535 0 1.07 0 1.07.535s0 1.07-.535 1.07zm13.3748-7.49c-.535 0-.535 0-1.07-.535 0-.535 0-1.07.535-1.07l6.955-3.746c.535 0 1.07 0 1.07.536 0 .535 0 1.07-.535 1.07zm13.3749-8.026c-.535 0-.535 0-1.07-.535 0-.535 0-1.07.535-1.07l6.9549-3.745c.535 0 1.07 0 1.07.535s0 1.07-.535 1.07zm13.3748-7.49c-.5349 0-.5349 0-1.0699-.535 0-.535 0-1.07.535-1.07l6.9549-3.745c.535 0 1.07 0 1.07.535s0 1.07-.535 1.07zm13.3749-8.025c-.535 0-.535 0-1.07-.535 0-.535 0-1.07.535-1.07l6.9549-3.746c.535 0 1.07 0 1.07.535s0 1.071-.535 1.071zm13.3749-7.491c-.535 0-.535 0-1.07-.535 0-.535 0-1.07.535-1.07l6.9549-3.745c.535 0 1.07 0 1.07.535s0 1.07-.535 1.07zm13.3748-8.025c-.535 0-.535 0-1.07-.535 0-.535 0-1.07.535-1.07l6.9546-3.745c.535 0 1.07 0 1.07.535s0 1.07-.535 1.07l-6.9546 3.745c.535 0 .535 0 0 0zm13.3746-7.49c-.535 0-.535 0-1.07-.535 0-.535 0-1.07.535-1.07l6.955-3.7456c.535 0 1.07 0 1.07.5346 0 .535 0 1.07-.535 1.07l-6.955 3.746c.535 0 .535 0 0 0zm13.375-8.0257c-.535 0-.535 0-1.07-.5351 0-.535 0-1.07.535-1.07l6.955-3.7452c.535 0 1.07 0 1.07.5351 0 .535 0 1.07-.535 1.07l-6.955 3.7452c.535 0 .535 0 0 0zm13.375-7.4904c-.535 0-.535 0-1.07-.535 0-.535 0-1.07.535-1.07l6.955-3.7452c.535 0 1.07 0 1.07.535s0 1.0701-.535 1.0701l-6.955 3.7451c.535 0 .535 0 0 0zm13.91-8.0253c-.535 0-.535 0-1.07-.5351 0-.535 0-1.07.535-1.07l6.955-3.7452c.535 0 1.07 0 1.07.535 0 .5351 0 1.0701-.535 1.0701zm13.375-7.4904c-.535 0-.535 0-1.07-.535 0-.535 0-1.07.535-1.07l6.955-3.7452c.535 0 1.07 0 1.07.535s0 1.07-.535 1.07zm13.375-8.0253c-.535 0-.535 0-1.07-.5351 0-.535 0-1.07.535-1.07l6.954-3.7452c.535 0 1.07 0 1.07.5351 0 .535 0 1.07-.535 1.07zm13.374-7.4904c-.535 0-.535 0-1.07-.535 0-.535 0-1.0701.535-1.0701l6.955-3.7451c.535 0 1.07 0 1.07.535s0 1.0701-.535 1.0701zm13.375-8.0253c-.535 0-.535 0-1.07-.5351 0-.535 0-1.07.535-1.07l6.955-3.7452c.535 0 1.07 0 1.07.535 0 .5351 0 1.0701-.535 1.0701zm13.375-7.4904c-.535 0-.535 0-1.07-.535 0-.535 0-1.07.535-1.07l6.955-3.7452c.535 0 1.07 0 1.07.535s0 1.0701-.535 1.0701zm13.375-8.0253c-.535 0-.535 0-.535-.5351 0-.535 0-1.07.535-1.07l6.955-3.7452c.535 0 1.07 0 1.07.535 0 .5351 0 1.0701-.535 1.0701zm13.375-7.4904c-.535 0-.535 0-1.07-.535 0-.535 0-1.0701.535-1.0701l6.955-3.7451c.535 0 1.07 0 1.07.535s0 1.0701-.535 1.0701l-6.955 3.7451c.535 0 .535 0 0 0zm13.375-8.0253c-.535 0-.535 0-1.07-.5351 0-.535 0-1.07.535-1.07l6.955-3.7452c.535 0 1.07 0 1.07.535 0 .5351 0 1.0701-.535 1.0701l-6.955 3.7452c.535 0 .535 0 0 0zm13.375-7.4904c-.535 0-.535 0-1.07-.535 0-.535 0-1.07.535-1.07l6.954-3.74521c.536 0 1.07-.00001 1.07.53501 0 .53503 0 1.07005-.535 1.07005l-6.954 3.74515c.535 0 .535 0 0 0z" fill="#fff"/><path d="m277.959 205.594-6.954-3.745c-.535-.535-.535-1.07-.535-1.07.535-.535 1.07-.535 1.07-.535l6.419 3.745c.535.535.535 1.07.535 1.07s0 .535-.535.535zm-13.374-8.025-6.955-3.745c-.535-.535-.535-1.07-.535-1.605.535-.535 1.07-.535 1.07-.535l6.955 3.745c.535.535.535 1.07.535 1.07 0 1.07-.535 1.07-1.07 1.07zm-13.375-7.491-6.955-3.745c-.535-.535-.535-1.07-.535-1.07.535-.535 1.07-.535 1.07-.535l6.955 3.745c.535.535.535 1.07.535 1.07 0 .535-.535.535-1.07.535zm-13.375-8.025-6.955-3.745c-.535-.535-.535-1.07-.535-1.07.535-.535 1.07-.535 1.07-.535l6.955 3.745c.535.535.535 1.07.535 1.07-.535.535-.535.535-1.07.535zm-13.375-7.49-6.955-3.745c-.535-.535-.535-1.07-.535-1.07.535-.535 1.07-.535 1.07-.535l6.955 3.745c.535.535.535 1.07.535 1.07-.535.535-.535.535-1.07.535zm-13.375-7.491-6.955-3.745c-.535-.535-.535-1.07-.535-1.07.535-.535 1.07-.535 1.07-.535l6.955 3.745c.535.535.535 1.07.535 1.07-.535 0-.535.535-1.07.535zm-13.375-8.025-6.955-3.745c-.535-.535-.535-1.07-.535-1.07.535-.535 1.07-.535 1.07-.535l6.955 3.745c.535.535.535 1.07.535 1.07-.535.535-.535.535-1.07.535zm-13.375-7.49-7.489-4.28c-.535-.535-.535-1.071-.535-1.071.535-.535 1.07-.535 1.07-.535l6.954 3.746c.535.535.535 1.07.535 1.07 0 .535-.535 1.07-.535 1.07zm-13.374-8.026c-.535 0-.535 0 0 0l-6.955-3.745c-.535-.535-.535-1.07-.535-1.07.535-.535 1.07-.535 1.07-.535l6.955 3.745c.535.535.535 1.07.535 1.07-.535.535-1.07.535-1.07.535zm-13.375-7.49c-.535-.535-.535 0 0 0l-7.49-4.28c-.535-.535-.535-1.07-.535-1.07.535-.535 1.07-.535 1.07-.535l6.955 3.745c.535.535.535 1.07.535 1.07 0 .535-.535 1.07-.535 1.07zm-13.375-8.025c-.535 0-.535 0 0 0l-6.955-3.745c-.535-.536-.535-1.071-.535-1.071.535-.535 1.07-.535 1.07-.535l6.955 3.746c.535.535.535 1.07.535 1.07-.535.535-1.07.535-1.07.535zm-13.91-7.491-6.955-4.28c-.535-.535-.535-1.07-.535-1.07.535-.535 1.07-.535 1.07-.535l6.955 3.745c.535.535.535 1.07.535 1.07 0 .535-.535 1.07-1.07 1.07zm-13.375-8.025-6.955-3.745c-.535-.535-.535-1.07-.535-1.07.535-.535 1.07-.535 1.07-.535l6.955 3.745c.535.535.535 1.07.535 1.07 0 .535-.535.535-1.07.535zm-13.375-7.49-6.9546-4.281c-.535-.535-.535-1.0696-.535-1.0696.535-.535 1.07-.535 1.605-.535l6.9546 3.7456c.535.535.535 1.07.535 1.07-1.07.535-1.07 1.07-1.605 1.07zm-13.3745-8.0257-6.9549-3.7452c-.535-.535-.535-1.07-.535-1.07.535-.5351 1.07-.5351 1.07-.5351l6.9549 3.7452c.535.535.535 1.07.535 1.07-.535.5351-.535.5351-1.07.5351zm-13.3749-7.4904-6.9549-4.2802c-.535-.535-.535-1.07-.535-1.07.535-.535 1.07-.535 1.07-.535l6.9549 3.7451c.535.535.535 1.0701.535 1.0701-.535.535-.535 1.07-1.07 1.07zm-13.3748-8.0253-6.955-3.7452c-.5349-.535-.5349-1.0701-.5349-1.0701.5349-.535 1.07-.535 1.07-.535l6.9549 3.7452c.535.535.535 1.07.535 1.07-.535.5351-.535.5351-1.07.5351zm-13.3749-7.4904-6.9549-3.7452c-.535-.535-.535-1.07-.535-1.07.535-.535 1.07-.535 1.07-.535l6.9549 3.7452c.535.535.535 1.07.535 1.07-.535 0-.535.535-1.07.535zm-13.3748-8.0253c-.535 0-.535 0 0 0l-6.955-3.7452c-.535-.535-.535-1.07-.535-1.07.535-.5351 1.07-.5351 1.07-.5351l6.955 3.7452c.5349.535.5349 1.07.5349 1.07-.5349.5351-1.0699.5351-1.0699.5351zm-13.3749-7.4904c-.535 0-.535 0 0 0l-6.9549-3.7451c-.535-.5351-.535-1.0701-.535-1.0701.535-.535 1.07-.535 1.07-.535l6.9549 3.7451c.535.5351.535 1.0701.535 1.0701-.535 0-1.07.535-1.07.535zm-13.37486-8.0253c-.535 0-.535 0 0 0l-6.95493-3.7452c-.53499-.535-.53499-1.0701-.53499-1.0701.53499-.535 1.06999-.535 1.06999-.535l6.95489 3.7452c.535.535.535 1.07.535 1.07-.535.5351-1.06996.5351-1.06996.5351zm-13.37486-7.4904c-.53499 0-.53499 0 0 0l-6.95488-3.7451c-.535-.5351-.535-1.0701-.535-1.0701.535-.535 1.06995-.535 1.06995-.535l6.95492 3.7452c.535.535.535 1.07.535 1.07-.53499 0-1.06999.535-1.06999.535zm-13.90988-8.0253-6.9549-3.7452c-.535-.535-.535-1.0701-.535-1.0701.535-.535 1.07-.535 1.07-.535l6.9549 3.7452c.535.535.535 1.07.535 1.07 0 .5351-.535.5351-1.07.5351zm-13.3748-7.4904-6.955-3.7451c-.5349-.5351-.5349-1.0701-.5349-1.0701.5349-.535 1.0699-.535 1.0699-.535l6.955 3.7451c.535.5351.535 1.0701.535 1.0701s-.535.535-1.07.535zm-13.3749-8.0253-6.9549-3.7452c-.535-.535-.535-1.0701-.535-1.0701.535-1.07 1.07-1.07 1.605-.535l6.9549 3.7452c.535.535.535 1.07.535 1.07-1.07.5351-1.07.5351-1.605.5351zm-13.3748-7.4904-6.955-3.74515c-.535-.53502-.535-1.07005-.535-1.07005.535-.53502 1.07-.53501 1.07-.53501l6.955 3.74521c.5349.535.5349 1.07.5349 1.07-.5349 0-.5349.535-1.0699.535z" fill="#fff"/><path d="m284.914 217.365c-1.605 0-3.21-.535-4.28-1.07-4.28-2.676-5.884-8.026-3.21-12.306 2.675-4.28 8.025-5.885 12.305-3.21s5.885 8.025 3.21 12.305c-2.14 2.676-4.815 4.281-8.025 4.281zm-3.745-2.675c3.21 2.14 7.49.535 9.63-2.676 2.14-3.21.535-7.49-2.675-9.63s-7.49-.535-9.63 2.675c-1.605 3.21-.535 7.49 2.675 9.631z" fill="#7f7f7f"/><path d="m106.761 320.089c-4.815 0-9.0946-3.745-9.0946-9.095 0-4.815 3.7446-9.095 9.0946-9.095 4.815 0 9.095 3.745 9.095 9.095s-4.28 9.095-9.095 9.095zm0-16.05c-3.745 0-6.9547 3.21-6.9547 6.955s3.2097 6.955 6.9547 6.955 6.955-3.21 6.955-6.955-3.21-6.955-6.955-6.955z" fill="#7f7f7f"/><path d="m284.914 11.9156c-3.21 0-5.885-1.6051-8.025-4.28023-2.675-4.28019-1.07-9.63044 3.21-12.30556s9.63-1.07005 12.305 3.21015c1.07 2.140093 1.605 4.28019 1.07 6.95531-.535 2.14009-2.14 4.28019-4.28 5.35023-1.07.535-2.675 1.0701-4.28 1.0701zm0-16.05076c-1.07 0-2.14.53501-3.745 1.07004-3.21 2.140094-4.28 6.42029-2.675 9.63044 2.14 3.21014 6.42 4.28018 9.63 2.67512 1.605-1.07005 2.675-2.67512 3.21-4.28019s0-3.74517-.535-5.350241c-1.07-2.140099-3.745-3.745169-5.885-3.745169z" fill="#7f7f7f"/><path d="m-4.51753 182.588c-4.27996 0-8.02487-1.605-10.69987-5.885-5.885-9.096 3.2099-16.051 13.37484-24.611 11.76988-9.631 26.21476-21.401 29.95966-41.197 2.14-10.166.535-17.1209-.535-24.0762-1.605-8.5604-2.6749-16.5857 2.14-27.8212 5.3499-11.7706 12.3049-16.0508 20.8648-20.866 5.8849-3.7452 12.8399-8.0254 20.3298-16.0507 16.0498-17.65581 19.7948-37.4517 22.4697-51.8974 2.14-11.7705 4.28-21.4009 11.7696-22.471 8.025-1.605 12.305 6.4203 18.725 17.1208 6.955 11.7705 17.12 28.35629 36.38 43.33696 10.7 8.56044 20.33 13.37564 27.819 17.12074 11.235 5.3503 19.26 9.6305 21.935 20.3309 2.675 9.0955-.535 14.9807-4.815 23.0061-3.745 6.9553-8.025 16.0507-11.77 30.4964-3.745 14.9806-3.21 24.0756-2.675 31.5666.535 8.025.535 13.91-4.815 21.401-17.119 24.611-60.989 23.006-80.249 21.936-11.7696-.535-17.1195-2.14-23.0045-3.21-5.3499-1.605-10.1648-2.676-20.3297-3.211-21.3998-1.07-37.9846 5.351-50.2895 9.631-5.34995 3.21-11.769881 5.35-16.58483 5.35zm111.81353-229.5252h-.535c-3.745.535-5.35 6.9553-7.4896 18.1908-2.675 14.9807-6.955 35.84661-24.0748 54.5725-8.0249 8.5603-14.9798 12.8405-21.9347 17.1207-8.025 4.8152-13.9099 8.5604-18.7248 18.7259-4.28 9.6304-3.21 16.0507-1.605 24.0761 1.07 6.9553 2.6749 14.9802.535 26.2162-4.28 21.936-20.3298 35.312-32.0997 44.942-10.69988 8.56-14.9798 12.841-12.3049 17.121 3.21 5.35 8.02495 3.745 21.3998-1.07 12.3049-4.816 29.4247-11.236 52.4295-10.166 10.6998.535 16.0498 2.14 21.3997 3.21 5.35 1.605 10.6999 2.675 21.9345 3.211 17.655.535 59.92 2.675 74.9-19.261 4.279-5.886 4.279-10.701 3.744-18.191-.535-7.491-1.07-17.121 3.21-33.1717 3.745-15.5156 8.56-24.6111 12.305-32.1014 4.28-8.0254 6.42-12.3056 4.815-19.2609-2.14-8.5604-8.56-11.7705-19.26-17.1208-8.024-3.7451-17.654-9.0954-28.889-17.6557-20.33-16.05077-30.495-32.6365-37.45-44.9421-5.35-9.0954-9.095-14.4456-12.305-14.4456z" fill="#8a8a8a"/><path d="m102.481 212.549c-4.8147 0-8.5597-3.745-14.9796-9.095-4.8149-4.28-11.2349-9.63-20.8648-16.586-11.7698-8.56-21.9347-13.375-28.8897-17.12-10.6998-5.886-17.6548-9.096-18.1898-17.121-.535-7.491 4.815-11.771 10.6999-16.051 5.885-4.28 12.3049-9.63 16.0499-19.261 3.7449-11.235.5349-22.4709-2.14-31.0312-2.675-8.0254-4.815-14.9807.535-19.2609 5.3499-4.8152 13.9098-1.07 23.0047 2.6751 8.5599 3.7452 18.7248 8.0254 24.6098 4.2802 4.2799-2.6751 4.8149-8.0253 5.3499-13.9106 1.07-6.4203 2.14-13.3756 8.0247-17.1208 8.025-4.8152 16.585-.535 26.215 4.2802 4.28 2.1401 8.56 4.2802 12.84 5.8853 28.355 9.6304 58.849-10.1655 81.319-24.6111 15.515-10.1655 26.215-17.1208 32.1-11.2355 13.374 12.3055-27.82 67.948-27.82 68.483-11.235 15.5153-32.635 43.8723-69.014 56.7123-6.42 2.14-10.7 3.21-14.445 3.745-4.815 1.071-7.49 1.606-12.305 4.816-12.305 9.63-14.98 24.611-17.655 37.986-2.14 11.236-3.745 21.401-11.77 24.077-.535-.536-1.605-.536-2.675-.536zm-51.8942-142.316c-1.07 0-2.14 0-2.675 1.0701-2.1399 1.6051-.535 6.9553 1.605 13.3756 2.675 9.0954 6.42 21.4013 2.14 34.7763-3.745 11.236-11.7699 17.121-17.6548 21.936-5.885 4.28-9.0949 6.956-8.5599 11.236s4.8149 6.955 14.9798 12.305c7.4899 3.745 17.1198 9.096 29.4247 17.656 9.6299 6.955 16.5848 12.841 21.3998 16.586 7.4899 6.42 10.1646 8.56 12.8396 7.49 4.815-1.605 6.42-9.63 8.025-19.261 2.14-13.375 5.35-30.496 19.795-41.732 5.35-4.28 9.095-4.815 14.445-5.885 3.21-.535 7.49-1.605 13.375-3.745 34.774-11.771 55.104-39.5918 66.339-54.5724 19.26-26.2162 33.705-56.1776 28.89-60.4578-2.675-2.6751-14.445 5.3503-25.145 11.7705-23.005 14.9807-55.105 35.8467-86.134 25.6812-4.815-1.605-9.63-3.7452-13.91-5.8853-8.56-4.2801-15.515-7.4903-20.865-4.8152-3.745 2.6752-4.815 7.4904-5.35 13.3756-1.07 6.4203-2.14 13.3756-8.0247 17.6558-8.5599 5.8853-20.3298 1.0701-30.4946-3.7451-5.35-2.1401-10.6999-4.8153-14.4449-4.8153z" fill="#6b71ff"/><path d="m108.901 247.861c-1.07 0-2.14 0-3.21-.535-10.6996-3.745-11.2346-23.541-11.7696-46.012-.535-24.611-1.07-52.967-14.9799-58.853-3.7449-1.605-8.5599-1.605-12.3048-1.605-5.35 0-10.6999.535-13.3749-4.28-2.675-5.35 1.605-10.165 5.8849-15.516 3.21-3.745 6.955-8.025 7.49-12.84 2.1399-11.2357-9.6299-31.5666-74.89925-69.0183-8.02495-4.2802-16.58485-8.5604-25.14475-13.9107-8.0249-4.2802-8.5599-4.8152-6.9549-7.4903l.535-1.0701 1.07-.535c1.605-.535 1.605-.535 6.9549 3.2102.535 0 .535.535 1.07.535s.535.535 1.07.535c6.4199 3.2102 15.5148 8.0254 26.2147 14.4457 51.3595 25.6811 74.3642 23.006 85.0641 14.9806 10.6999-8.0253 12.8399-25.6811 14.4449-39.5917 1.6049-12.84061 2.6749-23.0061 10.1646-24.0761 6.42-1.0701 9.63 4.81519 14.445 12.840549 5.35 9.095411 13.375 21.935951 28.355 33.171551 8.025 5.8852 14.445 8.5603 20.33 11.2355 8.024 3.7451 14.444 6.9553 18.724 15.5157 4.28 9.0954 1.605 16.5857-1.07 24.076-1.605 5.3503-3.745 11.2356-3.745 18.1904.535 23.007 22.47 40.127 39.59 53.503 13.91 10.7 24.61 18.726 21.4 27.821-2.675 7.49-11.235 7.49-24.075 8.025-13.91.536-33.17 1.071-54.034 11.236-19.26 9.095-31.03 22.471-39.59 32.101-6.42 8.026-11.77 13.911-17.655 13.911zm-39.0544-112.89c3.745 0 7.4899.535 11.2349 2.14 17.1198 7.49 18.1898 37.452 18.7248 64.203.5347 18.726 1.0697 38.522 8.0247 41.197 3.21 1.07 7.49-3.21 14.445-11.236 9.095-9.63 20.865-23.541 41.195-33.171 21.934-10.701 41.729-11.236 56.174-11.771 10.165-.535 17.655-.535 18.725-4.28 1.605-4.815-8.56-12.84-19.795-21.401-18.725-14.446-41.73-32.101-42.264-57.782 0-8.0258 2.139-14.4461 3.744-19.7964 2.675-6.9553 4.28-12.8405 1.07-19.7959-3.21-6.9553-8.024-9.0954-15.514-12.3055-5.885-2.6751-12.84-5.8853-20.865-11.7705-16.05-11.7706-24.075-25.6812-29.96-34.77661-3.745-5.88526-6.42-10.70048-8.56-10.16546-3.21.53503-4.28 10.70049-5.35 19.26087-1.6047 14.9807-3.7447 33.7065-16.5845 43.872-11.7699 9.0954-30.4947 9.0954-56.1744.535 25.1447 17.1208 47.0795 37.4517 43.8695 54.0375-1.07 5.885-5.3499 10.7-8.5599 14.981-2.675 3.745-5.8849 7.49-4.815 9.095.535 1.605 4.28 1.07 8.025 1.07.535-2.14 2.1399-2.14 3.2099-2.14z" fill="#00f78b"/><g fill="#595959"><path d="m339.598 379.858c-5.168 0-9.598-4.427-9.598-9.591s4.43-9.59 9.598-9.59 9.597 4.426 9.597 9.59-4.429 9.591-9.597 9.591zm0-16.968c-3.692 0-6.645 2.951-6.645 6.639 0 3.689 2.953 6.64 6.645 6.64 3.691 0 6.644-2.951 6.644-6.64 0-3.688-2.953-6.639-6.644-6.639z"/><path d="m339.598 314.2c-5.168 0-9.598-4.426-9.598-9.59s4.43-9.59 9.598-9.59 9.597 4.426 9.597 9.59-4.429 9.59-9.597 9.59zm0-16.23c-3.692 0-6.645 2.951-6.645 6.64s2.953 6.64 6.645 6.64c3.691 0 6.644-2.951 6.644-6.64s-2.953-6.64-6.644-6.64z"/><path d="m339.598 249.28c-5.168 0-9.598-4.426-9.598-9.59s4.43-9.59 9.598-9.59 9.597 4.426 9.597 9.59-4.429 9.59-9.597 9.59zm0-16.229c-3.692 0-6.645 2.95-6.645 6.639s2.953 6.64 6.645 6.64c3.691 0 6.644-2.951 6.644-6.64s-2.953-6.639-6.644-6.639z"/><path d="m339.598 444.777c-5.168 0-9.598-4.426-9.598-9.59s4.43-9.59 9.598-9.59 9.597 4.426 9.597 9.59-4.429 9.59-9.597 9.59zm0-16.23c-3.692 0-6.645 2.951-6.645 6.64s2.953 6.64 6.645 6.64c3.691 0 6.644-2.951 6.644-6.64s-2.953-6.64-6.644-6.64z"/><path d="m339.598 509.697c-5.168 0-9.598-4.426-9.598-9.59s4.43-9.59 9.598-9.59 9.597 4.426 9.597 9.59c0 5.902-4.429 9.59-9.597 9.59zm0-16.229c-3.692 0-6.645 2.95-6.645 6.639s2.953 6.64 6.645 6.64c3.691 0 6.644-2.951 6.644-6.64s-2.953-6.639-6.644-6.639z"/></g><path d="m431.883 372.48c-1.477 0-2.953-1.475-2.953-2.95v-78.937c0-2.951-2.215-5.164-5.168-5.164s-5.168 2.213-5.168 5.164v78.937c0 1.475-1.477 2.95-2.953 2.95-1.477 0-2.954-1.475-2.954-2.95v-78.937c0-5.902 5.168-11.066 11.075-11.066 5.906 0 11.074 5.164 11.074 11.066v78.937c0 2.213-.738 2.95-2.953 2.95z" fill="#00f78b"/><path d="m462.152 372.48c-1.476 0-2.953-1.475-2.953-2.951v-48.689c0-2.951-2.215-5.164-5.168-5.164s-5.168 2.213-5.168 5.164v48.689c0 1.476-1.476 2.951-2.953 2.951-1.476 0-2.953-1.475-2.953-2.951v-48.689c0-5.902 5.168-11.066 11.074-11.066s11.074 5.164 11.074 11.066v48.689c0 2.214-1.476 2.951-2.953 2.951z" fill="#5555c9"/><path d="m491.684 372.48c-1.477 0-2.954-1.475-2.954-2.951v-140.168c0-2.95-2.214-5.164-5.168-5.164-2.953 0-5.167 2.214-5.167 5.164v140.168c0 1.476-1.477 2.951-2.954 2.951-1.476 0-2.953-1.475-2.953-2.951v-140.168c0-5.901 5.168-11.065 11.074-11.065 5.907 0 11.075 5.164 11.075 11.065v140.168c0 2.214-.739 2.951-2.953 2.951z" fill="#595959"/><path d="m513.832 460.27c-5.906 0-11.074-5.164-11.074-11.066v-78.937c0-1.475 1.476-2.951 2.953-2.951 1.476 0 2.953 1.476 2.953 2.951v78.937c0 2.951 2.215 5.164 5.168 5.164s5.168-2.213 5.168-5.164v-78.937c0-1.475 1.476-2.951 2.953-2.951s2.953 1.476 2.953 2.951v78.937c0 5.902-5.168 11.066-11.074 11.066z" fill="#00f78b"/><path d="m544.102 531.829c-5.907 0-11.075-5.164-11.075-11.066v-150.496c0-1.475 1.477-2.951 2.953-2.951 1.477 0 2.954 1.476 2.954 2.951v151.234c0 2.951 2.214 5.164 5.168 5.164 2.953 0 5.168-2.213 5.168-5.164v-151.234c0-1.475 1.476-2.951 2.953-2.951 1.476 0 2.953 1.476 2.953 2.951v151.234c-.739 5.902-5.168 10.328-11.074 10.328z" fill="#5555c9"/><path d="m573.633 432.974c-5.906 0-11.074-5.164-11.074-11.066v-52.379c0-1.475 1.476-2.951 2.953-2.951 1.476 0 2.953 1.476 2.953 2.951v52.379c0 2.951 2.215 5.164 5.168 5.164s5.168-2.213 5.168-5.164v-52.379c0-1.475 1.476-2.951 2.953-2.951 1.476 0 2.953 1.476 2.953 2.951v52.379c0 5.902-5.168 11.066-11.074 11.066z" fill="#595959"/><path d="m612.023 372.481c-1.476 0-2.953-1.476-2.953-2.951v-59.756c0-2.951-2.215-5.164-5.168-5.164s-5.168 2.213-5.168 5.164v59.756c0 1.475-1.476 2.951-2.953 2.951-1.476 0-2.953-1.476-2.953-2.951v-59.756c0-5.902 5.168-11.066 11.074-11.066 5.907 0 11.075 5.164 11.075 11.066v59.756c-.739 2.213-1.477 2.951-2.954 2.951z" fill="#00f78b"/><path d="m633.433 430.023c-5.906 0-11.074-5.164-11.074-11.066v-49.428c0-1.475 1.477-2.951 2.953-2.951 1.477 0 2.954 1.476 2.954 2.951v49.428c0 2.951 2.214 5.164 5.167 5.164 2.954 0 5.168-2.213 5.168-5.164v-49.428c0-1.475 1.477-2.951 2.954-2.951 1.476 0 2.953 1.476 2.953 2.951v49.428c0 6.64-5.168 11.066-11.075 11.066z" fill="#5555c9"/><path d="m663.703 508.222c-5.906 0-11.074-5.164-11.074-11.066v-126.889c0-1.475 1.476-2.951 2.953-2.951s2.953 1.476 2.953 2.951v126.889c0 2.951 2.215 5.164 5.168 5.164s5.168-2.213 5.168-5.164v-126.889c0-1.475 1.477-2.951 2.953-2.951 1.477 0 2.953 1.476 2.953 2.951v126.889c-.738 6.64-5.168 11.066-11.074 11.066z" fill="#595959"/><path d="m893.309 373.218h-510.891c-2.215 0-3.691-1.475-3.691-3.688s1.476-3.689 3.691-3.689h510.891c2.214 0 3.691 1.476 3.691 3.689s-1.477 3.688-3.691 3.688z" fill="#595959"/></g></svg>