<svg width="259" height="355" viewBox="0 0 259 355" fill="none" xmlns="http://www.w3.org/2000/svg">
<g clip-path="url(#clip0_319_102)">
<path fill-rule="evenodd" clip-rule="evenodd" d="M298.599 345.42C297.924 345.42 296.575 350.361 297.924 353.729C298.599 355.526 300.622 356.425 301.972 355.751C303.545 355.302 303.995 353.729 303.995 352.607C304.445 348.789 301.072 345.42 298.599 345.42ZM287.581 290.395L288.031 295.785L283.534 295.336V301.4L288.031 300.951L287.581 306.566H293.877L293.427 300.951L297.924 301.4V295.336L293.427 295.785L293.877 290.395H287.581ZM290.729 311.282C289.38 311.282 288.481 312.405 288.481 313.528C288.481 314.875 289.38 315.774 290.729 315.774C292.078 315.774 292.978 314.651 292.978 313.528C292.978 312.405 292.078 311.282 290.729 311.282ZM290.729 320.715C289.38 320.715 288.481 321.838 288.481 322.961C288.481 324.308 289.38 325.207 290.729 325.207C292.078 325.207 292.978 324.084 292.978 322.961C292.978 321.613 292.078 320.715 290.729 320.715ZM290.729 330.148C289.38 330.148 288.481 331.27 288.481 332.393C288.481 333.741 289.38 334.639 290.729 334.639C292.078 334.639 292.978 333.516 292.978 332.393C292.978 331.046 292.078 330.148 290.729 330.148ZM298.149 332.393C298.149 333.741 299.049 334.639 300.398 334.639C301.747 334.639 302.646 333.516 302.646 332.393C302.646 331.046 301.747 330.148 300.398 330.148C299.049 330.148 298.149 331.046 298.149 332.393ZM307.593 332.393C307.593 333.741 308.492 334.639 309.841 334.639C311.19 334.639 312.09 333.516 312.09 332.393C312.09 331.046 311.19 330.148 309.841 330.148C308.492 330.148 307.593 331.046 307.593 332.393ZM290.729 342.725C292.753 342.725 297.475 352.607 293.877 357.548C293.202 358.446 292.078 359.12 290.729 359.12C289.38 359.12 288.256 358.67 287.581 357.548C284.208 352.607 288.93 342.725 290.729 342.725ZM282.859 345.42C280.386 345.42 277.238 349.013 277.238 352.831C277.238 353.954 277.688 355.302 279.262 355.975C280.836 356.425 282.635 355.751 283.309 353.954C285.108 350.136 283.534 345.42 282.859 345.42ZM279.262 332.393C279.262 333.741 280.161 334.639 281.51 334.639C282.859 334.639 283.759 333.516 283.759 332.393C283.759 331.046 282.859 330.148 281.51 330.148C280.386 330.148 279.262 331.046 279.262 332.393ZM270.043 332.393C270.043 333.741 270.942 334.639 272.292 334.639C273.641 334.639 274.54 333.516 274.54 332.393C274.54 331.046 273.641 330.148 272.292 330.148C271.167 330.148 270.043 331.046 270.043 332.393ZM267.795 332.393C267.795 334.415 268.244 336.436 268.244 336.436H313.664C312.989 340.928 307.818 347.89 306.469 349.238C305.119 344.746 301.297 342.051 298.149 342.051C297.25 342.051 296.35 343.848 296.125 345.644C295.451 342.949 293.202 339.805 290.954 339.805C288.481 339.805 286.232 343.623 286.007 344.97C285.782 343.398 284.883 342.051 283.984 342.051C281.061 341.826 276.339 346.093 275.215 349.911C272.741 348.115 270.718 344.746 270.043 342.5C269.144 340.928 267.12 339.805 264.647 338.682C257.227 335.538 239.913 334.864 234.742 335.089C231.594 335.313 230.245 333.292 230.695 331.72C231.819 326.329 232.044 317.57 227.772 311.507C232.269 313.079 236.765 317.121 236.765 317.121C238.339 313.977 239.014 306.79 238.564 303.421C242.836 304.993 246.434 308.811 246.434 308.811C248.008 304.544 248.682 296.234 248.008 291.518C258.351 295.111 248.682 313.303 261.499 312.854C257.901 318.02 253.629 315.998 249.807 315.998C247.108 315.998 244.185 317.57 244.185 321.838C244.185 324.757 258.126 327.228 265.096 328.126C266.221 328.351 268.019 327.902 268.469 327.228C270.718 318.244 277.913 311.282 286.907 309.71V313.528V327.228V328.8H268.244C268.244 328.575 267.795 330.372 267.795 332.393ZM294.776 309.485V328.575H313.439C311.865 318.918 304.22 311.057 294.776 309.485ZM73.7503 325.207C74.2 325.431 74.6497 325.207 74.8745 324.982C73.5255 326.779 73.7503 327.902 74.2 328.351C75.0994 329.249 75.7739 327.677 77.7976 325.431C80.0461 323.185 81.3952 322.511 80.4958 321.613C80.0461 321.164 78.9218 321.164 77.123 322.511C77.3479 322.062 77.3479 321.613 77.3479 321.389C76.6733 319.367 73.3006 316.672 71.5018 316.448C71.277 316.448 71.0521 316.448 70.8273 316.672C71.7267 315.325 71.5018 314.426 70.8273 313.752C70.1527 313.079 69.9279 313.528 69.2533 314.426C69.2533 313.752 69.2533 313.079 68.5788 312.18C65.8806 307.913 51.2655 294.213 47.8927 292.866C45.8691 291.967 45.1945 293.09 45.1945 293.09C45.1945 293.09 44.0703 293.764 44.9697 295.785C46.3188 299.154 60.4842 313.528 64.5315 316.223C65.4309 316.672 66.1055 316.897 66.5552 316.897C65.6558 317.57 65.4309 318.02 65.8806 318.469C66.3303 318.918 67.4545 319.143 68.5788 318.244C68.5788 318.469 68.3539 318.693 68.3539 319.143C69.0285 321.164 71.7267 324.533 73.7503 325.207ZM38.6739 284.78C38.2242 284.78 37.5497 284.78 37.1 285.454C36.6503 285.903 36.4255 286.577 36.6503 287.475C36.8752 288.374 37.3249 289.272 38.2242 290.17C39.1236 291.069 40.4727 291.743 41.3721 291.743C41.8218 291.743 42.4964 291.743 42.9461 291.069C43.8455 289.946 43.3958 287.925 41.8218 286.352C40.9224 285.23 39.7982 284.78 38.6739 284.78ZM84.0933 335.538C84.0933 334.19 81.3952 331.72 78.0224 331.72C73.3006 331.72 71.0521 334.864 71.0521 336.436C71.0521 339.356 73.9752 339.805 74.6497 339.805C78.2473 340.03 83.6436 336.436 84.0933 335.538ZM79.8212 342.949C82.0697 340.254 86.117 338.233 87.6909 338.233C88.3655 338.907 88.1406 345.42 86.3418 348.339C85.4424 349.687 83.8685 350.585 82.2945 350.585C80.7206 350.585 78.9218 349.687 78.4721 347.89C78.0224 346.318 78.4721 344.521 79.8212 342.949ZM37.5497 275.797C39.7982 278.043 35.7509 280.962 35.7509 283.657C33.0527 283.882 30.3545 288.149 28.1061 285.903C26.757 284.556 28.5558 281.636 27.6564 279.839C23.6091 280.738 27.8812 283.657 25.183 286.577C24.0588 287.7 22.26 287.251 21.5855 286.577C22.7097 285.229 22.26 283.433 21.5855 283.208C14.3903 286.802 5.84606 280.513 6.74546 274.225C8.3194 275.348 13.7158 275.572 15.0649 274.898C16.6388 277.144 20.4612 275.348 19.337 272.877C18.6624 271.08 14.3903 268.161 11.4673 271.754C10.343 271.754 10.1182 269.733 12.5915 267.487C8.09455 269.059 9.21879 259.851 10.1182 257.83C11.917 256.707 20.9109 255.134 19.5618 260.075C21.5855 257.38 23.3842 257.829 23.6091 258.728C20.2364 261.648 23.1594 265.915 24.9582 266.589C27.4315 267.711 29.2303 263.893 26.757 262.097C27.2067 260.525 26.9818 255.134 25.6327 253.562C31.7036 252.439 37.9994 260.974 34.6267 268.61C34.8515 269.284 36.6503 269.733 37.7745 268.385C38.4491 269.059 39.1236 270.856 37.9994 271.979C35.0764 274.898 32.1533 270.631 31.4788 274.674C33.2776 276.47 36.2006 274.449 37.5497 275.797ZM14.84 266.139C14.84 266.139 18.4376 267.711 20.0115 268.161C19.5618 266.589 17.9879 262.995 17.9879 262.995C17.9879 262.995 16.8636 261.648 15.2897 263.444C13.4909 265.241 14.84 266.139 14.84 266.139ZM28.7806 276.92C28.7806 276.021 30.5794 273.775 29.4552 272.877L24.7333 268.161L22.26 270.631L20.2364 273.102L24.9582 277.818C25.8576 278.941 28.1061 277.144 28.7806 276.92ZM107.702 349.687C107.927 349.013 107.702 348.339 107.478 348.115C107.253 347.89 107.253 347.89 107.253 347.89C107.028 347.89 106.353 348.564 105.904 349.238C105.454 349.911 104.779 350.585 104.105 351.484C103.43 352.382 102.756 352.831 102.081 353.505C101.407 354.179 100.732 354.628 100.732 355.077C100.732 355.077 100.732 355.302 100.957 355.302C101.182 355.526 101.632 355.751 101.856 355.751C102.531 355.751 103.88 355.526 105.679 353.28C107.028 351.484 107.702 350.361 107.702 349.687ZM107.702 355.302C108.827 354.179 109.501 353.056 109.951 352.382C110.625 353.056 111.975 355.526 110.625 357.997C109.951 358.446 109.052 358.67 108.377 358.67C106.803 358.67 105.679 357.997 105.229 357.548C105.679 357.098 106.803 356.425 107.702 355.302ZM91.7382 341.826C91.0636 342.5 89.2649 347.441 89.9394 350.361C90.1642 351.708 91.0636 352.157 92.1879 352.157C93.537 352.157 94.2115 351.484 94.2115 350.136C94.8861 347.216 92.6376 342.275 91.7382 341.826ZM90.8388 328.126C90.8388 328.126 99.8327 335.987 102.756 338.907C103.43 339.58 104.33 339.805 105.454 339.131C106.128 338.907 106.803 338.457 107.478 338.233C116.472 335.089 131.087 334.639 136.483 334.864C139.631 335.089 140.755 333.067 140.53 331.495C139.406 326.33 139.181 317.346 143.453 311.282C138.956 312.854 134.459 316.897 134.459 316.897C132.885 313.752 132.211 306.566 132.661 303.197C128.388 304.769 124.791 308.587 124.791 308.587C123.217 304.32 122.542 296.01 123.217 291.293C112.874 294.887 122.542 313.079 109.726 312.629C113.324 317.795 117.596 315.774 121.418 315.774C124.116 315.774 127.489 317.57 127.039 321.613C126.59 324.533 109.501 328.351 102.756 328.351C98.0339 328.351 94.6612 326.779 92.4127 323.634C91.2885 322.062 90.1642 321.389 88.8152 321.613C87.2412 321.838 85.2176 323.634 85.2176 327.452C85.2176 330.148 86.3418 336.211 89.7146 336.211C91.5133 335.987 91.7382 331.27 90.8388 328.126ZM101.856 349.238C100.957 350.136 99.383 351.708 98.2588 351.034C98.0339 351.034 97.8091 350.81 97.5842 350.585C98.7085 346.767 97.3594 342.5 94.4364 338.233C94.6612 337.559 94.8861 336.436 95.1109 335.538C99.8327 340.029 103.205 343.848 103.88 345.195C103.88 346.318 103.43 347.666 101.856 349.238ZM79.1467 326.779C79.3715 326.33 80.4958 325.656 81.1703 325.431C81.1703 326.554 81.1703 327.677 81.1703 328.575C80.0461 328.351 78.9218 328.126 78.0224 328.126C78.697 327.452 79.1467 326.779 79.1467 326.779ZM234.967 355.302C237.89 353.954 239.913 350.361 240.588 346.767C238.789 347.666 236.541 348.115 234.292 348.115C227.547 348.115 219.227 344.521 211.807 341.152C211.807 341.152 210.233 342.5 207.535 342.725C215.18 344.97 230.245 353.505 231.369 358.67C232.044 362.264 229.795 363.611 229.795 363.611C226.422 358.221 217.878 349.687 206.411 345.42C206.411 347.441 205.961 348.789 205.961 348.789C205.961 348.789 203.713 349.462 198.766 348.564C203.038 352.157 214.505 364.959 215.63 374.616C216.529 381.13 212.032 381.354 212.032 381.354C211.358 371.697 206.186 361.59 196.967 351.484C196.967 351.484 195.393 353.954 193.37 355.077C193.37 355.077 189.997 354.403 187.074 352.607C188.198 365.408 188.873 382.028 188.198 387.193C187.748 390.787 185.725 392.134 185.725 392.134C185.725 392.134 183.701 390.562 183.252 387.193C182.577 382.252 183.252 365.408 184.376 352.607C181.453 354.403 178.08 355.077 178.08 355.077C176.056 353.954 174.482 351.484 174.482 351.484C165.264 361.59 160.092 371.697 159.418 381.354C159.418 381.354 154.921 381.13 155.82 374.616C156.944 364.959 168.412 352.157 172.684 348.564C167.737 349.462 165.488 348.789 165.488 348.789C165.488 348.789 165.039 347.441 165.039 345.42C153.572 349.687 145.027 357.997 141.655 363.611C141.655 363.611 139.406 362.264 140.081 358.67C141.205 353.28 156.27 344.97 163.915 342.725C161.216 342.5 159.642 341.152 159.642 341.152C151.998 344.521 143.678 348.115 137.158 348.115C134.684 348.115 132.661 347.666 130.862 346.767C131.312 350.361 133.56 353.954 136.483 355.302C126.14 362.489 132.661 379.557 118.72 376.189C126.365 390.338 141.879 391.91 141.879 391.91C138.507 384.274 142.779 361.366 163.465 350.81C150.873 363.387 145.027 378.884 148.4 389.664C151.548 399.546 161.441 403.589 169.086 403.813C163.69 387.418 167.062 368.552 178.08 356.649C173.358 369.675 166.613 404.262 185.95 411C205.287 404.262 198.541 369.675 193.819 356.649C204.837 368.552 208.21 387.193 202.813 403.813C210.458 403.589 220.352 399.546 223.499 389.664C226.872 378.884 221.026 363.611 208.435 350.81C229.121 361.366 233.393 384.274 230.02 391.91C230.02 391.91 245.535 390.562 253.179 376.189C239.014 379.333 245.31 362.489 234.967 355.302ZM187.074 69.6229C187.074 68.5 186.175 67.8262 185.275 67.8262C184.376 67.8262 183.476 68.7246 183.476 69.6229C183.476 70.7459 184.376 71.4197 185.275 71.4197C186.399 71.4197 187.074 70.7459 187.074 69.6229ZM196.068 69.6229C196.068 68.5 195.168 67.8262 194.269 67.8262C193.37 67.8262 192.47 68.7246 192.47 69.6229C192.47 70.7459 193.37 71.4197 194.269 71.4197C195.393 71.4197 196.068 70.7459 196.068 69.6229ZM182.127 21.7852C182.127 23.582 183.701 25.1541 185.5 25.1541C187.299 25.1541 188.873 23.582 188.873 21.7852C188.873 19.9885 187.299 18.4164 185.5 18.4164C183.701 18.1918 182.127 19.7639 182.127 21.7852ZM183.252 14.3738H187.748L187.299 8.75902L192.245 9.2082V4.94098L187.299 5.39016L187.748 0H183.252L183.701 5.61475L178.755 5.16557V9.43279L183.701 8.98361L183.252 14.3738ZM178.08 69.6229C178.08 68.5 177.181 67.8262 176.281 67.8262C175.382 67.8262 174.482 68.7246 174.482 69.6229C174.482 70.7459 175.382 71.4197 176.281 71.4197C177.405 71.4197 178.08 70.7459 178.08 69.6229ZM167.287 76.3607C167.737 76.5852 168.412 76.5852 169.086 76.5852H201.914C202.589 76.5852 203.038 76.5852 203.713 76.3607C204.837 75.9115 205.512 75.2377 205.736 73.8902H165.488C165.713 75.2377 166.388 76.1361 167.287 76.3607ZM169.086 69.6229C169.086 68.5 168.187 67.8262 167.287 67.8262C166.388 67.8262 165.488 68.7246 165.488 69.6229C165.488 70.7459 166.388 71.4197 167.287 71.4197C168.412 71.4197 169.086 70.7459 169.086 69.6229ZM205.062 69.6229C205.062 68.5 204.162 67.8262 203.263 67.8262C202.364 67.8262 201.464 68.7246 201.464 69.6229C201.464 70.7459 202.364 71.4197 203.263 71.4197C204.387 71.4197 205.062 70.7459 205.062 69.6229ZM207.31 65.1311C208.21 64.0082 212.932 55.0246 212.932 46.041C212.932 37.9557 202.813 33.4639 196.742 33.2393C196.068 44.918 191.571 62.8852 185.725 62.8852C180.104 62.8852 175.382 44.918 174.707 33.2393C168.636 33.4639 158.518 37.9557 158.518 46.041C158.518 55.0246 163.015 64.0082 164.139 65.1311H207.31ZM185.5 57.4951C182.802 57.4951 178.979 45.1426 178.305 35.0361C178.305 32.7902 181.003 29.4213 185.5 29.4213C189.997 29.4213 192.695 32.7902 192.695 35.0361C191.796 45.8164 188.198 57.4951 185.5 57.4951ZM97.5842 116.338C92.1879 123.749 99.6079 131.834 100.058 132.284C100.282 132.733 100.732 132.508 100.507 132.059C100.507 131.61 104.33 120.38 126.815 126.22C127.264 126.444 127.489 126.444 127.039 125.995C122.992 122.626 118.045 115.439 116.472 109.375C116.696 109.375 102.981 108.926 97.5842 116.338ZM109.726 114.766C109.726 112.744 112.649 112.07 114.448 112.07C114.448 112.07 115.122 114.092 116.022 115.215C114.223 114.316 111.75 114.316 109.726 114.766ZM121.643 105.108C122.542 105.108 147.501 105.108 147.501 105.108C161.666 105.108 171.11 102.189 177.181 99.2689C176.056 103.311 172.009 107.803 170.21 108.702C172.459 109.825 175.832 110.723 178.305 110.274C176.731 113.418 170.885 115.439 168.187 115.664C169.985 117.685 172.908 119.707 175.157 120.38C174.033 121.503 168.861 122.402 165.264 121.503C167.962 125.546 173.358 130.038 177.405 130.038C172.684 133.631 163.69 132.508 156.27 125.995C155.595 130.038 156.495 136.326 157.169 137.898C154.021 137.225 149.299 131.834 147.501 128.915C145.027 134.53 145.027 136.775 145.027 136.775C139.406 129.139 125.465 125.097 120.294 107.803C119.619 106.007 120.069 105.108 121.643 105.108ZM137.158 112.969C141.205 111.397 142.329 111.172 142.329 110.274H129.962C127.939 110.274 128.164 111.621 128.613 112.52C129.288 113.643 131.087 116.787 131.087 116.787C131.087 116.787 133.11 114.541 137.158 112.969ZM94.8861 141.267C94.8861 141.043 94.6612 141.043 94.8861 141.267C95.3358 141.267 99.6079 143.738 109.276 137.449C118.72 131.161 126.14 128.69 129.962 128.016C129.962 128.016 133.56 130.487 136.708 133.407C127.714 134.08 120.968 139.695 120.069 141.492C120.069 141.716 119.844 141.716 119.844 141.492C118.945 138.572 120.069 136.102 120.069 136.102C120.069 136.102 116.022 138.572 107.927 143.289C99.8327 148.23 96.2352 143.064 94.8861 141.267ZM208.435 338.682C207.535 338.907 206.411 339.131 205.512 339.131C204.387 339.131 203.263 338.907 202.364 338.457C203.038 340.703 203.263 343.398 202.813 345.42C202.364 345.42 201.914 345.42 201.464 345.42C199.441 345.42 197.642 345.195 196.293 344.297C196.068 346.318 195.168 348.789 193.595 350.585C193.37 350.81 192.92 351.259 192.695 351.484C190.896 351.484 186.399 349.462 185.725 348.115C184.825 349.462 180.553 351.484 178.755 351.484C178.305 351.259 178.08 350.81 177.855 350.585C176.281 349.013 175.382 346.543 175.157 344.297C171.784 345.644 168.412 345.42 168.412 345.42C167.962 343.623 168.187 340.703 168.861 338.457C167.962 338.907 166.838 339.131 165.713 339.131C164.589 339.131 163.69 338.907 162.79 338.682C161.441 338.233 160.317 337.559 159.642 336.661C165.713 336.436 170.885 331.046 172.684 327.902C174.707 331.27 178.305 333.966 178.305 333.966C181.003 333.292 184.376 330.372 185.725 328.351C187.074 330.597 190.447 333.292 193.145 333.966C193.145 333.966 196.742 331.27 198.766 327.902C200.565 331.27 205.736 336.436 211.807 336.661C211.133 337.559 210.008 338.233 208.435 338.682ZM147.276 207.521C146.152 207.521 145.252 208.195 145.252 209.543V284.78C145.252 291.967 148.175 295.561 153.572 295.561H167.512C176.956 295.561 182.577 298.929 185.5 302.972C187.748 299.154 194.494 295.561 203.488 295.561H217.428C223.05 295.561 225.748 291.967 225.748 284.78V209.543C225.748 208.195 225.073 207.521 223.724 207.521H147.276ZM160.767 278.043C160.542 279.615 162.565 282.759 165.713 281.861C165.713 282.534 165.713 284.107 166.613 285.454C160.992 286.577 158.518 281.861 160.767 278.043ZM212.032 253.113C211.358 252.215 210.458 251.541 209.784 250.643C208.884 249.744 208.435 249.295 207.535 249.295C205.736 249.295 203.713 250.418 202.588 251.092C202.588 251.092 202.364 251.092 202.364 251.316C203.488 251.316 204.612 251.092 205.736 251.092C206.636 250.867 207.535 251.092 208.435 251.541C209.109 251.99 209.559 252.664 209.559 253.562C209.559 256.033 211.807 261.423 211.807 263.22C212.032 263.893 211.133 264.118 210.233 267.038C209.559 267.936 207.31 265.241 207.535 264.567C208.659 262.995 209.109 261.872 208.884 260.749C208.659 259.851 208.21 258.054 207.76 257.156C207.31 255.808 206.186 255.359 205.062 255.808C199.89 257.605 199.216 255.134 194.044 257.38L199.89 266.364C199.89 265.69 199.665 264.567 198.541 263.669C198.766 262.77 200.565 262.321 201.239 263.22C202.139 264.343 203.713 265.915 205.062 266.139C207.76 266.589 207.535 270.631 214.281 271.979C213.381 272.877 211.582 272.652 210.683 272.203C211.133 272.877 211.807 273.775 212.707 274C211.582 275.123 208.659 272.652 208.884 275.123C209.334 274.898 210.233 274.674 210.683 274.898C212.032 275.348 214.281 283.208 209.559 286.577C210.683 286.802 211.582 286.352 212.707 286.352C213.381 286.352 213.831 287.026 213.831 287.7C214.281 288.149 214.505 288.374 214.73 289.048C214.281 289.272 213.606 289.048 213.381 288.823C213.606 289.272 213.606 290.395 213.381 290.395C212.932 290.395 212.707 290.17 212.257 289.946C211.582 290.17 209.559 290.17 209.109 289.721C207.535 290.17 206.186 290.62 204.387 290.62C203.488 290.62 202.364 290.62 202.364 289.497C202.364 289.048 202.588 288.823 202.813 288.149C202.139 287.475 200.79 288.149 199.441 288.374C197.417 288.598 196.742 288.149 196.293 287.925C198.092 286.128 196.967 282.085 194.044 281.636C196.518 283.882 196.068 287.475 193.37 288.374C194.044 288.598 194.494 289.048 194.719 289.497C195.618 289.946 195.618 290.62 195.618 290.844C195.168 290.395 194.269 290.17 193.37 290.17C193.37 290.395 193.145 291.069 192.92 291.293C192.695 291.293 192.245 290.844 192.021 290.62C191.121 289.946 185.95 291.293 185.5 290.395C185.275 289.497 186.624 288.823 187.973 288.598C184.601 287.475 181.678 281.187 176.506 280.064C174.033 279.615 170.885 280.738 170.885 283.657C170.885 285.23 172.009 286.352 173.358 286.352C174.482 286.352 175.157 285.454 175.157 284.556C174.932 284.78 174.932 284.78 174.707 285.005C174.033 285.679 172.908 285.679 172.234 285.005C171.559 284.331 171.559 283.433 172.234 282.759C172.684 282.085 173.358 281.861 174.033 281.636C176.056 281.411 177.63 282.085 178.755 283.657C179.204 284.331 179.654 285.23 179.654 286.128C179.654 289.721 176.056 290.62 174.033 290.62C169.086 290.62 166.163 287.026 166.163 282.984C166.163 282.534 166.163 282.085 166.163 281.411C166.838 276.695 171.11 274.898 174.707 274.225C174.258 272.652 173.358 271.305 172.009 270.182C171.335 269.733 171.335 269.284 171.784 268.61C172.234 267.711 172.908 266.813 173.133 265.69C173.133 265.466 173.133 265.241 173.133 265.016C171.335 266.589 168.861 268.161 165.488 269.059C164.364 269.508 163.915 270.631 163.69 271.754C163.465 273.102 163.465 274.449 163.465 275.797C163.465 276.021 163.69 276.47 163.915 276.695C164.589 277.818 165.264 278.941 165.488 280.289C165.488 280.962 162.116 280.962 162.116 280.513C162.116 278.043 160.542 277.144 160.542 275.572C160.992 273.102 160.992 270.631 160.767 268.161C160.767 267.487 160.992 267.038 161.441 266.813C162.116 266.364 163.015 265.69 163.69 265.241C165.264 263.893 166.163 262.321 165.713 260.3C165.713 260.075 165.488 259.851 165.488 259.626C164.589 257.829 164.139 255.808 164.139 253.787C164.139 251.541 161.216 251.541 161.441 253.787C161.441 254.461 162.116 255.359 162.341 256.033C165.264 262.77 160.092 267.487 154.696 267.487C160.317 265.466 153.347 258.279 153.347 252.889C153.347 249.52 155.82 247.049 158.968 247.049C162.565 247.049 164.814 249.295 165.488 249.744C167.287 247.049 172.459 246.6 174.482 246.151C174.258 244.579 174.482 243.456 175.382 242.333V242.108C175.157 241.434 174.707 240.761 174.482 240.087C172.908 241.884 172.459 244.354 172.459 245.477C166.388 245.477 163.915 242.782 162.116 241.659C162.116 241.21 163.69 238.29 165.039 236.493C163.465 237.841 162.341 239.413 161.216 240.985C160.317 240.311 159.418 239.862 158.518 239.413C159.867 236.493 161.666 234.248 163.915 232.002C160.767 233.125 157.844 236.718 156.944 238.964C156.045 238.964 154.696 238.739 154.021 238.964C157.394 234.697 159.193 226.387 166.838 224.366C164.814 232.226 169.761 235.37 172.908 233.349C172.459 233.349 172.234 233.349 172.009 233.349C165.713 231.777 169.311 222.793 167.962 220.997C167.287 220.323 167.062 219.649 167.062 218.751C167.062 218.526 167.062 218.077 166.838 217.852L163.465 212.238C163.015 211.564 164.364 211.115 164.589 211.339L167.962 216.954C167.962 217.179 168.187 217.403 168.187 217.403C169.536 217.628 169.761 218.751 170.435 219.649C170.66 219.874 170.66 220.323 170.66 220.548C170.66 220.772 170.66 221.221 170.435 221.446C169.985 221.895 169.985 222.569 170.435 223.243C171.11 224.366 191.796 258.728 191.796 258.728C187.299 260.525 179.204 260.749 176.956 260.525C176.506 261.648 175.607 262.995 174.482 264.118C175.607 263.444 176.506 262.546 177.181 261.423C178.08 261.423 179.429 261.872 180.778 262.097C179.879 263.893 178.755 265.69 177.181 267.038C176.506 267.711 175.607 268.385 175.832 269.508C176.281 270.856 178.755 273.326 179.654 274.898C180.553 275.123 182.127 275.348 183.252 275.797C183.926 277.144 185.95 278.941 188.648 278.043C183.476 278.043 183.926 272.652 185.5 269.957C185.275 272.652 186.624 274.674 188.198 274.898C185.725 272.652 185.95 267.711 188.423 265.016C188.648 269.508 189.997 271.754 192.021 272.203C189.547 269.957 187.973 264.567 191.796 260.525C192.021 270.631 201.239 268.834 202.139 280.289C205.512 280.289 205.736 275.797 203.938 274.898C202.813 274.449 201.914 273.775 201.239 272.877C201.015 272.428 200.79 271.754 200.565 271.305C199.665 268.385 196.742 268.61 196.742 267.711C196.742 267.487 197.192 267.262 197.867 267.262L192.47 258.952L192.245 258.503C192.92 258.279 193.145 258.054 192.47 256.931C192.47 256.931 172.234 223.467 172.234 223.243C174.033 223.018 175.832 223.467 177.63 224.141C177.181 223.692 176.731 223.018 176.731 222.569C176.731 222.12 176.731 221.67 177.181 221.446C177.63 220.997 178.08 220.772 178.305 220.323C179.204 218.751 181.228 218.077 182.802 218.526C185.275 219.2 186.175 222.12 184.376 223.692C183.476 225.938 182.127 225.489 181.902 226.611C182.352 226.836 185.95 229.531 186.175 230.654C185.05 232.9 184.601 236.044 185.5 238.066C186.175 229.082 191.571 224.815 196.742 224.815C198.092 224.815 199.216 225.039 200.34 225.489C201.015 225.713 201.689 225.938 202.364 226.387C203.263 227.061 203.938 227.734 204.612 228.408C205.736 229.531 206.636 230.654 208.21 230.879C207.76 231.552 207.085 232.226 206.636 232.675C206.186 233.125 205.961 233.574 205.961 234.023C205.736 235.146 205.512 236.493 204.612 237.392C204.387 237.616 204.387 237.616 204.387 237.841C203.713 239.413 203.263 241.21 202.588 242.782C202.364 243.231 202.589 243.68 201.914 243.68C201.464 243.68 200.79 243.456 200.565 243.231C199.89 242.557 199.441 241.659 199.89 240.761C200.115 239.862 199.89 238.964 199.665 238.066C199.441 237.167 199.216 236.269 198.991 235.146C197.642 234.697 194.944 237.616 196.967 240.311C198.316 242.108 199.441 245.702 199.665 247.049C199.665 247.274 198.541 247.948 196.742 247.723C190.896 247.049 187.299 243.007 186.175 239.638C186.175 245.477 190.896 249.744 197.867 249.295C198.092 250.643 199.216 251.541 200.565 251.541C200.79 250.643 200.79 248.846 200.565 247.723C200.565 247.274 200.79 247.049 201.239 246.825C202.813 246.375 204.837 246.6 206.636 245.926C208.21 245.477 208.884 245.702 209.784 247.498C210.458 248.846 211.807 250.418 212.932 251.541C213.381 251.99 213.831 252.439 214.281 252.889C214.955 253.562 215.18 254.236 215.18 255.134C214.955 256.482 215.18 259.177 215.18 259.177C214.73 260.075 212.482 259.177 212.032 258.279C212.032 256.931 213.381 254.461 212.032 253.113ZM254.304 109.375C252.73 115.215 247.783 122.626 243.736 125.995C243.286 126.444 243.511 126.444 243.961 126.22C266.445 120.156 270.268 131.61 270.268 132.059C270.268 132.508 270.493 132.733 270.718 132.284C271.167 131.834 278.587 123.749 273.191 116.338C268.019 108.926 254.304 109.375 254.304 109.375ZM255.203 115.215C255.878 114.092 256.777 112.07 256.777 112.07C258.576 112.07 261.499 112.744 261.499 114.766C259.25 114.316 256.777 114.316 255.203 115.215ZM276.114 141.267C274.765 143.064 271.167 148.23 263.073 143.513C254.978 138.797 250.931 136.326 250.931 136.326C250.931 136.326 252.28 138.797 251.156 141.716C251.156 141.941 250.931 141.941 250.931 141.716C250.032 139.92 243.061 134.305 234.292 133.631C237.44 130.711 241.038 128.241 241.038 128.241C244.86 128.915 252.28 131.385 261.724 137.674C271.392 143.738 275.664 141.267 276.114 141.267C276.339 141.043 276.114 141.043 276.114 141.267ZM201.015 108.477C199.216 107.579 194.944 103.087 194.044 99.0443C200.115 101.964 209.559 104.884 223.724 104.884C223.724 104.884 248.682 104.884 249.582 104.884C251.156 104.884 251.605 105.782 251.156 107.579C245.984 124.872 232.044 129.139 226.422 136.551C226.422 136.551 226.422 134.305 223.949 128.69C222.15 131.61 217.429 137 214.281 137.674C214.955 136.102 215.855 130.038 215.18 125.77C207.985 132.059 198.991 133.407 194.044 129.813C198.092 130.038 203.488 125.321 206.186 121.279C202.364 122.177 197.192 121.279 196.293 120.156C198.766 119.482 201.464 117.461 203.263 115.439C200.565 115.215 194.719 112.969 193.145 110.049C195.393 110.723 198.766 109.825 201.015 108.477ZM241.038 110.274H228.671C228.671 111.172 229.795 111.397 233.842 112.969C237.89 114.541 239.913 116.787 239.913 116.787C239.913 116.787 241.937 113.643 242.387 112.52C243.061 111.621 243.061 110.274 241.038 110.274ZM148.625 136.326C147.725 138.572 147.501 141.043 147.95 144.411C150.649 150.026 151.773 160.582 151.098 166.421C155.145 160.582 157.169 154.069 158.293 148.903C160.767 151.374 163.69 154.743 165.938 157.662C166.388 154.518 167.062 150.925 167.512 148.23C170.66 151.149 176.956 154.967 181.453 156.09C178.53 143.738 173.583 135.877 173.583 135.877C169.311 136.326 162.565 135.203 159.418 132.284C159.867 136.775 163.015 141.941 163.015 141.941C156.27 142.615 151.773 140.369 148.625 136.326ZM222.15 136.326C219.227 140.369 214.505 142.39 207.985 141.941C207.985 141.941 211.133 136.775 211.582 132.284C208.435 135.203 201.689 136.326 197.417 135.877C197.417 135.877 192.47 143.738 189.547 156.09C193.819 154.743 200.34 151.149 203.488 148.23C204.162 150.925 204.612 154.743 205.062 157.662C207.31 154.743 210.233 151.374 212.707 148.903C213.831 154.069 215.63 160.582 219.902 166.421C219.002 160.582 220.352 150.026 223.05 144.411C223.275 141.267 223.05 138.572 222.15 136.326ZM165.713 175.18C163.915 183.041 156.495 190.452 149.075 191.126C154.021 184.838 154.246 173.833 153.796 170.239C156.944 165.074 159.193 160.582 160.317 157.438C162.565 159.684 165.938 163.951 169.086 168.667C169.086 168.667 169.086 162.603 170.435 155.192C173.583 158.111 179.204 160.133 182.352 160.807C184.376 163.951 184.825 166.421 185.725 170.239C186.624 166.197 187.074 163.951 189.098 160.807C192.245 159.908 197.867 157.887 201.015 155.192C202.139 162.603 202.364 168.667 202.364 168.667C205.512 163.726 208.884 159.459 211.133 157.438C212.257 160.582 214.281 165.074 217.653 170.239C217.204 173.833 217.428 184.838 222.375 191.126C214.955 190.452 207.535 183.041 205.736 175.18C203.263 179.223 201.015 183.939 200.34 188.207C197.867 185.287 195.393 180.346 193.819 174.282C191.796 176.977 188.198 182.143 186.175 186.634C184.151 182.367 180.553 176.977 178.53 174.282C176.731 180.346 174.258 185.287 172.009 188.207C170.435 183.939 168.187 178.998 165.713 175.18ZM97.5842 266.813C101.856 264.118 104.555 259.177 107.478 252.889C105.679 253.562 103.205 254.461 100.507 254.91C98.0339 259.851 94.4364 257.83 94.4364 257.156C95.1109 256.257 96.0103 255.134 96.6849 254.011C95.5606 251.99 94.4364 249.07 93.537 247.274C89.9394 254.91 83.4188 262.546 77.7976 265.466C81.3952 269.957 91.2885 270.856 97.5842 266.813ZM110.625 254.011C107.702 260.3 108.377 269.957 117.821 270.407C116.921 263.444 120.069 257.156 123.442 254.011C120.519 254.685 116.022 258.503 116.022 258.503C116.022 258.503 115.347 260.075 115.122 262.097C113.099 262.546 111.975 260.974 112.874 257.83C112.874 257.83 111.525 256.257 110.625 254.011ZM63.6321 261.423C55.3127 261.423 48.5673 255.359 46.7685 251.316C56.2121 249.969 69.9279 242.782 77.123 235.595C77.123 238.515 77.5727 241.434 78.0224 243.456C75.3242 246.375 71.0521 248.397 71.0521 248.397C71.0521 248.397 72.1764 250.418 74.6497 250.418C75.5491 250.418 76.4485 250.193 77.3479 249.744C79.1467 248.846 81.3952 245.926 81.3952 245.926C84.7679 245.477 87.6909 245.028 90.6139 244.129C85.4424 250.643 76.6733 258.503 67.4545 260.749C66.3303 261.198 64.9812 261.423 63.6321 261.423ZM45.1945 245.926C45.6442 245.926 46.0939 245.926 46.5436 245.926C55.9873 245.028 67.4545 238.964 74.6497 233.798C72.4012 234.248 66.1055 234.472 63.1824 234.023C62.283 234.697 57.7861 237.616 53.9636 238.066C47.2182 238.964 46.5436 234.697 46.5436 234.697C50.8158 234.248 55.9873 232.675 60.7091 230.429C61.1588 226.836 62.0582 223.692 62.7327 221.221C52.3897 227.061 35.3012 231.103 25.183 231.328C27.4315 235.82 35.3012 245.926 45.1945 245.926ZM46.5436 212.013C38.4491 213.81 28.3309 213.361 28.3309 213.361C28.3309 213.361 29.0055 217.628 34.6267 218.077C37.1 218.302 44.7448 216.954 47.8927 216.056C49.2418 216.729 55.0879 218.077 61.3836 218.975C52.8394 222.12 40.2479 225.264 32.3782 225.264C31.7036 225.264 30.8042 225.264 30.1297 225.264C17.5382 224.141 11.0176 212.462 10.7927 205.949C14.6152 206.623 20.9109 207.072 27.6564 207.072C33.2776 207.072 44.0703 206.623 52.3897 204.377C50.3661 206.398 48.1176 209.318 46.5436 212.013ZM16.4139 199.661C21.1358 201.233 28.5558 202.131 36.8752 202.131C42.0467 202.131 47.443 201.682 51.7152 201.008C46.9933 199.436 41.1473 196.966 37.3249 194.495C32.603 194.495 26.0824 194.27 22.0352 192.923C15.9642 191.126 15.9642 186.859 16.1891 185.961C21.3606 187.982 30.3545 190.003 36.8752 190.452C39.3485 188.207 42.9461 185.287 46.9933 182.816C31.2539 183.041 11.4673 176.752 0.224852 170.913C-2.24848 191.8 11.917 198.089 16.4139 199.661ZM50.8158 156.315C48.3424 151.598 46.0939 145.534 45.6442 140.144C38.2242 134.305 29.9049 127.118 25.183 118.808C22.4849 114.092 23.3842 109.825 25.4079 108.252C26.9818 113.418 36.6503 128.241 45.6442 135.652C45.6442 130.936 46.5436 125.546 47.6679 121.503C37.3249 110.274 25.6327 91.6328 22.9345 84.2213C19.7867 86.9164 14.3903 93.4295 13.0412 102.638C11.6921 111.846 14.6152 121.503 22.0352 130.936C27.6564 138.348 40.023 149.352 50.8158 156.315ZM47.6679 180.121C33.9521 177.875 17.3133 172.485 9.21879 164.625C-5.84606 149.577 2.24849 131.161 4.27212 127.343C14.1655 139.695 33.0527 152.721 50.8158 159.684C44.9697 160.357 38.6739 161.705 34.4018 163.277C27.4315 160.357 17.5382 153.62 12.8164 148.903C12.1418 149.577 10.5679 153.62 15.7394 157.887C19.5618 161.031 27.2067 164.625 33.0527 166.87C35.7509 170.913 40.6976 175.405 47.6679 180.121ZM277.238 247.274C276.564 249.07 275.215 251.99 274.09 254.011C274.765 255.134 275.664 256.257 276.339 257.156C276.339 257.83 272.741 259.626 270.268 254.91C267.795 254.461 265.096 253.562 263.298 252.889C266.445 258.952 268.919 263.893 273.191 266.813C279.487 270.856 289.605 269.957 292.753 265.466C287.356 262.546 280.836 254.91 277.238 247.274ZM260.375 254.011C259.475 256.033 258.126 257.83 258.126 257.83C259.025 260.974 257.901 262.546 255.878 262.097C255.653 260.075 254.978 258.503 254.978 258.503C254.978 258.503 250.256 254.685 247.558 254.011C250.931 256.931 254.079 263.444 253.179 270.407C262.623 270.182 263.298 260.525 260.375 254.011ZM292.978 243.456C293.427 241.434 293.877 238.515 293.877 235.595C301.072 242.782 314.788 249.969 324.232 251.316C322.433 255.134 315.687 261.423 307.368 261.423C306.019 261.423 304.67 261.198 303.096 260.974C293.877 258.728 285.108 250.867 279.936 244.354C282.859 245.252 286.007 245.926 289.155 246.151C289.155 246.151 291.404 248.846 293.202 249.969C294.102 250.418 295.001 250.643 295.901 250.643C298.599 250.643 299.498 248.621 299.498 248.621C299.498 248.621 295.676 246.375 292.978 243.456ZM310.066 230.205C314.788 232.451 319.735 233.798 324.232 234.472C324.232 234.472 323.557 238.739 316.812 237.841C313.214 237.392 308.717 234.472 307.593 233.798C304.67 234.248 298.599 234.023 296.125 233.574C303.545 238.739 314.788 244.803 324.232 245.702C324.681 245.702 325.131 245.702 325.581 245.702C335.474 245.702 343.344 235.595 345.367 230.879C335.249 230.654 318.385 226.611 307.818 220.772C308.717 223.467 309.616 226.611 310.066 230.205ZM318.61 203.928C326.93 206.174 337.722 206.623 343.344 206.623C350.089 206.623 356.61 206.174 360.207 205.5C359.982 212.238 353.462 223.692 340.87 224.815C340.196 224.815 339.521 224.815 338.622 224.815C330.752 224.815 318.161 221.67 309.616 218.526C315.687 217.628 321.758 216.28 323.107 215.607C326.255 216.505 333.9 217.852 336.373 217.628C341.995 217.403 342.669 212.911 342.669 212.911C342.669 212.911 332.551 213.361 324.456 211.564C322.882 209.318 320.634 206.398 318.61 203.928ZM370.775 171.138C359.533 176.977 339.521 183.266 324.007 183.041C328.054 185.511 331.652 188.207 334.125 190.677C340.645 190.228 349.639 188.207 354.811 186.185C354.811 187.084 355.036 191.351 348.965 193.148C344.918 194.495 338.397 194.495 333.675 194.72C329.853 197.19 324.007 199.436 319.285 201.233C323.557 201.907 328.953 202.356 334.125 202.356C342.444 202.356 349.864 201.457 354.586 199.885C359.083 198.089 373.248 191.8 370.775 171.138ZM345.592 108.252C347.616 109.6 348.515 113.867 345.817 118.808C341.095 127.118 332.551 134.53 325.356 140.144C325.131 145.534 322.658 151.823 320.184 156.315C330.977 149.128 343.344 138.348 348.965 130.936C356.16 121.503 359.308 111.846 357.959 102.638C356.61 93.4295 351.213 86.9164 348.065 84.2213C345.367 91.6328 333.675 110.274 323.332 121.503C324.456 125.546 325.356 130.936 325.356 135.652C334.35 128.241 344.018 113.418 345.592 108.252ZM336.823 163.277C332.326 161.48 326.255 160.357 320.409 159.684C338.172 152.721 357.059 139.695 366.953 127.343C368.976 131.161 377.071 149.577 361.781 164.625C353.687 172.485 337.048 178.1 323.332 180.121C330.527 175.405 335.474 171.138 337.947 167.095C343.793 164.849 351.663 161.256 355.261 158.111C360.432 153.844 358.858 149.802 358.184 149.128C353.687 153.62 343.793 160.357 336.823 163.277ZM295.676 142.166C290.055 155.416 275.439 167.32 265.996 173.159C261.724 175.854 263.298 181.02 264.647 183.266C277.463 204.602 254.079 220.323 233.168 209.767C237.665 209.767 242.387 205.949 243.061 202.356C241.712 203.703 235.641 203.029 233.842 201.233C236.541 199.885 237.215 198.313 237.44 196.966C234.067 198.987 227.322 199.211 225.298 195.843C214.281 195.618 206.861 186.859 205.961 184.389C205.062 187.084 203.713 191.8 203.263 196.292C200.34 194.27 195.168 189.554 192.47 183.266C189.322 187.533 187.074 192.474 185.725 197.639C184.151 192.474 181.902 187.533 178.979 183.266C176.281 189.554 171.11 194.046 168.187 196.292C167.737 191.8 166.388 187.084 165.488 184.389C164.589 186.859 157.169 195.618 146.152 195.843C143.903 199.885 137.158 199.436 133.785 197.415C134.01 198.762 134.459 200.11 137.382 201.682C135.584 203.254 129.738 203.928 128.164 202.805C128.838 206.174 133.335 210.216 138.057 210.216C116.921 220.772 93.7618 204.826 106.578 183.715C107.927 181.469 109.501 176.303 105.229 173.608C95.7855 167.769 81.3952 155.866 75.5491 142.615C74.8745 148.005 75.3242 161.48 81.1703 169.79C76.8982 171.362 71.5018 174.057 67.6794 176.528C69.9279 179.223 75.3242 183.715 78.9218 186.185C75.9988 188.88 71.277 193.821 69.0285 197.19C72.1764 198.987 78.2473 201.233 82.9691 202.805C80.7206 206.398 77.3479 212.911 76.6733 216.73C81.8448 217.403 87.2412 217.403 92.1879 217.179C91.5133 221.67 91.963 227.285 92.4127 231.328C97.3594 230.654 102.756 228.633 106.353 226.836C107.028 229.98 108.827 235.595 110.625 238.739C115.347 234.248 121.418 232.226 127.039 233.574C138.732 236.044 142.104 247.723 142.104 247.723V212.013V207.97C142.104 205.725 143.228 204.602 145.477 204.602H225.973C228.221 204.602 229.345 205.725 229.345 207.97V212.013V247.723C229.345 247.723 232.718 236.044 244.41 233.574C250.032 232.451 256.102 234.472 260.824 238.739C262.398 235.595 264.422 229.98 265.096 226.836C268.694 228.633 274.09 230.654 279.037 231.328C279.487 227.285 279.936 221.67 279.262 217.179C283.984 217.628 289.38 217.628 294.776 216.73C293.877 212.911 290.504 206.398 288.481 202.805C293.427 201.457 299.273 199.211 302.421 197.19C299.948 193.821 295.451 188.88 292.528 186.185C296.125 183.715 301.522 179.223 303.77 176.528C300.173 174.057 294.552 171.362 290.279 169.79C295.676 161.031 296.35 147.556 295.676 142.166ZM149.299 100.392L148.85 101.739C163.015 101.739 176.506 97.023 180.104 80.1787H169.311C167.287 92.082 160.092 100.392 149.299 100.392ZM88.3655 73.2164C88.3655 73.2164 96.0103 75.0131 99.1582 85.7934C102.081 96.5738 109.726 101.739 117.596 101.739L116.921 100.392C112.424 99.718 106.128 93.4295 104.779 81.5262C103.655 69.6229 100.732 68.0508 100.732 68.0508C97.5842 65.8049 89.9394 71.1951 88.3655 73.2164ZM65.8806 77.9328C59.36 78.1574 58.6855 80.8525 58.6855 80.8525H58.4606C58.9103 76.3607 66.5552 77.4836 73.9752 72.5426C79.3715 68.9492 82.5194 64.2328 84.7679 62.2115C87.0164 60.4148 93.9867 61.7623 98.7085 64.9066C98.7085 64.9066 94.2115 63.3344 84.7679 72.0934C76.6733 79.7295 72.1764 77.7082 65.8806 77.9328ZM71.7267 106.68C75.5491 110.498 75.9988 118.359 75.9988 118.359C75.9988 118.359 80.7206 110.049 76.8982 101.066C73.0758 92.082 65.2061 85.3443 72.8509 80.1787C68.1291 80.1787 62.9576 79.0557 60.7091 82.4246C60.0345 83.323 59.36 85.7934 61.6085 89.3869C64.5315 93.8787 71.9515 104.21 65.8806 111.172C70.6024 110.274 71.7267 106.68 71.7267 106.68ZM120.069 101.739H146.601C146.601 101.739 147.276 100.167 148.175 97.9213H118.495C119.395 100.167 120.069 101.739 120.069 101.739ZM135.808 64.2328C135.808 62.8852 134.684 61.5377 133.335 61.5377C131.986 61.5377 130.862 62.6607 130.862 64.2328C130.862 65.5803 131.986 66.9279 133.335 66.9279C134.684 66.9279 135.808 65.5803 135.808 64.2328ZM149.075 94.777H117.371C116.247 91.1836 114.898 85.7934 114.898 83.3229C114.898 78.6066 117.596 73.2164 126.815 71.6443C126.815 77.4836 129.513 91.4082 132.885 91.4082H133.335C136.708 91.4082 139.406 77.259 139.406 71.6443C148.625 73.2164 151.098 78.6066 151.098 83.3229C151.323 86.018 150.199 91.4082 149.075 94.777ZM133.335 87.5902C135.134 87.5902 136.483 78.382 136.483 73.8902C136.483 71.4197 135.134 69.8475 133.335 69.8475C131.536 69.8475 130.187 71.4197 130.187 73.8902C129.962 78.382 131.536 87.5902 133.335 87.5902ZM131.536 58.1689H134.909L134.459 53.9016L138.732 54.3508V50.7574L134.459 51.2066L134.909 46.9393H131.536L131.986 51.2066L127.714 50.7574V54.3508L131.986 53.9016L131.536 58.1689ZM201.914 80.1787H191.121C194.719 97.023 208.21 101.739 222.375 101.739L221.925 100.392C210.908 100.392 203.713 92.082 201.914 80.1787ZM253.629 101.739C261.499 101.739 268.919 96.5738 272.067 85.7934C274.99 75.0131 282.859 73.2164 282.859 73.2164C281.285 71.4197 273.641 65.8049 270.493 67.8262C270.493 67.8262 267.57 69.3984 266.445 81.3016C265.321 93.2049 258.801 99.718 254.304 100.167L253.629 101.739ZM286.232 72.5426C276.789 63.7836 272.292 65.3557 272.292 65.3557C277.238 62.2115 283.984 60.8639 286.232 62.6607C288.481 64.4574 291.629 69.3984 297.025 72.9918C304.445 77.9328 312.09 76.5852 312.539 81.3016H312.315C312.315 81.3016 311.64 78.6066 305.119 78.382C298.824 77.7082 294.327 79.7295 286.232 72.5426ZM310.291 82.4246C308.042 79.2803 302.871 80.4033 298.149 80.1787C305.794 85.3443 297.924 92.3066 294.102 101.066C290.279 110.049 295.001 118.359 295.001 118.359C295.001 118.359 295.451 110.498 299.273 106.68C299.273 106.68 300.398 110.274 304.895 110.948C298.824 103.985 306.244 93.6541 309.167 89.1623C311.64 85.7934 310.965 83.5475 310.291 82.4246ZM250.931 101.739C250.931 101.739 251.605 100.167 252.505 97.9213H223.05C223.949 100.167 224.624 101.739 224.624 101.739H250.931ZM240.363 64.2328C240.363 62.8852 239.239 61.5377 237.89 61.5377C236.541 61.5377 235.416 62.6607 235.416 64.2328C235.416 65.5803 236.541 66.9279 237.89 66.9279C239.239 66.9279 240.363 65.5803 240.363 64.2328ZM253.629 94.777H221.925C220.801 91.1836 219.452 85.7934 219.452 83.3229C219.452 78.6066 221.925 73.2164 231.144 71.6443C231.144 77.4836 233.842 91.4082 237.215 91.4082H237.665C241.038 91.4082 243.736 77.4836 243.736 71.6443C252.955 73.2164 255.653 78.6066 255.653 83.3229C256.102 86.018 254.753 91.4082 253.629 94.777ZM237.665 87.5902C239.464 87.5902 240.813 78.382 240.813 73.8902C240.813 71.4197 239.464 69.8475 237.665 69.8475C235.866 69.8475 234.517 71.4197 234.517 73.8902C234.517 78.382 236.091 87.5902 237.665 87.5902ZM236.091 58.1689H239.464L239.014 53.9016L243.286 54.3508V50.7574L239.014 51.2066L239.464 46.9393H236.091L236.541 51.2066L232.269 50.7574V54.3508L236.541 53.9016L236.091 58.1689ZM62.9576 162.828C48.7921 153.17 48.3424 132.059 52.3897 120.605C55.0879 127.567 64.3067 139.021 70.1527 145.085C69.703 150.925 71.5018 161.256 74.8745 167.769C70.1527 169.566 64.7564 172.261 60.7091 175.18C63.4073 178.549 68.8036 183.49 72.4012 186.185C69.4782 189.33 64.5315 194.944 62.283 198.313C65.6558 200.784 72.6261 203.703 76.4485 204.826C74.6497 208.42 71.9515 215.382 71.277 219.874C75.5491 220.548 81.1703 220.997 87.2412 220.997C87.0164 225.489 87.4661 232.451 88.3655 236.493C93.9867 236.044 100.507 233.798 103.43 232.226C105.004 238.29 108.827 244.354 109.052 244.579C126.59 225.489 141.879 243.456 141.879 260.3V283.208C141.879 293.989 145.252 298.93 155.145 298.93H167.737C175.607 298.93 182.127 302.298 185.5 308.587C188.873 302.074 195.393 298.93 203.263 298.93H215.855C225.748 298.93 229.121 293.989 229.121 283.208V260.525C229.121 243.905 244.635 225.938 261.948 244.803C262.173 244.579 265.996 238.515 267.57 232.451C270.493 234.023 277.013 236.269 282.635 236.718C283.309 232.675 283.984 225.713 283.759 221.221C289.83 221.221 295.451 220.772 299.723 220.098C299.049 215.382 296.35 208.644 294.552 205.051C298.149 203.703 305.344 201.008 308.717 198.538C306.469 195.169 301.522 189.554 298.599 186.41C302.196 183.715 307.593 178.549 310.291 175.405C306.468 172.485 300.847 169.79 296.125 167.993C299.273 161.705 301.297 151.374 300.847 145.31C306.693 139.246 315.912 127.792 318.61 120.83C322.658 132.284 322.208 153.395 308.042 163.052C315.013 163.277 326.93 164.625 333.225 166.646C328.953 171.587 318.161 178.774 311.64 181.918C316.812 183.939 325.805 188.656 329.628 192.249C324.681 195.393 313.888 198.762 308.942 199.885C311.865 202.356 317.936 209.318 320.184 212.911C315.912 214.259 307.368 215.382 301.747 215.607C303.545 219.2 305.569 225.713 306.019 229.98C303.321 230.205 294.102 229.756 289.605 228.857C290.055 232.451 289.83 239.189 289.155 242.108C284.658 241.434 278.362 239.638 275.439 238.515C274.54 241.884 271.617 248.846 270.493 250.643C266.895 249.969 262.623 248.397 259.475 246.825C258.576 249.52 256.327 253.338 255.653 254.461C245.31 243.905 230.47 252.439 230.47 263.669C231.594 271.08 241.937 270.631 247.333 274.225C254.528 278.716 253.404 289.272 260.824 291.069C253.854 295.561 251.83 287.251 244.41 287.026C245.31 291.518 245.31 299.603 244.635 302.748C241.712 300.502 237.44 298.705 234.742 298.48C235.416 301.175 235.866 307.239 234.967 311.057C232.943 309.485 225.748 303.197 208.659 307.239C206.636 307.689 220.352 307.239 218.553 311.507C217.204 315.1 216.754 317.346 218.328 322.287C217.653 322.511 216.754 322.736 215.855 322.736C212.032 322.736 207.085 320.49 205.062 316.897C203.488 318.02 203.488 326.105 208.659 328.126C203.263 328.575 198.991 324.084 198.316 321.389C198.316 321.389 195.618 327.677 192.47 329.923C190.447 329.249 186.849 325.88 185.5 322.511C184.151 325.88 180.553 329.249 178.53 329.923C175.382 327.902 172.684 321.389 172.684 321.389C171.784 324.084 167.737 328.575 162.341 328.126C167.512 326.105 167.512 318.02 165.938 316.897C163.915 320.49 158.968 322.736 155.145 322.736C154.246 322.736 153.347 322.511 152.672 322.287C154.246 317.346 153.796 314.875 152.447 311.507C150.649 307.015 164.364 307.689 162.341 307.239C145.252 303.197 138.057 309.485 136.033 311.057C135.134 307.239 135.584 301.175 136.258 298.48C133.56 298.705 129.288 300.502 126.365 302.748C125.69 299.379 125.465 291.518 126.59 287.026C119.395 287.251 117.371 295.561 110.176 291.069C117.596 289.497 116.247 278.941 123.667 274.225C129.063 270.856 139.631 271.08 140.53 263.669C140.53 252.439 125.69 243.905 115.347 254.461C114.673 253.562 112.424 249.52 111.525 246.825C108.377 248.397 104.105 249.969 100.507 250.643C99.383 249.07 96.46 241.884 95.5606 238.515C92.6376 239.638 86.3418 241.434 81.8449 242.108C81.1703 239.189 81.1703 232.451 81.3952 228.857C76.8982 229.98 67.6794 230.43 64.9812 229.98C65.4309 225.713 67.4545 219.2 69.2533 215.607C63.857 215.382 55.0879 214.034 50.8158 212.911C53.0642 209.093 59.1352 202.131 62.0582 199.885C56.8867 198.762 46.3188 195.393 41.3721 192.249C45.1945 188.656 54.1885 183.715 59.36 181.918C52.8394 178.774 41.8218 171.587 37.7745 166.646C44.0703 164.4 56.2121 163.052 62.9576 162.828ZM22.4849 273.102C22.4849 273.102 25.183 276.47 27.2067 275.348C28.3309 273.102 24.9582 270.407 24.9582 270.407L23.6091 271.754L22.4849 273.102Z" fill="white" fill-opacity="0.2"/>
</g>
<defs>
<clipPath id="clip0_319_102">
<rect width="371" height="411" fill="white"/>
</clipPath>
</defs>
</svg>
