<svg width="74" height="82" viewBox="0 0 74 82" fill="none" xmlns="http://www.w3.org/2000/svg">
<g clip-path="url(#clip0_926_172)">
<path fill-rule="evenodd" clip-rule="evenodd" d="M59.5587 68.9158C59.4242 68.9158 59.1551 69.9016 59.4242 70.5738C59.5587 70.9322 59.9624 71.1115 60.2315 70.977C60.5454 70.8874 60.6351 70.5738 60.6351 70.3497C60.7248 69.588 60.0521 68.9158 59.5587 68.9158ZM57.3612 57.9377L57.4509 59.0131L56.5539 58.9235V60.1333L57.4509 60.0437L57.3612 61.1639H58.6169L58.5272 60.0437L59.4242 60.1333V58.9235L58.5272 59.0131L58.6169 57.9377H57.3612ZM57.989 62.1049C57.72 62.1049 57.5406 62.329 57.5406 62.553C57.5406 62.8219 57.72 63.0011 57.989 63.0011C58.2581 63.0011 58.4375 62.7771 58.4375 62.553C58.4375 62.329 58.2581 62.1049 57.989 62.1049ZM57.989 63.9869C57.72 63.9869 57.5406 64.2109 57.5406 64.435C57.5406 64.7038 57.72 64.8831 57.989 64.8831C58.2581 64.8831 58.4375 64.659 58.4375 64.435C58.4375 64.1661 58.2581 63.9869 57.989 63.9869ZM57.989 65.8689C57.72 65.8689 57.5406 66.0929 57.5406 66.3169C57.5406 66.5858 57.72 66.765 57.989 66.765C58.2581 66.765 58.4375 66.541 58.4375 66.3169C58.4375 66.0481 58.2581 65.8689 57.989 65.8689ZM59.469 66.3169C59.469 66.5858 59.6484 66.765 59.9175 66.765C60.1866 66.765 60.366 66.541 60.366 66.3169C60.366 66.0481 60.1866 65.8689 59.9175 65.8689C59.6484 65.8689 59.469 66.0481 59.469 66.3169ZM61.3527 66.3169C61.3527 66.5858 61.5321 66.765 61.8012 66.765C62.0703 66.765 62.2496 66.541 62.2496 66.3169C62.2496 66.0481 62.0703 65.8689 61.8012 65.8689C61.5321 65.8689 61.3527 66.0481 61.3527 66.3169ZM57.989 68.3781C58.3927 68.3781 59.3345 70.3497 58.6169 71.3355C58.4824 71.5148 58.2581 71.6492 57.989 71.6492C57.72 71.6492 57.4957 71.5596 57.3612 71.3355C56.6884 70.3497 57.6303 68.3781 57.989 68.3781ZM56.4193 68.9158C55.926 68.9158 55.2981 69.6328 55.2981 70.3945C55.2981 70.6186 55.3878 70.8874 55.7018 71.0219C56.0157 71.1115 56.3745 70.9771 56.509 70.6186C56.8678 69.8568 56.5539 68.9158 56.4193 68.9158ZM55.7018 66.3169C55.7018 66.5858 55.8812 66.765 56.1502 66.765C56.4193 66.765 56.5987 66.541 56.5987 66.3169C56.5987 66.0481 56.4193 65.8689 56.1502 65.8689C55.926 65.8689 55.7018 66.0481 55.7018 66.3169ZM53.863 66.3169C53.863 66.5858 54.0424 66.765 54.3115 66.765C54.5806 66.765 54.7599 66.541 54.7599 66.3169C54.7599 66.0481 54.5806 65.8689 54.3115 65.8689C54.0872 65.8689 53.863 66.0481 53.863 66.3169ZM53.4145 66.3169C53.4145 66.7202 53.5042 67.1235 53.5042 67.1235H62.5636C62.429 68.0197 61.3975 69.4087 61.1284 69.6776C60.8593 68.7814 60.0969 68.2437 59.469 68.2437C59.2896 68.2437 59.1102 68.6022 59.0654 68.9607C58.9309 68.4229 58.4824 67.7956 58.0339 67.7956C57.5406 67.7956 57.0921 68.5574 57.0472 68.8262C57.0024 68.5126 56.823 68.2437 56.6436 68.2437C56.0606 68.1989 55.1187 69.0503 54.8945 69.812C54.4012 69.4536 53.9975 68.7814 53.863 68.3333C53.6836 68.0197 53.2799 67.7956 52.7866 67.5716C51.3066 66.9443 47.8533 66.8098 46.8218 66.8546C46.1939 66.8995 45.9248 66.4962 46.0145 66.1825C46.2387 65.1071 46.2836 63.3596 45.4315 62.1497C46.3284 62.4634 47.2254 63.2699 47.2254 63.2699C47.5393 62.6426 47.6739 61.2087 47.5842 60.5366C48.4363 60.8503 49.1539 61.612 49.1539 61.612C49.4678 60.7607 49.6024 59.1027 49.4678 58.1618C51.5309 58.8787 49.6024 62.5082 52.1587 62.4186C51.4412 63.4492 50.589 63.0459 49.8266 63.0459C49.2884 63.0459 48.7054 63.3596 48.7054 64.2109C48.7054 64.7934 51.486 65.2863 52.8763 65.4656C53.1006 65.5104 53.4593 65.4208 53.549 65.2863C53.9975 63.494 55.4327 62.1049 57.2266 61.7913V62.553V65.2863V65.6H53.5042C53.5042 65.5552 53.4145 65.9137 53.4145 66.3169ZM58.7963 61.7464V65.5552H62.5187C62.2048 63.6284 60.68 62.0601 58.7963 61.7464ZM14.7103 64.8831C14.7999 64.9279 14.8896 64.8831 14.9345 64.8382C14.6654 65.1967 14.7103 65.4208 14.7999 65.5104C14.9793 65.6896 15.1139 65.376 15.5175 64.9279C15.966 64.4798 16.2351 64.3454 16.0557 64.1661C15.966 64.0765 15.7418 64.0765 15.383 64.3454C15.4278 64.2557 15.4278 64.1661 15.4278 64.1213C15.2933 63.718 14.6206 63.1803 14.2618 63.1355C14.2169 63.1355 14.1721 63.1355 14.1272 63.1803C14.3066 62.9115 14.2618 62.7322 14.1272 62.5978C13.9927 62.4634 13.9478 62.553 13.8133 62.7322C13.8133 62.5978 13.8133 62.4634 13.6787 62.2842C13.1406 61.4328 10.2254 58.6995 9.55268 58.4306C9.14904 58.2514 9.01449 58.4754 9.01449 58.4754C9.01449 58.4754 8.79025 58.6098 8.96965 59.0131C9.23874 59.6852 12.0642 62.553 12.8715 63.0907C13.0509 63.1803 13.1854 63.2251 13.2751 63.2251C13.0957 63.3596 13.0509 63.4492 13.1406 63.5388C13.2303 63.6284 13.4545 63.6732 13.6787 63.494C13.6787 63.5388 13.6339 63.5836 13.6339 63.6732C13.7684 64.0765 14.3066 64.7486 14.7103 64.8831ZM7.71389 56.8175C7.62419 56.8175 7.48965 56.8175 7.39995 56.9519C7.31025 57.0415 7.2654 57.176 7.31025 57.3552C7.3551 57.5344 7.4448 57.7137 7.62419 57.8929C7.80358 58.0721 8.07268 58.2066 8.25207 58.2066C8.34177 58.2066 8.47631 58.2066 8.56601 58.0721C8.7454 57.8481 8.65571 57.4448 8.34177 57.1311C8.16237 56.9071 7.93813 56.8175 7.71389 56.8175ZM16.7733 66.9443C16.7733 66.6754 16.2351 66.1825 15.5624 66.1825C14.6206 66.1825 14.1721 66.8098 14.1721 67.1235C14.1721 67.706 14.7551 67.7956 14.8896 67.7956C15.6072 67.8404 16.6836 67.1235 16.7733 66.9443ZM15.9212 68.423C16.3696 67.8852 17.1769 67.482 17.4909 67.482C17.6254 67.6164 17.5806 68.9158 17.2218 69.4984C17.0424 69.7672 16.7284 69.9464 16.4145 69.9464C16.1006 69.9464 15.7418 69.7672 15.6521 69.4087C15.5624 69.0951 15.6521 68.7366 15.9212 68.423ZM7.48965 55.0251C7.93813 55.4732 7.13086 56.0557 7.13086 56.5934C6.59268 56.6383 6.05449 57.4896 5.60601 57.0415C5.33692 56.7727 5.69571 56.1902 5.51631 55.8317C4.70904 56.0109 5.56116 56.5934 5.02298 57.176C4.79874 57.4 4.43995 57.3104 4.3054 57.176C4.52965 56.9071 4.43995 56.5486 4.3054 56.5038C2.87025 57.2208 1.16601 55.9661 1.3454 54.7115C1.65934 54.9355 2.73571 54.9803 3.0048 54.8459C3.31874 55.294 4.08116 54.9355 3.85692 54.4426C3.72237 54.0842 2.87025 53.5016 2.28722 54.2186C2.06298 54.2186 2.01813 53.8153 2.51146 53.3672C1.61449 53.6809 1.83874 51.8437 2.01813 51.4404C2.37692 51.2164 4.17086 50.9027 3.90177 51.8885C4.3054 51.3508 4.66419 51.4404 4.70904 51.6197C4.03631 52.2022 4.61934 53.0536 4.97813 53.188C5.47146 53.412 5.83025 52.6503 5.33692 52.2918C5.42661 51.9781 5.38177 50.9027 5.11268 50.5891C6.32358 50.365 7.57934 52.0678 6.90661 53.5913C6.95146 53.7257 7.31025 53.8153 7.53449 53.5464C7.66904 53.6809 7.80358 54.0393 7.57934 54.2634C6.99631 54.8459 6.41328 53.9945 6.27874 54.8011C6.63752 55.1596 7.22055 54.7563 7.48965 55.0251ZM2.95995 53.0984C2.95995 53.0984 3.67752 53.412 3.99146 53.5016C3.90177 53.188 3.58783 52.471 3.58783 52.471C3.58783 52.471 3.36358 52.2022 3.04965 52.5607C2.69086 52.9191 2.95995 53.0984 2.95995 53.0984ZM5.74055 55.2492C5.74055 55.0699 6.09934 54.6219 5.8751 54.4426L4.93328 53.5016L4.43995 53.9945L4.03631 54.4874L4.97813 55.4284C5.15752 55.6525 5.60601 55.294 5.74055 55.2492ZM21.4824 69.7672C21.5272 69.6328 21.4824 69.4984 21.4375 69.4536C21.3927 69.4087 21.3927 69.4087 21.3927 69.4087C21.3478 69.4087 21.2133 69.5432 21.1236 69.6776C21.0339 69.812 20.8993 69.9464 20.7648 70.1257C20.6303 70.3049 20.4957 70.3945 20.3612 70.529C20.2266 70.6634 20.0921 70.753 20.0921 70.8426C20.0921 70.8426 20.0921 70.8874 20.1369 70.8874C20.1818 70.9322 20.2715 70.977 20.3163 70.977C20.4509 70.977 20.7199 70.9322 21.0787 70.4842C21.3478 70.1257 21.4824 69.9016 21.4824 69.7672ZM21.4824 70.8874C21.7066 70.6634 21.8412 70.4393 21.9309 70.3049C22.0654 70.4393 22.3345 70.9322 22.0654 71.4251C21.9309 71.5147 21.7515 71.5596 21.6169 71.5596C21.303 71.5596 21.0787 71.4251 20.989 71.3355C21.0787 71.2459 21.303 71.1115 21.4824 70.8874ZM18.2981 68.1989C18.1636 68.3333 17.8048 69.3191 17.9393 69.9016C17.9842 70.1705 18.1636 70.2601 18.3878 70.2601C18.6569 70.2601 18.7915 70.1257 18.7915 69.8568C18.926 69.2743 18.4775 68.2885 18.2981 68.1989ZM18.1187 65.4656C18.1187 65.4656 19.9127 67.0339 20.4957 67.6164C20.6303 67.7508 20.8096 67.7956 21.0339 67.6612C21.1684 67.6164 21.303 67.5268 21.4375 67.482C23.2315 66.8546 26.1466 66.765 27.223 66.8098C27.8509 66.8546 28.0751 66.4514 28.0303 66.1377C27.806 65.1071 27.7612 63.3148 28.6133 62.1049C27.7163 62.4186 26.8193 63.2251 26.8193 63.2251C26.5054 62.5978 26.3709 61.1639 26.4606 60.4918C25.6084 60.8055 24.8909 61.5672 24.8909 61.5672C24.5769 60.7158 24.4424 59.0579 24.5769 58.1169C22.5139 58.8339 24.4424 62.4634 21.886 62.3738C22.6036 63.4044 23.4557 63.0011 24.2181 63.0011C24.7563 63.0011 25.429 63.3596 25.3393 64.1661C25.2496 64.7486 21.8412 65.5104 20.4957 65.5104C19.5539 65.5104 18.8812 65.1967 18.4327 64.5694C18.2084 64.2557 17.9842 64.1213 17.7151 64.1661C17.4012 64.2109 16.9975 64.5694 16.9975 65.3311C16.9975 65.8689 17.2218 67.0787 17.8945 67.0787C18.2533 67.0339 18.2981 66.0929 18.1187 65.4656ZM20.3163 69.6776C20.1369 69.8568 19.823 70.1705 19.5987 70.0361C19.5539 70.0361 19.509 69.9913 19.4642 69.9464C19.6884 69.1847 19.4193 68.3333 18.8363 67.482C18.8812 67.3475 18.926 67.1235 18.9709 66.9443C19.9127 67.8404 20.5854 68.6022 20.7199 68.871C20.7199 69.0951 20.6303 69.3639 20.3163 69.6776ZM15.7866 65.1967C15.8315 65.1071 16.0557 64.9727 16.1903 64.9279C16.1903 65.1519 16.1903 65.376 16.1903 65.5552C15.966 65.5104 15.7418 65.4656 15.5624 65.4656C15.6969 65.3311 15.7866 65.1967 15.7866 65.1967ZM46.8666 70.8874C47.4496 70.6186 47.8533 69.9016 47.9878 69.1847C47.629 69.3639 47.1806 69.4536 46.7321 69.4536C45.3866 69.4536 43.7272 68.7366 42.2472 68.0645C42.2472 68.0645 41.9333 68.3333 41.3951 68.3781C42.9199 68.8262 45.9248 70.529 46.149 71.5596C46.2836 72.2765 45.8351 72.5453 45.8351 72.5453C45.1624 71.4699 43.4581 69.7672 41.1709 68.9158C41.1709 69.3191 41.0812 69.588 41.0812 69.588C41.0812 69.588 40.6327 69.7224 39.646 69.5432C40.4981 70.2601 42.7854 72.8142 43.0096 74.741C43.189 76.0404 42.2921 76.0852 42.2921 76.0852C42.1575 74.1585 41.126 72.1421 39.2872 70.1257C39.2872 70.1257 38.9733 70.6186 38.5696 70.8426C38.5696 70.8426 37.8969 70.7082 37.3139 70.3497C37.5381 72.9038 37.6727 76.2197 37.5381 77.2503C37.4484 77.9672 37.0448 78.2361 37.0448 78.2361C37.0448 78.2361 36.6412 77.9224 36.5515 77.2503C36.4169 76.2645 36.5515 72.9038 36.7757 70.3497C36.1927 70.7082 35.5199 70.8426 35.5199 70.8426C35.1163 70.6186 34.8024 70.1257 34.8024 70.1257C32.9636 72.1421 31.9321 74.1585 31.7975 76.0852C31.7975 76.0852 30.9006 76.0404 31.08 74.741C31.3042 72.8142 33.5915 70.2601 34.4436 69.5432C33.4569 69.7224 33.0084 69.588 33.0084 69.588C33.0084 69.588 32.9187 69.3191 32.9187 68.9158C30.6315 69.7672 28.9272 71.4251 28.2545 72.5453C28.2545 72.5453 27.806 72.2765 27.9406 71.5596C28.1648 70.4842 31.1696 68.8262 32.6945 68.3781C32.1563 68.3333 31.8424 68.0645 31.8424 68.0645C30.3175 68.7366 28.6581 69.4536 27.3575 69.4536C26.8642 69.4536 26.4606 69.3639 26.1018 69.1847C26.1915 69.9016 26.6399 70.6186 27.223 70.8874C25.1599 72.3213 26.4606 75.7268 23.6799 75.0546C25.2048 77.8776 28.2993 78.1913 28.2993 78.1913C27.6266 76.6678 28.4787 72.0973 32.6048 69.9913C30.0933 72.5005 28.9272 75.5923 29.5999 77.7432C30.2278 79.7148 32.2012 80.5213 33.726 80.5661C32.6496 77.2951 33.3224 73.5312 35.5199 71.1563C34.5781 73.7552 33.2327 80.6557 37.0896 82C40.9466 80.6557 39.6012 73.7552 38.6593 71.1563C40.8569 73.5312 41.5296 77.2503 40.4533 80.5661C41.9781 80.5213 43.9515 79.7148 44.5793 77.7432C45.2521 75.5923 44.086 72.5453 41.5745 69.9913C45.7006 72.0973 46.5527 76.6678 45.88 78.1913C45.88 78.1913 48.9745 77.9224 50.4993 75.0546C47.6739 75.682 48.9296 72.3213 46.8666 70.8874ZM37.3139 13.8907C37.3139 13.6667 37.1345 13.5322 36.9551 13.5322C36.7757 13.5322 36.5963 13.7115 36.5963 13.8907C36.5963 14.1148 36.7757 14.2492 36.9551 14.2492C37.1793 14.2492 37.3139 14.1148 37.3139 13.8907ZM39.1078 13.8907C39.1078 13.6667 38.9284 13.5322 38.749 13.5322C38.5696 13.5322 38.3903 13.7115 38.3903 13.8907C38.3903 14.1148 38.5696 14.2492 38.749 14.2492C38.9733 14.2492 39.1078 14.1148 39.1078 13.8907ZM36.3272 4.34645C36.3272 4.70492 36.6412 5.01858 37 5.01858C37.3587 5.01858 37.6727 4.70492 37.6727 4.34645C37.6727 3.98798 37.3587 3.67432 37 3.67432C36.6412 3.62951 36.3272 3.94317 36.3272 4.34645ZM36.5515 2.86776H37.4484L37.3587 1.74754L38.3454 1.83716V0.985792L37.3587 1.07541L37.4484 0H36.5515L36.6412 1.12022L35.6545 1.0306V1.88197L36.6412 1.79235L36.5515 2.86776ZM35.5199 13.8907C35.5199 13.6667 35.3406 13.5322 35.1612 13.5322C34.9818 13.5322 34.8024 13.7115 34.8024 13.8907C34.8024 14.1148 34.9818 14.2492 35.1612 14.2492C35.3854 14.2492 35.5199 14.1148 35.5199 13.8907ZM33.3672 15.235C33.4569 15.2798 33.5915 15.2798 33.726 15.2798H40.2739C40.4084 15.2798 40.4981 15.2798 40.6327 15.235C40.8569 15.1454 40.9915 15.0109 41.0363 14.7421H33.0084C33.0533 15.0109 33.1878 15.1902 33.3672 15.235ZM33.726 13.8907C33.726 13.6667 33.5466 13.5322 33.3672 13.5322C33.1878 13.5322 33.0084 13.7115 33.0084 13.8907C33.0084 14.1148 33.1878 14.2492 33.3672 14.2492C33.5915 14.2492 33.726 14.1148 33.726 13.8907ZM40.9018 13.8907C40.9018 13.6667 40.7224 13.5322 40.543 13.5322C40.3636 13.5322 40.1842 13.7115 40.1842 13.8907C40.1842 14.1148 40.3636 14.2492 40.543 14.2492C40.7672 14.2492 40.9018 14.1148 40.9018 13.8907ZM41.3503 12.9945C41.5296 12.7705 42.4715 10.9781 42.4715 9.18579C42.4715 7.57268 40.4533 6.6765 39.2424 6.63169C39.1078 8.96175 38.2109 12.5464 37.0448 12.5464C35.9236 12.5464 34.9818 8.96175 34.8472 6.63169C33.6363 6.6765 31.6181 7.57268 31.6181 9.18579C31.6181 10.9781 32.5151 12.7705 32.7393 12.9945H41.3503ZM37 11.471C36.4618 11.471 35.6993 9.00656 35.5648 6.99016C35.5648 6.54208 36.103 5.86995 37 5.86995C37.8969 5.86995 38.4351 6.54208 38.4351 6.99016C38.2557 9.14098 37.5381 11.471 37 11.471ZM19.4642 23.2109C18.3878 24.6896 19.8678 26.3027 19.9575 26.3923C20.0024 26.482 20.0921 26.4372 20.0472 26.3475C20.0472 26.2579 20.8096 24.0175 25.2945 25.1825C25.3842 25.2273 25.429 25.2273 25.3393 25.1377C24.5321 24.4656 23.5454 23.0317 23.2315 21.8219C23.2763 21.8219 20.5406 21.7322 19.4642 23.2109ZM21.886 22.8973C21.886 22.494 22.469 22.3596 22.8278 22.3596C22.8278 22.3596 22.9624 22.7628 23.1418 22.9869C22.783 22.8076 22.2896 22.8076 21.886 22.8973ZM24.263 20.9705C24.4424 20.9705 29.4206 20.9705 29.4206 20.9705C32.246 20.9705 34.1296 20.388 35.3406 19.8055C35.1163 20.612 34.309 21.5082 33.9503 21.6874C34.3987 21.9115 35.0715 22.0907 35.5648 22.0011C35.2509 22.6284 34.0848 23.0317 33.5466 23.0765C33.9054 23.4798 34.4884 23.8831 34.9369 24.0175C34.7127 24.2415 33.6812 24.4208 32.9636 24.2415C33.5018 25.0481 34.5781 25.9443 35.3854 25.9443C34.4436 26.6612 32.6496 26.4372 31.1696 25.1377C31.0351 25.9443 31.2145 27.1989 31.349 27.5126C30.7212 27.3781 29.7793 26.3027 29.4206 25.7202C28.9272 26.8404 28.9272 27.2885 28.9272 27.2885C27.806 25.765 25.0254 24.9585 23.9939 21.5082C23.8593 21.1497 23.949 20.9705 24.263 20.9705ZM27.3575 22.5388C28.1648 22.2251 28.389 22.1803 28.389 22.0011H25.9224C25.5187 22.0011 25.5636 22.2699 25.6533 22.4492C25.7878 22.6732 26.1466 23.3005 26.1466 23.3005C26.1466 23.3005 26.5503 22.8525 27.3575 22.5388ZM18.926 28.1847C18.8812 28.1399 18.926 28.1399 18.926 28.1847C19.0157 28.1847 19.8678 28.6776 21.7963 27.423C23.6799 26.1683 25.1599 25.6754 25.9224 25.541C25.9224 25.541 26.6399 26.0339 27.2678 26.6164C25.4739 26.7508 24.1284 27.871 23.949 28.2295C23.949 28.2743 23.9042 28.2743 23.9042 28.2295C23.7248 27.647 23.949 27.1541 23.949 27.1541C23.949 27.1541 23.1418 27.647 21.5272 28.588C19.9127 29.5738 19.1951 28.5432 18.926 28.1847ZM41.5745 67.5716C41.3951 67.6164 41.1709 67.6612 40.9915 67.6612C40.7672 67.6612 40.543 67.6164 40.3636 67.5268C40.4981 67.9749 40.543 68.5126 40.4533 68.9158C40.3636 68.9158 40.2739 68.9158 40.1842 68.9158C39.7806 68.9158 39.4218 68.871 39.1527 68.6918C39.1078 69.0951 38.9284 69.588 38.6145 69.9464C38.5696 69.9913 38.4799 70.0809 38.4351 70.1257C38.0763 70.1257 37.1793 69.7224 37.0448 69.4536C36.8654 69.7224 36.0133 70.1257 35.6545 70.1257C35.5648 70.0809 35.5199 69.9913 35.4751 69.9464C35.1612 69.6328 34.9818 69.1399 34.9369 68.6918C34.2642 68.9607 33.5915 68.9158 33.5915 68.9158C33.5018 68.5574 33.5466 67.9749 33.6812 67.5268C33.5018 67.6164 33.2775 67.6612 33.0533 67.6612C32.829 67.6612 32.6496 67.6164 32.4703 67.5716C32.2012 67.482 31.9769 67.3475 31.8424 67.1683C33.0533 67.1235 34.0848 66.0481 34.4436 65.4208C34.8472 66.0929 35.5648 66.6306 35.5648 66.6306C36.103 66.4962 36.7757 65.9137 37.0448 65.5104C37.3139 65.9585 37.9866 66.4962 38.5248 66.6306C38.5248 66.6306 39.2424 66.0929 39.646 65.4208C40.0048 66.0929 41.0363 67.1235 42.2472 67.1683C42.1127 67.3475 41.8884 67.482 41.5745 67.5716ZM29.3757 41.4033C29.1515 41.4033 28.9721 41.5377 28.9721 41.8066V56.8175C28.9721 58.2514 29.5551 58.9683 30.6315 58.9683H33.4121C35.2957 58.9683 36.4169 59.6404 37 60.447C37.4484 59.6852 38.7939 58.9683 40.5878 58.9683H43.3684C44.4896 58.9683 45.0278 58.2514 45.0278 56.8175V41.8066C45.0278 41.5377 44.8933 41.4033 44.6242 41.4033H29.3757ZM32.0666 55.4732C32.0218 55.7869 32.4254 56.4142 33.0533 56.235C33.0533 56.3694 33.0533 56.6831 33.2327 56.9519C32.1115 57.176 31.6181 56.235 32.0666 55.4732ZM42.2921 50.4995C42.1575 50.3202 41.9781 50.1858 41.8436 50.0066C41.6642 49.8273 41.5745 49.7377 41.3951 49.7377C41.0363 49.7377 40.6327 49.9618 40.4084 50.0962C40.4084 50.0962 40.3636 50.0962 40.3636 50.141C40.5878 50.141 40.8121 50.0962 41.0363 50.0962C41.2157 50.0514 41.3951 50.0962 41.5745 50.1858C41.709 50.2754 41.7987 50.4098 41.7987 50.5891C41.7987 51.082 42.2472 52.1574 42.2472 52.5158C42.2921 52.6503 42.1127 52.6951 41.9333 53.2776C41.7987 53.4568 41.3503 52.9191 41.3951 52.7847C41.6193 52.471 41.709 52.247 41.6642 52.0229C41.6193 51.8437 41.5296 51.4852 41.4399 51.306C41.3503 51.0372 41.126 50.9475 40.9018 51.0372C39.8703 51.3956 39.7357 50.9027 38.7042 51.3508L39.8703 53.1432C39.8703 53.0087 39.8254 52.7847 39.6012 52.6055C39.646 52.4262 40.0048 52.3366 40.1393 52.5158C40.3187 52.7399 40.6327 53.0536 40.9018 53.0984C41.4399 53.188 41.3951 53.9945 42.7406 54.2634C42.5612 54.4426 42.2024 54.3978 42.023 54.3082C42.1127 54.4426 42.2472 54.6219 42.4266 54.6667C42.2024 54.8907 41.6193 54.3978 41.6642 54.8907C41.7539 54.8459 41.9333 54.8011 42.023 54.8459C42.2921 54.9355 42.7406 56.5038 41.7987 57.176C42.023 57.2208 42.2024 57.1311 42.4266 57.1311C42.5612 57.1311 42.6509 57.2656 42.6509 57.4C42.7406 57.4896 42.7854 57.5344 42.8303 57.6688C42.7406 57.7137 42.606 57.6689 42.5612 57.624C42.606 57.7137 42.606 57.9377 42.5612 57.9377C42.4715 57.9377 42.4266 57.8929 42.3369 57.8481C42.2024 57.8929 41.7987 57.8929 41.709 57.8033C41.3951 57.8929 41.126 57.9825 40.7672 57.9825C40.5878 57.9825 40.3636 57.9825 40.3636 57.7585C40.3636 57.6688 40.4084 57.624 40.4533 57.4896C40.3187 57.3552 40.0496 57.4896 39.7806 57.5344C39.3769 57.5792 39.2424 57.4896 39.1527 57.4448C39.5115 57.0863 39.2872 56.2798 38.7042 56.1902C39.1975 56.6383 39.1078 57.3552 38.5696 57.5344C38.7042 57.5792 38.7939 57.6688 38.8387 57.7585C39.0181 57.8481 39.0181 57.9825 39.0181 58.0273C38.9284 57.9377 38.749 57.8929 38.5696 57.8929C38.5696 57.9377 38.5248 58.0721 38.4799 58.1169C38.4351 58.1169 38.3454 58.0273 38.3006 57.9825C38.1212 57.8481 37.0896 58.1169 37 57.9377C36.9551 57.7585 37.2242 57.624 37.4933 57.5792C36.8206 57.3552 36.2375 56.1005 35.206 55.8765C34.7127 55.7869 34.0848 56.0109 34.0848 56.5934C34.0848 56.9071 34.309 57.1311 34.5781 57.1311C34.8024 57.1311 34.9369 56.9519 34.9369 56.7727C34.8921 56.8175 34.8921 56.8175 34.8472 56.8623C34.7127 56.9967 34.4884 56.9967 34.3539 56.8623C34.2193 56.7279 34.2193 56.5486 34.3539 56.4142C34.4436 56.2798 34.5781 56.235 34.7127 56.1902C35.1163 56.1454 35.4303 56.2798 35.6545 56.5934C35.7442 56.7279 35.8339 56.9071 35.8339 57.0863C35.8339 57.8033 35.1163 57.9825 34.7127 57.9825C33.726 57.9825 33.143 57.2656 33.143 56.459C33.143 56.3694 33.143 56.2798 33.143 56.1454C33.2775 55.2044 34.1296 54.8459 34.8472 54.7115C34.7575 54.3978 34.5781 54.129 34.309 53.9049C34.1745 53.8153 34.1745 53.7257 34.2642 53.5913C34.3539 53.412 34.4884 53.2328 34.5333 53.0087C34.5333 52.9639 34.5333 52.9191 34.5333 52.8743C34.1745 53.188 33.6812 53.5016 33.0084 53.6809C32.7842 53.7705 32.6945 53.9945 32.6496 54.2186C32.6048 54.4874 32.6048 54.7563 32.6048 55.0251C32.6048 55.0699 32.6496 55.1596 32.6945 55.2044C32.829 55.4284 32.9636 55.6525 33.0084 55.9213C33.0084 56.0557 32.3357 56.0557 32.3357 55.9661C32.3357 55.4732 32.0218 55.294 32.0218 54.9803C32.1115 54.4874 32.1115 53.9945 32.0666 53.5016C32.0666 53.3672 32.1115 53.2776 32.2012 53.2328C32.3357 53.1432 32.5151 53.0087 32.6496 52.9191C32.9636 52.6503 33.143 52.3366 33.0533 51.9333C33.0533 51.8885 33.0084 51.8437 33.0084 51.7989C32.829 51.4404 32.7393 51.0372 32.7393 50.6339C32.7393 50.1858 32.1563 50.1858 32.2012 50.6339C32.2012 50.7683 32.3357 50.9475 32.3806 51.082C32.9636 52.4262 31.9321 53.3672 30.8557 53.3672C31.9769 52.9639 30.5866 51.5301 30.5866 50.4546C30.5866 49.7825 31.0799 49.2896 31.7078 49.2896C32.4254 49.2896 32.8739 49.7377 33.0084 49.8273C33.3672 49.2896 34.3987 49.2 34.8024 49.1104C34.7575 48.7967 34.8024 48.5727 34.9818 48.3486V48.3038C34.9369 48.1694 34.8472 48.035 34.8024 47.9005C34.4884 48.259 34.3987 48.7519 34.3987 48.976C33.1878 48.976 32.6945 48.4383 32.3357 48.2142C32.3357 48.1246 32.6496 47.5421 32.9187 47.1836C32.6048 47.4525 32.3806 47.7661 32.1563 48.0798C31.9769 47.9454 31.7975 47.8557 31.6181 47.7661C31.8872 47.1836 32.246 46.7355 32.6945 46.2874C32.0666 46.5115 31.4836 47.2284 31.3042 47.6765C31.1248 47.6765 30.8557 47.6317 30.7212 47.6765C31.3939 46.8251 31.7527 45.1672 33.2775 44.7639C32.8739 46.3322 33.8606 46.9596 34.4884 46.5563C34.3987 46.5563 34.3539 46.5563 34.309 46.5563C33.0533 46.2426 33.7709 44.4503 33.5018 44.0918C33.3672 43.9574 33.3224 43.823 33.3224 43.6437C33.3224 43.5989 33.3224 43.5093 33.2775 43.4645L32.6048 42.3443C32.5151 42.2098 32.7842 42.1202 32.829 42.165L33.5018 43.2852C33.5018 43.3301 33.5466 43.3749 33.5466 43.3749C33.8157 43.4197 33.8606 43.6437 33.9951 43.823C34.04 43.8678 34.04 43.9574 34.04 44.0022C34.04 44.047 34.04 44.1366 33.9951 44.1814C33.9054 44.271 33.9054 44.4055 33.9951 44.5399C34.1296 44.7639 38.2557 51.6197 38.2557 51.6197C37.3587 51.9781 35.7442 52.0229 35.2957 51.9781C35.206 52.2022 35.0266 52.471 34.8024 52.6951C35.0266 52.5607 35.206 52.3814 35.3406 52.1574C35.52 52.1574 35.789 52.247 36.0581 52.2918C35.8787 52.6503 35.6545 53.0087 35.3406 53.2776C35.206 53.412 35.0266 53.5464 35.0715 53.7705C35.1612 54.0393 35.6545 54.5322 35.8339 54.8459C36.0133 54.8907 36.3272 54.9355 36.5515 55.0251C36.686 55.294 37.0896 55.6525 37.6278 55.4732C36.5963 55.4732 36.686 54.3978 37 53.8601C36.9551 54.3978 37.2242 54.8011 37.5381 54.8459C37.0448 54.3978 37.0896 53.412 37.583 52.8743C37.6278 53.7705 37.8969 54.2186 38.3006 54.3082C37.8072 53.8601 37.4933 52.7847 38.2557 51.9781C38.3006 53.9945 40.1393 53.6361 40.3187 55.9213C40.9915 55.9213 41.0363 55.0251 40.6775 54.8459C40.4533 54.7563 40.2739 54.6219 40.1393 54.4426C40.0945 54.353 40.0496 54.2186 40.0048 54.129C39.8254 53.5464 39.2424 53.5913 39.2424 53.412C39.2424 53.3672 39.3321 53.3224 39.4666 53.3224L38.3903 51.6645L38.3454 51.5749C38.4799 51.5301 38.5248 51.4852 38.3903 51.2612C38.3903 51.2612 34.3539 44.5847 34.3539 44.5399C34.7127 44.4951 35.0715 44.5847 35.4303 44.7191C35.3406 44.6295 35.2509 44.4951 35.2509 44.4055C35.2509 44.3158 35.2509 44.2262 35.3406 44.1814C35.4303 44.0918 35.52 44.047 35.5648 43.9574C35.7442 43.6437 36.1478 43.5093 36.4618 43.5989C36.9551 43.7333 37.1345 44.3158 36.7757 44.6295C36.5963 45.0776 36.3272 44.988 36.2824 45.212C36.3721 45.2568 37.0896 45.7945 37.1345 46.0186C36.9103 46.4667 36.8206 47.094 37 47.4973C37.1345 45.7049 38.2109 44.8535 39.2424 44.8535C39.5115 44.8535 39.7357 44.8984 39.9599 44.988C40.0945 45.0328 40.229 45.0776 40.3636 45.1672C40.543 45.3016 40.6775 45.4361 40.8121 45.5705C41.0363 45.7945 41.2157 46.0186 41.5296 46.0634C41.4399 46.1978 41.3054 46.3322 41.2157 46.4219C41.126 46.5115 41.0812 46.6011 41.0812 46.6907C41.0363 46.9148 40.9915 47.1836 40.8121 47.3628C40.7672 47.4076 40.7672 47.4076 40.7672 47.4525C40.6327 47.7661 40.543 48.1246 40.4084 48.4383C40.3636 48.5279 40.4084 48.6175 40.2739 48.6175C40.1842 48.6175 40.0496 48.5727 40.0048 48.5279C39.8703 48.3934 39.7806 48.2142 39.8703 48.035C39.9151 47.8557 39.8703 47.6765 39.8254 47.4973C39.7806 47.318 39.7357 47.1388 39.6909 46.9148C39.4218 46.8251 38.8836 47.4076 39.2872 47.9454C39.5563 48.3038 39.7806 49.0208 39.8254 49.2896C39.8254 49.3344 39.6012 49.4689 39.2424 49.424C38.0763 49.2896 37.3587 48.4831 37.1345 47.8109C37.1345 48.976 38.0763 49.8273 39.4666 49.7377C39.5115 50.0066 39.7357 50.1858 40.0048 50.1858C40.0496 50.0066 40.0496 49.6481 40.0048 49.424C40.0048 49.3344 40.0496 49.2896 40.1393 49.2448C40.4533 49.1552 40.8569 49.2 41.2157 49.0656C41.5296 48.976 41.6642 49.0208 41.8436 49.3792C41.9781 49.6481 42.2472 49.9617 42.4715 50.1858C42.5612 50.2754 42.6509 50.365 42.7406 50.4546C42.8751 50.5891 42.9199 50.7235 42.9199 50.9027C42.8751 51.1716 42.9199 51.7093 42.9199 51.7093C42.8302 51.8885 42.3818 51.7093 42.2921 51.5301C42.2921 51.2612 42.5612 50.7683 42.2921 50.4995ZM50.7236 21.8219C50.4096 22.9869 49.423 24.4656 48.6157 25.1377C48.526 25.2273 48.5709 25.2273 48.6606 25.1825C53.1454 23.9727 53.9078 26.2579 53.9078 26.3475C53.9078 26.4372 53.9527 26.482 53.9975 26.3923C54.0872 26.3027 55.5672 24.6896 54.4909 23.2109C53.4593 21.7322 50.7236 21.8219 50.7236 21.8219ZM50.903 22.9869C51.0375 22.7628 51.2169 22.3596 51.2169 22.3596C51.5757 22.3596 52.1587 22.494 52.1587 22.8973C51.7103 22.8076 51.2169 22.8076 50.903 22.9869ZM55.0739 28.1847C54.8048 28.5432 54.0872 29.5738 52.4727 28.6328C50.8581 27.6918 50.0509 27.1989 50.0509 27.1989C50.0509 27.1989 50.3199 27.6918 50.0957 28.2743C50.0957 28.3191 50.0509 28.3191 50.0509 28.2743C49.8715 27.9158 48.4812 26.7956 46.7321 26.6612C47.3599 26.0787 48.0775 25.5858 48.0775 25.5858C48.8399 25.7202 50.32 26.2131 52.2036 27.4678C54.1321 28.6776 54.9842 28.1847 55.0739 28.1847C55.1187 28.1399 55.0739 28.1399 55.0739 28.1847ZM40.0945 21.6426C39.7357 21.4634 38.8836 20.5672 38.7042 19.7607C39.9151 20.3432 41.7987 20.9257 44.6242 20.9257C44.6242 20.9257 49.6024 20.9257 49.7818 20.9257C50.0957 20.9257 50.1854 21.1049 50.0957 21.4634C49.0642 24.9137 46.2836 25.765 45.1624 27.2437C45.1624 27.2437 45.1624 26.7956 44.669 25.6754C44.3103 26.2579 43.3684 27.3333 42.7406 27.4678C42.8751 27.1541 43.0545 25.9443 42.9199 25.0929C41.4848 26.3475 39.6909 26.6164 38.7042 25.8995C39.5115 25.9443 40.5878 25.0033 41.126 24.1967C40.3636 24.376 39.3321 24.1967 39.1527 23.9727C39.646 23.8383 40.1842 23.435 40.543 23.0317C40.0048 22.9869 38.8387 22.5388 38.5248 21.9563C38.9733 22.0907 39.646 21.9115 40.0945 21.6426ZM48.0775 22.0011H45.6109C45.6109 22.1803 45.8351 22.2251 46.6424 22.5388C47.4496 22.8525 47.8533 23.3005 47.8533 23.3005C47.8533 23.3005 48.2569 22.6732 48.3466 22.4492C48.4812 22.2699 48.4812 22.0011 48.0775 22.0011ZM29.6448 27.1989C29.4654 27.647 29.4206 28.1399 29.5103 28.812C30.0484 29.9322 30.2727 32.0382 30.1381 33.2033C30.9454 32.0382 31.349 30.7388 31.5733 29.7082C32.0666 30.2011 32.6496 30.8732 33.0981 31.4557C33.1878 30.8284 33.3224 30.1115 33.4121 29.5738C34.0399 30.1563 35.2957 30.918 36.1927 31.1421C35.6096 28.6776 34.623 27.1093 34.623 27.1093C33.7709 27.1989 32.4254 26.9749 31.7975 26.3923C31.8872 27.2885 32.5151 28.3191 32.5151 28.3191C31.1696 28.4536 30.2727 28.0055 29.6448 27.1989ZM44.3103 27.1989C43.7272 28.0055 42.7854 28.4087 41.4848 28.3191C41.4848 28.3191 42.1127 27.2885 42.2024 26.3923C41.5745 26.9749 40.229 27.1989 39.3769 27.1093C39.3769 27.1093 38.3903 28.6776 37.8072 31.1421C38.6593 30.8732 39.9599 30.1563 40.5878 29.5738C40.7224 30.1115 40.8121 30.8732 40.9018 31.4557C41.3503 30.8732 41.9333 30.2011 42.4266 29.7082C42.6509 30.7388 43.0096 32.0382 43.8618 33.2033C43.6824 32.0382 43.9515 29.9322 44.4896 28.812C44.5345 28.1847 44.4896 27.647 44.3103 27.1989ZM33.0533 34.9508C32.6945 36.5191 31.2145 37.9978 29.7345 38.1322C30.7212 36.8776 30.766 34.682 30.6763 33.965C31.3042 32.9344 31.7527 32.0382 31.9769 31.4109C32.4254 31.859 33.0981 32.7104 33.726 33.6514C33.726 33.6514 33.726 32.4415 33.9951 30.9628C34.623 31.5454 35.7442 31.9486 36.3721 32.0831C36.7757 32.7104 36.8654 33.2033 37.0448 33.965C37.2242 33.1585 37.3139 32.7104 37.7175 32.0831C38.3454 31.9038 39.4666 31.5005 40.0945 30.9628C40.3187 32.4415 40.3636 33.6514 40.3636 33.6514C40.9915 32.6656 41.6642 31.8142 42.1127 31.4109C42.3369 32.0382 42.7406 32.9344 43.4133 33.965C43.3236 34.682 43.3684 36.8776 44.3551 38.1322C42.8751 37.9978 41.3951 36.5191 41.0363 34.9508C40.543 35.7574 40.0945 36.6984 39.9599 37.5497C39.4666 36.9672 38.9733 35.9814 38.6593 34.7716C38.2557 35.3093 37.5381 36.3399 37.1345 37.2361C36.7309 36.3847 36.0133 35.3093 35.6096 34.7716C35.2509 35.9814 34.7575 36.9672 34.309 37.5497C33.9951 36.6984 33.5466 35.7126 33.0533 34.9508ZM19.4642 53.2328C20.3163 52.6951 20.8545 51.7093 21.4375 50.4546C21.0787 50.5891 20.5854 50.7683 20.0472 50.8579C19.5539 51.8437 18.8363 51.4404 18.8363 51.306C18.9709 51.1268 19.1503 50.9027 19.2848 50.6787C19.0606 50.2754 18.8363 49.6929 18.6569 49.3344C17.9393 50.8579 16.6387 52.3814 15.5175 52.9639C16.2351 53.8601 18.2084 54.0393 19.4642 53.2328ZM22.0654 50.6787C21.4824 51.9333 21.6169 53.8601 23.5006 53.9497C23.3212 52.5607 23.949 51.306 24.6218 50.6787C24.0387 50.8131 23.1418 51.5749 23.1418 51.5749C23.1418 51.5749 23.0072 51.8885 22.9624 52.2918C22.5587 52.3814 22.3345 52.0678 22.5139 51.4404C22.5139 51.4404 22.2448 51.1268 22.0654 50.6787ZM12.6921 52.1574C11.0327 52.1574 9.68722 50.9475 9.32843 50.141C11.2121 49.8721 13.9478 48.4383 15.383 47.0044C15.383 47.5869 15.4727 48.1694 15.5624 48.5727C15.0242 49.1552 14.1721 49.5585 14.1721 49.5585C14.1721 49.5585 14.3963 49.9617 14.8896 49.9617C15.069 49.9617 15.2484 49.9169 15.4278 49.8273C15.7866 49.6481 16.2351 49.0656 16.2351 49.0656C16.9078 48.976 17.4909 48.8863 18.0739 48.7071C17.0424 50.0066 15.2933 51.5749 13.4545 52.0229C13.2303 52.1126 12.9612 52.1574 12.6921 52.1574ZM9.01449 49.0656C9.10419 49.0656 9.19389 49.0656 9.28358 49.0656C11.1672 48.8863 13.4545 47.6765 14.8896 46.6459C14.4412 46.7355 13.1854 46.7803 12.6024 46.6907C12.423 46.8251 11.526 47.4076 10.7636 47.4973C9.41813 47.6765 9.28358 46.8251 9.28358 46.8251C10.1357 46.7355 11.1672 46.4219 12.109 45.9738C12.1987 45.2568 12.3781 44.6295 12.5127 44.1366C10.4496 45.3016 7.04116 46.1082 5.02298 46.153C5.47146 47.0492 7.04116 49.0656 9.01449 49.0656ZM9.28358 42.2995C7.66904 42.6579 5.65086 42.5683 5.65086 42.5683C5.65086 42.5683 5.7854 43.4197 6.90661 43.5093C7.39995 43.5541 8.9248 43.2852 9.55268 43.106C9.82177 43.2404 10.9878 43.5093 12.2436 43.6885C10.5393 44.3158 8.02783 44.9432 6.45813 44.9432C6.32358 44.9432 6.14419 44.9432 6.00964 44.9432C3.49813 44.7191 2.19752 42.3891 2.15268 41.0896C2.9151 41.224 4.17086 41.3137 5.51631 41.3137C6.63752 41.3137 8.79025 41.224 10.4496 40.776C10.046 41.1792 9.59752 41.7617 9.28358 42.2995ZM3.27389 39.835C4.21571 40.1486 5.69571 40.3279 7.3551 40.3279C8.38661 40.3279 9.46298 40.2383 10.3151 40.1038C9.37328 39.7902 8.20722 39.2973 7.4448 38.8044C6.50298 38.8044 5.20237 38.7596 4.3951 38.4907C3.18419 38.1322 3.18419 37.2809 3.22904 37.1016C4.26055 37.5049 6.05449 37.9082 7.3551 37.9978C7.84843 37.5497 8.56601 36.9672 9.37328 36.4743C6.23389 36.5191 2.28722 35.2645 0.044797 34.0995C-0.448536 38.2667 2.37692 39.5213 3.27389 39.835ZM10.1357 31.1869C9.64237 30.2459 9.19389 29.0361 9.10419 27.9607C7.62419 26.7956 5.9648 25.3617 5.02298 23.7038C4.4848 22.7628 4.66419 21.9115 5.06783 21.5978C5.38177 22.6284 7.31025 25.5858 9.10419 27.0645C9.10419 26.1235 9.28358 25.0481 9.50783 24.2415C7.4448 22.0011 5.11268 18.282 4.57449 16.8033C3.94661 17.341 2.87025 18.6404 2.60116 20.4776C2.33207 22.3148 2.9151 24.2415 4.3951 26.1235C5.51631 27.6022 7.98298 29.7978 10.1357 31.1869ZM9.50783 35.9366C6.77207 35.4885 3.45328 34.4131 1.83874 32.8448C-1.16611 29.8426 0.448433 26.1683 0.85207 25.4066C2.8254 27.871 6.59268 30.4699 10.1357 31.859C8.96965 31.9934 7.71389 32.2623 6.86177 32.576C5.47146 31.9934 3.49813 30.6492 2.55631 29.7082C2.42177 29.8426 2.10783 30.6492 3.13934 31.5005C3.90177 32.1279 5.42661 32.8448 6.59268 33.2929C7.13086 34.0995 8.11752 34.9956 9.50783 35.9366ZM55.2981 49.3344C55.1636 49.6929 54.8945 50.2754 54.6703 50.6787C54.8048 50.9027 54.9842 51.1268 55.1187 51.306C55.1187 51.4404 54.4012 51.7989 53.9078 50.8579C53.4145 50.7683 52.8763 50.5891 52.5175 50.4546C53.1454 51.6645 53.6387 52.6503 54.4909 53.2328C55.7466 54.0393 57.7648 53.8601 58.3927 52.9639C57.3163 52.3814 56.0157 50.8579 55.2981 49.3344ZM51.9345 50.6787C51.7551 51.082 51.486 51.4404 51.486 51.4404C51.6654 52.0678 51.4412 52.3814 51.0375 52.2918C50.9927 51.8885 50.8581 51.5749 50.8581 51.5749C50.8581 51.5749 49.9163 50.8131 49.3781 50.6787C50.0509 51.2612 50.6787 52.5607 50.4993 53.9497C52.383 53.9049 52.5175 51.9781 51.9345 50.6787ZM58.4375 48.5727C58.5272 48.1694 58.6169 47.5869 58.6169 47.0044C60.0521 48.4383 62.7878 49.8721 64.6715 50.141C64.3127 50.9027 62.9672 52.1574 61.3078 52.1574C61.0387 52.1574 60.7696 52.1126 60.4557 52.0678C58.6169 51.6197 56.8678 50.0514 55.8363 48.7519C56.4193 48.9311 57.0472 49.0656 57.6751 49.1104C57.6751 49.1104 58.1236 49.6481 58.4824 49.8721C58.6618 49.9618 58.8412 50.0066 59.0206 50.0066C59.5587 50.0066 59.7381 49.6033 59.7381 49.6033C59.7381 49.6033 58.9757 49.1552 58.4375 48.5727ZM61.846 45.929C62.7878 46.377 63.7745 46.6459 64.6715 46.7803C64.6715 46.7803 64.5369 47.6317 63.1915 47.4525C62.4739 47.3628 61.5769 46.7803 61.3527 46.6459C60.7696 46.7355 59.5587 46.6907 59.0654 46.6011C60.5454 47.6317 62.7878 48.8415 64.6715 49.0208C64.7612 49.0208 64.8509 49.0208 64.9406 49.0208C66.9139 49.0208 68.4836 47.0044 68.8872 46.0634C66.869 46.0186 63.5054 45.212 61.3975 44.047C61.5769 44.5847 61.7563 45.212 61.846 45.929ZM63.5503 40.6863C65.2096 41.1344 67.3624 41.224 68.4836 41.224C69.829 41.224 71.1296 41.1344 71.8472 41C71.8024 42.3443 70.5018 44.6295 67.9903 44.8535C67.8557 44.8535 67.7212 44.8535 67.5418 44.8535C65.9721 44.8535 63.4606 44.2262 61.7563 43.5989C62.9672 43.4197 64.1781 43.1508 64.4472 43.0164C65.0751 43.1956 66.6 43.4645 67.0933 43.4197C68.2145 43.3749 68.349 42.4787 68.349 42.4787C68.349 42.4787 66.3309 42.5683 64.7163 42.2098C64.4024 41.7617 63.9539 41.1792 63.5503 40.6863ZM73.9551 34.1443C71.7127 35.3093 67.7212 36.5639 64.6266 36.5191C65.4339 37.012 66.1515 37.5497 66.6448 38.0426C67.9454 37.953 69.7393 37.5497 70.7709 37.1465C70.7709 37.3257 70.8157 38.177 69.6048 38.5355C68.7975 38.8044 67.4969 38.8044 66.5551 38.8492C65.7927 39.3421 64.6266 39.7902 63.6848 40.1486C64.5369 40.2831 65.6133 40.3727 66.6448 40.3727C68.3042 40.3727 69.7842 40.1934 70.726 39.8798C71.623 39.5213 74.4484 38.2667 73.9551 34.1443ZM68.9321 21.5978C69.3357 21.8667 69.5151 22.718 68.9769 23.7038C68.0351 25.3617 66.3309 26.8404 64.8957 27.9607C64.8509 29.0361 64.3575 30.2907 63.8642 31.1869C66.0169 29.753 68.4836 27.6022 69.6048 26.1235C71.0399 24.2415 71.6678 22.3148 71.3987 20.4776C71.1296 18.6404 70.0533 17.341 69.4254 16.8033C68.8872 18.282 66.5551 22.0011 64.4921 24.2415C64.7163 25.0481 64.8957 26.1235 64.8957 27.0645C66.6896 25.5858 68.6181 22.6284 68.9321 21.5978ZM67.183 32.576C66.286 32.2175 65.0751 31.9934 63.909 31.859C67.4521 30.4699 71.2193 27.871 73.1927 25.4066C73.5963 26.1683 75.2109 29.8426 72.1612 32.8448C70.5466 34.4131 67.2278 35.5333 64.4921 35.9366C65.9272 34.9956 66.9139 34.1443 67.4072 33.3377C68.5733 32.8896 70.143 32.1727 70.8606 31.5454C71.8921 30.694 71.5781 29.8874 71.4436 29.753C70.5466 30.6492 68.5733 31.9934 67.183 32.576ZM58.9757 28.3639C57.8545 31.0077 54.9393 33.3825 53.0557 34.5475C52.2036 35.0852 52.5175 36.1158 52.7866 36.5639C55.343 40.8208 50.6787 43.9574 46.5078 41.8514C47.4048 41.8514 48.3466 41.0896 48.4812 40.3727C48.2121 40.6415 47.0012 40.5071 46.6424 40.1486C47.1806 39.8798 47.3151 39.5661 47.3599 39.2973C46.6872 39.7005 45.3418 39.7454 44.9381 39.0732C42.7406 39.0284 41.2606 37.2809 41.0812 36.788C40.9018 37.3257 40.6327 38.2667 40.543 39.1628C39.9599 38.7596 38.9284 37.8186 38.3903 36.5639C37.7624 37.4153 37.3139 38.4011 37.0448 39.4317C36.7309 38.4011 36.2824 37.4153 35.6993 36.5639C35.1612 37.8186 34.1296 38.7148 33.5466 39.1628C33.4569 38.2667 33.1878 37.3257 33.0084 36.788C32.829 37.2809 31.349 39.0284 29.1515 39.0732C28.703 39.8798 27.3575 39.7902 26.6848 39.3869C26.7296 39.6557 26.8193 39.9246 27.4024 40.2383C27.0436 40.5519 25.8775 40.6863 25.5636 40.4623C25.6981 41.1344 26.5951 41.941 27.5369 41.941C23.3212 44.047 18.7018 40.8656 21.2581 36.6536C21.5272 36.2055 21.8412 35.1749 20.989 34.6372C19.1054 33.4721 16.2351 31.0973 15.069 28.4536C14.9345 29.529 15.0242 32.2175 16.1903 33.8754C15.3381 34.1891 14.2618 34.7268 13.4993 35.2197C13.9478 35.7574 15.0242 36.6536 15.7418 37.1465C15.1587 37.6842 14.2169 38.6699 13.7684 39.3421C14.3963 39.7005 15.6072 40.1486 16.549 40.4623C16.1006 41.1792 15.4278 42.4787 15.2933 43.2404C16.3248 43.3749 17.4012 43.3749 18.3878 43.3301C18.2533 44.2262 18.343 45.3464 18.4327 46.153C19.4193 46.0186 20.4957 45.6153 21.2133 45.2568C21.3478 45.8842 21.7066 47.0044 22.0654 47.6317C23.0072 46.7355 24.2181 46.3322 25.3393 46.6011C27.6715 47.094 28.3442 49.424 28.3442 49.424V42.2995V41.4929C28.3442 41.0448 28.5684 40.8208 29.0169 40.8208H45.0727C45.5212 40.8208 45.7454 41.0448 45.7454 41.4929V42.2995V49.424C45.7454 49.424 46.4181 47.094 48.7503 46.6011C49.8715 46.377 51.0824 46.7803 52.0242 47.6317C52.3381 47.0044 52.7418 45.8842 52.8763 45.2568C53.5939 45.6153 54.6702 46.0186 55.6569 46.153C55.7466 45.3464 55.8363 44.2262 55.7018 43.3301C56.6436 43.4197 57.72 43.4197 58.7963 43.2404C58.6169 42.4787 57.9442 41.1792 57.5406 40.4623C58.5272 40.1934 59.6933 39.7454 60.3212 39.3421C59.8278 38.6699 58.9309 37.6842 58.3478 37.1465C59.0654 36.6536 60.1418 35.7574 60.5903 35.2197C59.8727 34.7268 58.7515 34.1891 57.8993 33.8754C58.9757 32.1279 59.1103 29.4393 58.9757 28.3639ZM29.7793 20.0295L29.6896 20.2984C32.5151 20.2984 35.206 19.3574 35.9236 15.9967H33.7709C33.3672 18.3716 31.9321 20.0295 29.7793 20.0295ZM17.6254 14.6076C17.6254 14.6076 19.1502 14.9661 19.7781 17.1169C20.3612 19.2678 21.886 20.2984 23.4557 20.2984L23.3212 20.0295C22.4242 19.8951 21.1684 18.6404 20.8993 16.2656C20.6751 13.8907 20.0921 13.577 20.0921 13.577C19.4642 13.129 17.9393 14.2044 17.6254 14.6076ZM13.1406 15.5486C11.8399 15.5934 11.7054 16.1311 11.7054 16.1311H11.6606C11.7503 15.235 13.2751 15.459 14.7551 14.4732C15.8315 13.7563 16.4593 12.8153 16.9078 12.412C17.3563 12.0536 18.7466 12.3224 19.6884 12.9497C19.6884 12.9497 18.7915 12.6361 16.9078 14.3836C15.2933 15.9071 14.3963 15.5038 13.1406 15.5486ZM14.3066 21.2842C15.069 22.0459 15.1587 23.6142 15.1587 23.6142C15.1587 23.6142 16.1006 21.9563 15.3381 20.1639C14.5757 18.3716 13.006 17.0273 14.5309 15.9967C13.589 15.9967 12.5575 15.7727 12.109 16.4448C11.9745 16.624 11.8399 17.1169 12.2884 17.8339C12.8715 18.7301 14.3515 20.7913 13.1406 22.1803C14.0824 22.0011 14.3066 21.2842 14.3066 21.2842ZM23.949 20.2984H29.2412C29.2412 20.2984 29.3757 19.9847 29.5551 19.5366H23.6351C23.8145 19.9847 23.949 20.2984 23.949 20.2984ZM27.0884 12.8153C27.0884 12.5464 26.8642 12.2776 26.5951 12.2776C26.326 12.2776 26.1018 12.5016 26.1018 12.8153C26.1018 13.0842 26.326 13.353 26.5951 13.353C26.8642 13.353 27.0884 13.0842 27.0884 12.8153ZM29.7345 18.9093H23.4109C23.1866 18.1924 22.9175 17.1169 22.9175 16.624C22.9175 15.6831 23.4557 14.6076 25.2945 14.294C25.2945 15.459 25.8327 18.2372 26.5054 18.2372H26.5951C27.2678 18.2372 27.806 15.4142 27.806 14.294C29.6448 14.6076 30.1381 15.6831 30.1381 16.624C30.183 17.1617 29.9587 18.2372 29.7345 18.9093ZM26.5951 17.4754C26.9539 17.4754 27.223 15.6383 27.223 14.7421C27.223 14.2492 26.9539 13.9355 26.5951 13.9355C26.2363 13.9355 25.9672 14.2492 25.9672 14.7421C25.9224 15.6383 26.2363 17.4754 26.5951 17.4754ZM26.2363 11.6055H26.909L26.8193 10.7541L27.6715 10.8437V10.1268L26.8193 10.2164L26.909 9.36503H26.2363L26.326 10.2164L25.4739 10.1268V10.8437L26.326 10.7541L26.2363 11.6055ZM40.2739 15.9967H38.1212C38.8387 19.3574 41.5296 20.2984 44.3551 20.2984L44.2654 20.0295C42.0678 20.0295 40.6327 18.3716 40.2739 15.9967ZM50.589 20.2984C52.1587 20.2984 53.6387 19.2678 54.2666 17.1169C54.8496 14.9661 56.4193 14.6076 56.4193 14.6076C56.1054 14.2492 54.5806 13.129 53.9527 13.5322C53.9527 13.5322 53.3696 13.8459 53.1454 16.2208C52.9212 18.5956 51.6206 19.8951 50.7236 19.9847L50.589 20.2984ZM57.0921 14.4732C55.2084 12.7257 54.3115 13.0393 54.3115 13.0393C55.2981 12.412 56.6436 12.1432 57.0921 12.5016C57.5406 12.8601 58.1684 13.8459 59.2448 14.5628C60.7248 15.5486 62.2496 15.2798 62.3393 16.2208H62.2945C62.2945 16.2208 62.1599 15.6831 60.8593 15.6383C59.6036 15.5038 58.7066 15.9071 57.0921 14.4732ZM61.8909 16.4448C61.4424 15.8175 60.4109 16.0415 59.469 15.9967C60.9939 17.0273 59.4242 18.4164 58.6618 20.1639C57.8993 21.9563 58.8412 23.6142 58.8412 23.6142C58.8412 23.6142 58.9309 22.0459 59.6933 21.2842C59.6933 21.2842 59.9175 22.0011 60.8145 22.1355C59.6036 20.7464 61.0836 18.6852 61.6666 17.7891C62.16 17.1169 62.0254 16.6689 61.8909 16.4448ZM50.0509 20.2984C50.0509 20.2984 50.1854 19.9847 50.3648 19.5366H44.4896C44.669 19.9847 44.8036 20.2984 44.8036 20.2984H50.0509ZM47.943 12.8153C47.943 12.5464 47.7187 12.2776 47.4496 12.2776C47.1806 12.2776 46.9563 12.5016 46.9563 12.8153C46.9563 13.0842 47.1806 13.353 47.4496 13.353C47.7187 13.353 47.943 13.0842 47.943 12.8153ZM50.589 18.9093H44.2654C44.0412 18.1924 43.7721 17.1169 43.7721 16.624C43.7721 15.6831 44.2654 14.6076 46.1042 14.294C46.1042 15.459 46.6424 18.2372 47.3151 18.2372H47.4048C48.0775 18.2372 48.6157 15.459 48.6157 14.294C50.4545 14.6076 50.9927 15.6831 50.9927 16.624C51.0824 17.1617 50.8133 18.2372 50.589 18.9093ZM47.4048 17.4754C47.7636 17.4754 48.0327 15.6383 48.0327 14.7421C48.0327 14.2492 47.7636 13.9355 47.4048 13.9355C47.046 13.9355 46.7769 14.2492 46.7769 14.7421C46.7769 15.6383 47.0909 17.4754 47.4048 17.4754ZM47.0909 11.6055H47.7636L47.6739 10.7541L48.526 10.8437V10.1268L47.6739 10.2164L47.7636 9.36503H47.0909L47.1806 10.2164L46.3284 10.1268V10.8437L47.1806 10.7541L47.0909 11.6055ZM12.5575 32.4863C9.73207 30.5596 9.64237 26.3475 10.4496 24.0623C10.9878 25.4514 12.8266 27.7366 13.9927 28.9464C13.903 30.1115 14.2618 32.1727 14.9345 33.4721C13.9927 33.8306 12.9163 34.3683 12.109 34.9508C12.6472 35.623 13.7236 36.6087 14.4412 37.1465C13.8581 37.7738 12.8715 38.894 12.423 39.5661C13.0957 40.059 14.486 40.6415 15.2484 40.8656C14.8896 41.5825 14.3515 42.9716 14.2169 43.8678C15.069 44.0022 16.1903 44.0918 17.4012 44.0918C17.3563 44.988 17.446 46.377 17.6254 47.1836C18.7466 47.094 20.0472 46.6459 20.6303 46.3322C20.9442 47.5421 21.7066 48.7519 21.7515 48.7967C25.2496 44.988 28.2993 48.5727 28.2993 51.9333V56.5038C28.2993 58.6546 28.9721 59.6404 30.9454 59.6404H33.4569C35.0266 59.6404 36.3272 60.3126 37 61.5672C37.6727 60.2678 38.9733 59.6404 40.543 59.6404H43.0545C45.0278 59.6404 45.7006 58.6546 45.7006 56.5038V51.9781C45.7006 48.6623 48.7951 45.0776 52.2484 48.8415C52.2933 48.7967 53.0557 47.5869 53.3696 46.377C53.9527 46.6907 55.2533 47.1388 56.3745 47.2284C56.509 46.4219 56.6436 45.0328 56.5987 44.1366C57.8096 44.1366 58.9309 44.047 59.783 43.9126C59.6484 42.9716 59.1103 41.6273 58.7515 40.9104C59.469 40.6415 60.9042 40.1038 61.5769 39.6109C61.1284 38.9388 60.1418 37.8186 59.5587 37.1913C60.2763 36.6536 61.3527 35.6229 61.8909 34.9956C61.1284 34.4131 60.0072 33.8754 59.0654 33.5169C59.6933 32.2623 60.0969 30.2011 60.0072 28.9913C61.1733 27.7814 63.0121 25.4962 63.5503 24.1071C64.3575 26.3923 64.2678 30.6044 61.4424 32.5311C62.8327 32.576 65.2096 32.8448 66.4654 33.2481C65.6133 34.2339 63.4606 35.6678 62.16 36.2951C63.1915 36.6984 64.9854 37.6393 65.7478 38.3563C64.7612 38.9836 62.6084 39.6557 61.6218 39.8798C62.2048 40.3727 63.4157 41.7617 63.8642 42.4787C63.0121 42.7475 61.3078 42.9716 60.1866 43.0164C60.5454 43.7333 60.949 45.0328 61.0387 45.8842C60.5006 45.929 58.6618 45.8393 57.7648 45.6601C57.8545 46.377 57.8096 47.7213 57.6751 48.3038C56.7781 48.1694 55.5224 47.8109 54.9393 47.5869C54.7599 48.259 54.1769 49.6481 53.9527 50.0066C53.2351 49.8721 52.383 49.5585 51.7551 49.2448C51.5757 49.7825 51.1272 50.5443 50.9927 50.7683C48.9296 48.6623 45.9696 50.365 45.9696 52.6055C46.1939 54.0842 48.2569 53.9945 49.3333 54.7115C50.7684 55.6076 50.5442 57.7137 52.0242 58.0721C50.6339 58.9683 50.2303 57.3104 48.7503 57.2656C48.9296 58.1618 48.9296 59.7749 48.7951 60.4022C48.2121 59.9541 47.36 59.5956 46.8218 59.5508C46.9563 60.0885 47.046 61.2984 46.8666 62.0601C46.463 61.7464 45.0278 60.4918 41.6193 61.2984C41.2157 61.388 43.9515 61.2984 43.5927 62.1497C43.3236 62.8667 43.2339 63.3148 43.5478 64.3005C43.4133 64.3454 43.2339 64.3902 43.0545 64.3902C42.2921 64.3902 41.3054 63.9421 40.9018 63.2251C40.5878 63.4492 40.5878 65.0623 41.6193 65.4656C40.543 65.5552 39.6909 64.659 39.5563 64.1213C39.5563 64.1213 39.0181 65.376 38.3903 65.824C37.9866 65.6896 37.269 65.0175 37 64.3454C36.7309 65.0175 36.0133 65.6896 35.6096 65.824C34.9818 65.4208 34.4436 64.1213 34.4436 64.1213C34.2642 64.659 33.4569 65.5552 32.3806 65.4656C33.4121 65.0623 33.4121 63.4492 33.0981 63.2251C32.6945 63.9421 31.7078 64.3902 30.9454 64.3902C30.766 64.3902 30.5866 64.3454 30.4521 64.3005C30.766 63.3148 30.6763 62.8219 30.4072 62.1497C30.0484 61.2535 32.7842 61.388 32.3806 61.2984C28.9721 60.4918 27.5369 61.7464 27.1333 62.0601C26.9539 61.2984 27.0436 60.0885 27.1781 59.5508C26.6399 59.5956 25.7878 59.9541 25.2048 60.4022C25.0703 59.7301 25.0254 58.1618 25.2496 57.2656C23.8145 57.3104 23.4109 58.9683 21.9757 58.0721C23.4557 57.7585 23.1866 55.6525 24.6666 54.7115C25.743 54.0393 27.8509 54.0842 28.0303 52.6055C28.0303 50.365 25.0702 48.6623 23.0072 50.7683C22.8727 50.5891 22.4242 49.7825 22.2448 49.2448C21.6169 49.5585 20.7648 49.8721 20.0472 50.0066C19.823 49.6929 19.2399 48.259 19.0606 47.5869C18.4775 47.8109 17.2218 48.1694 16.3248 48.3038C16.1903 47.7213 16.1903 46.377 16.2351 45.6601C15.3381 45.8842 13.4993 45.9738 12.9612 45.8842C13.0509 45.0328 13.4545 43.7333 13.8133 43.0164C12.7369 42.9716 10.9878 42.7027 10.1357 42.4787C10.5842 41.7169 11.7951 40.3279 12.3781 39.8798C11.3466 39.6557 9.23874 38.9836 8.25207 38.3563C9.01449 37.6393 10.8084 36.6536 11.8399 36.2951C10.5393 35.6678 8.34177 34.2339 7.53449 33.2481C8.79025 32.8 11.2121 32.5311 12.5575 32.4863ZM4.4848 54.4874C4.4848 54.4874 5.02298 55.1596 5.42662 54.9355C5.65086 54.4874 4.97813 53.9497 4.97813 53.9497L4.70904 54.2186L4.4848 54.4874Z" fill="white"/>
</g>
<defs>
<clipPath id="clip0_926_172">
<rect width="74" height="82" fill="white"/>
</clipPath>
</defs>
</svg>
