<svg fill="none" height="164" viewBox="0 0 738 164" width="738" xmlns="http://www.w3.org/2000/svg"><g fill="#8c65ff" opacity=".5"><path d="m527.552-538.209-462.7712 542.22554c1.0737 1.43164 1.7895 2.86322 2.8632 4.29486l464.561-544.3734c-1.432-.716-2.864-1.432-4.653-2.147z"/><path d="m552.963-524.967-479.5923 540.7944c1.0737 1.4316 2.1474 2.5053 2.8632 3.9369l481.0241-542.2263c-1.431-1.073-2.863-1.789-4.295-2.505z"/><path d="m576.943-510.293-494.9827 536.8575c1.0737 1.4317 2.1474 2.5053 3.2211 3.937l495.6986-537.9315c-1.432-.715-2.863-1.789-3.937-2.863z"/><path d="m599.491-493.471-508.5831 530.7727c1.0737 1.0737 2.1474 2.5053 3.2211 3.579l508.941-531.1307c-1.074-1.074-2.505-2.148-3.579-3.221z"/><path d="m620.607-475.218-520.7515 522.8989c1.0735 1.0737 2.1475 2.5053 3.2215 3.579l521.109-523.2569c-1.431-1.074-2.505-2.147-3.579-3.221z"/><path d="m640.292-455.533-530.773 512.8774c1.074 1.0737 2.147 2.1474 3.579 3.579l530.415-512.8774c-1.074-1.074-2.147-2.148-3.221-3.579z"/><path d="m658.187-434.059-538.647 501.0668c1.074 1.0737 2.506 2.1474 3.579 3.2211l538.289-500.7089c-1.073-1.074-2.147-2.505-3.221-3.579z"/><path d="m674.651-411.511-544.731 487.4664c1.431 1.0738 2.505 2.1475 3.937 3.2212l544.015-486.7506c-1.432-1.432-2.147-2.505-3.221-3.937z"/><path d="m144.594 87.7663 547.594-471.3613c-.716-1.431-1.431-2.863-2.505-4.294l-549.026 472.4341c1.074 1.4317 2.505 2.5053 3.937 3.2212z"/><path d="m156.047 96.356 549.026-454.539c-.716-1.432-1.432-3.221-2.148-4.653l-551.173 456.3288c1.431 1.0737 2.863 1.7895 4.295 2.8632z"/><path d="m167.857 104.588 547.953-435.928c-.716-1.79-1.074-3.222-1.79-4.653l-550.458 437.718c1.432.715 2.864 1.789 4.295 2.863z"/><path d="m180.742 112.462 544.016-416.244c-.358-1.789-1.074-3.221-1.432-5.01l-547.237 418.39c1.432 1.074 2.864 1.79 4.653 2.864z"/><path d="m193.985 119.978 537.215-395.127c-.358-1.79-.716-3.579-1.074-5.369l-540.794 397.99c1.431.716 2.863 1.432 4.653 2.506z"/><path d="m208.301 127.136 527.551-372.579c-.357-1.79-.358-3.579-.715-5.369l-531.847 375.442c1.432.716 3.221 1.79 5.011 2.506z"/><path d="m223.333 133.936 514.667-348.599c0-1.79 0-3.937-.358-5.727l-519.678 352.179c1.79.715 3.579 1.431 5.369 2.147z"/><path d="m239.796 140.736 497.488-323.546c0-2.147.358-3.937.358-6.084l-503.572 327.483c1.789.716 3.579 1.431 5.726 2.147z"/><path d="m257.334 146.821 476.371-296.704c.358-2.147.716-4.295 1.074-6.442l-483.53 300.998c2.148.716 4.295 1.432 6.085 2.148z"/><path d="m277.018 152.189 450.245-268.429c.716-2.147 1.073-4.294 1.431-6.8l-458.118 273.44c2.147.715 4.295 1.431 6.442 1.789z"/><path d="m298.851 157.2 417.675-238.365c.715-2.5053 1.789-4.6527 2.505-7.1581l-427.339 244.0911c2.148.358 4.653 1.074 7.159 1.432z"/><path d="m323.546 161.137 377.948-206.1534c1.073-2.5054 2.505-5.0107 3.579-7.5161l-389.759 212.5955c2.863.358 5.727.716 8.232 1.074z"/><path d="m352.894 163.642 327.483-170.36269c1.79-2.86324 3.221-5.36861 5.011-8.23181l-341.799 178.2365c2.863 0 6.084.358 9.305.358z"/><path d="m389.759 163.642 260.196-129.2035c2.506-3.2212 5.011-6.0844 7.516-9.3056l-279.523 138.8671c3.937 0 7.874-.358 11.811-.358z"/><path d="m444.518 156.126 155.331-73.3703c5.01-3.937 9.663-8.2318 14.674-12.1688l-188.616 89.1181c6.084-1.073 12.527-2.147 18.611-3.579z"/></g></svg>