<svg width="197" height="232" viewBox="0 0 197 232" fill="none" xmlns="http://www.w3.org/2000/svg">
<path fill-rule="evenodd" clip-rule="evenodd" d="M116.338 -38.9988H-16.9848C-19.5469 1.12388 -48.1645 28.678 -85 38.3461C-74.6068 125.988 -26.9913 196.033 55.4293 231.467C125.62 201.109 177.247 144.067 192.475 72.6196C205.817 12.0972 181.646 -39.2888 116.338 -38.9988ZM183 70.4926C167.918 139.91 119.384 191.731 55.4776 220.735C-17.0332 188.395 -62.5216 125.794 -74.3167 45.2588C-40.14 33.5604 -14.1328 7.26313 -8.28355 -29.1857H116.387C175.459 -29.4274 194.795 16.3995 183 70.4926Z" fill="white" fill-opacity="0.05"/>
<path fill-rule="evenodd" clip-rule="evenodd" d="M71.2271 63.482L137.212 58.648C137.891 58.648 138.543 58.3781 139.024 57.8976C139.504 57.4171 139.774 56.7654 139.774 56.0859C139.774 55.4064 139.504 54.7548 139.024 54.2743C138.543 53.7938 137.891 53.5239 137.212 53.5239H68.8584L71.2271 63.482Z" fill="white" fill-opacity="0.05"/>
<path fill-rule="evenodd" clip-rule="evenodd" d="M6.30778 79.7728C5.93172 80.6985 5.80988 81.708 5.95486 82.6967C6.09985 83.6854 6.50639 84.6173 7.13242 85.3962C7.75845 86.175 8.58122 86.7724 9.51561 87.1266C10.45 87.4808 11.462 87.5788 12.447 87.4106C18.3929 86.1054 28.2544 73.6819 32.2666 68.7511L33.8619 66.2857L48.3641 65.2223L51.1195 53.4272H41.9831L69.1988 12.8694L86.5531 6.92355C88.7284 6.1501 88.1 4.60321 86.9881 4.60321H70.6974L68.9571 -13.0411C68.907 -13.2666 68.7815 -13.4682 68.6014 -13.6128C68.4212 -13.7573 68.1971 -13.836 67.9661 -13.836C67.7352 -13.836 67.5111 -13.7573 67.3309 -13.6128C67.1508 -13.4682 67.0253 -13.2666 66.9752 -13.0411L61.6577 4.69989H44.6902C43.2399 4.69989 43.0466 6.39181 44.6902 7.02024L60.1591 12.8694L23.7587 53.6205H-53.1511C-53.8562 53.6205 -54.5325 53.9006 -55.0311 54.3992C-55.5297 54.8979 -55.8098 55.5741 -55.8098 56.2793C-55.8098 56.9844 -55.5297 57.6606 -55.0311 58.1593C-54.5325 58.6579 -53.8562 58.938 -53.1511 58.938L13.6555 67.3492C10.7704 71.2166 8.30716 75.3815 6.30778 79.7728V79.7728Z" fill="white" fill-opacity="0.05"/>
<path fill-rule="evenodd" clip-rule="evenodd" d="M63.1647 124.744L55.962 89.0687L47.4541 124.744H63.1647ZM107.106 136.007L123.929 115.511V114.786C123.929 112.514 122.624 110.387 118.515 110.387V105.553H139.301V110.387C134.177 110.387 134.032 112.369 134.032 117.493V141.276C134.032 146.546 134.419 148.383 139.301 148.383V153.217H118.515V148.237C123.349 148.237 123.929 146.546 123.929 141.131V122.762L107.106 143.403V144.274C107.106 147.126 108.702 148.383 112.52 148.383V153.217H60.7961V148.237C64.5183 148.237 66.9353 147.947 66.9353 144.274C66.5028 139.454 65.6455 134.682 64.3733 130.013H45.7621L43.3451 139.681C41.4598 145.966 42.2333 148.237 48.9043 148.237V153.072H5.7845V148.237C10.9086 148.237 11.4887 146.546 11.4887 141.131V119.233L-1.6116 151.67L-14.8569 118.218V141.857C-14.8569 146.401 -14.2768 148.528 -9.29774 148.528V153.362H-25.2501V148.237C-19.836 148.237 -19.5459 144.95 -19.5459 140.406V117.493C-19.5459 113.384 -19.5459 110.387 -24.8151 110.387V105.553H-7.89586L1.38551 130.013L10.6186 105.553H26.9577V110.387C21.8336 110.387 21.6885 112.369 21.6885 117.493V141.276C21.6885 145.82 22.1236 147.271 23.5255 147.706C26.6676 148.818 32.5168 148.528 34.2088 145.095C35.7979 141.732 37.0449 138.218 37.931 134.605V134.605L59.9743 47.9308L80.1323 133.01C82.2593 142.292 83.5645 144.564 85.5464 146.546C87.5284 148.528 94.0544 149.543 96.3747 146.981C96.9064 146.401 97.1965 145.385 97.1965 141.276V117.493C97.1965 112.079 96.7614 110.387 91.7824 110.387V105.553H112.52V110.387C107.396 110.387 107.106 112.514 107.106 117.493V136.007Z" fill="white" fill-opacity="0.05"/>
</svg>
