<svg width="228" height="44" viewBox="0 0 228 44" fill="none" xmlns="http://www.w3.org/2000/svg">
<path d="M23.5735 16.2489H39.2331V24.247H23.5735V39.9908H15.5754V24.247H0V16.2489H15.6596V0.589318H23.6577V16.2489H23.5735ZM47.1471 0.505127V39.9908H55.1452V0.505127H47.1471Z" fill="white"/>
<path d="M181.6 39.9908L185.305 33.7606C183.621 32.8345 182.526 31.1507 182.526 29.0459C182.526 25.7625 184.8 23.5735 188.504 23.5735H194.734V39.9908H191.198V34.4341H188.757L185.473 39.9908H181.6ZM186.147 29.0459C186.147 30.393 187.157 31.4875 188.841 31.4875H191.198V26.6886H188.841C187.157 26.6044 186.147 27.6147 186.147 29.0459Z" fill="white"/>
<path d="M180.001 23.5735V39.9908H176.465V29.2143L169.477 40.075H165.941V23.5735H169.477V34.4341L176.465 23.5735H180.001Z" fill="white"/>
<path d="M145.061 23.5735H149.524L154.07 35.1077L158.616 23.5735H162.994V39.9908H159.626V28.9617L155.333 39.9066H152.723L148.429 29.0459V39.9908H145.061V23.5735Z" fill="white"/>
<path d="M131.591 39.9908V23.5735H142.62V26.7728H135.127V30.1404H142.115V33.1713H135.127V36.8757H142.62V40.075H131.591V39.9908Z" fill="white"/>
<path d="M129.823 36.7915V43.1058H126.371V39.9907H116.1V43.1058H112.648V36.7915H113.911C115.005 36.1179 115.342 34.3499 115.51 31.6558L116.015 23.4893H127.718V36.7915H129.823ZM117.699 36.7915H124.182V26.6885H119.299L118.962 31.6558C118.794 34.3499 118.541 35.697 117.699 36.7915Z" fill="white"/>
<path d="M102.882 23.5735H106.586L112.648 39.9908H108.943L107.765 36.6231H101.703L100.524 39.9908H96.8198L102.882 23.5735ZM102.713 33.5922H106.67L104.65 27.6147L102.713 33.5922Z" fill="white"/>
<path d="M86.8011 39.9908H83.2651V23.5735H86.8011V30.3088L92.5261 23.5735H96.7357L90.1687 31.4875L96.904 40.075H92.5261L86.8011 32.8345V39.9908Z" fill="white"/>
<path d="M71.8993 23.5735H75.6037L81.6655 39.9908H77.961L76.7824 36.6231H70.7206L69.5419 39.9908H65.8375L71.8993 23.5735ZM71.7309 33.5922H75.6879L73.6673 27.6147L71.7309 33.5922Z" fill="white"/>
<path d="M214.267 16.8382L217.971 10.608C216.287 9.68193 215.193 7.9981 215.193 5.89332C215.193 2.60987 217.466 0.420898 221.17 0.420898H227.4V16.8382H223.864V11.2816H221.423L218.139 16.8382H214.267ZM218.813 5.89332C218.813 7.24038 219.823 8.33487 221.507 8.33487H223.864V3.45178H221.507C219.739 3.45178 218.813 4.54627 218.813 5.89332Z" fill="white"/>
<path d="M204.332 0.420898H208.036L214.098 16.8382H210.394L209.215 13.4705H203.153L201.975 16.8382H198.27L204.332 0.420898ZM204.164 10.5238H208.121L206.1 4.54627L204.164 10.5238Z" fill="white"/>
<path d="M185.136 16.8382V0.420898H191.788C195.324 0.420898 197.007 2.3573 197.007 4.71465C197.007 6.65105 195.913 7.74553 194.818 8.25068C196.081 8.58744 197.597 9.85031 197.597 12.1235C197.597 14.8176 195.492 16.8382 192.04 16.8382H185.136ZM188.672 13.8915H191.535C192.966 13.8915 193.976 13.1338 193.976 11.8709C193.976 10.608 193.05 9.85031 191.619 9.85031H188.672V13.8915ZM188.672 7.072H191.282C192.714 7.072 193.387 6.23009 193.387 5.2198C193.387 4.04112 192.629 3.36759 191.198 3.36759H188.672V7.072Z" fill="white"/>
<path d="M174.949 0.168457C179.58 0.168457 182.863 3.6203 182.863 8.67177C182.863 13.8074 179.664 17.1751 174.949 17.1751C170.235 17.1751 167.035 13.7232 167.035 8.67177C167.119 3.5361 170.319 0.168457 174.949 0.168457ZM170.74 8.67177C170.74 11.7026 172.339 13.9758 174.949 13.9758C177.643 13.9758 179.159 11.7026 179.159 8.67177C179.159 5.64088 177.559 3.36772 174.949 3.36772C172.339 3.36772 170.74 5.55669 170.74 8.67177Z" fill="white"/>
<path d="M159.879 0.420898C163.668 0.420898 165.772 2.77825 165.772 5.97752C165.772 9.09259 163.499 11.5341 159.963 11.5341H157.185V16.8382H153.565V0.420898H159.879ZM157.185 8.41906H159.542C161.142 8.41906 162.152 7.40877 162.152 5.97752C162.152 4.54627 161.226 3.45178 159.542 3.45178H157.185V8.41906Z" fill="white"/>
<path d="M143.967 1.68382C147.84 1.85221 151.46 4.12537 151.46 8.5875C151.46 12.9654 147.924 15.3228 143.967 15.4912V17.175H140.515V15.4912C136.642 15.3228 133.022 13.0496 133.022 8.5875C133.022 4.12537 136.558 1.85221 140.515 1.68382V0H143.967V1.68382ZM136.558 8.5875C136.558 10.9449 138.158 12.3761 140.515 12.4603V4.71471C138.158 4.71471 136.558 6.23015 136.558 8.5875ZM143.967 12.4603C146.24 12.3761 147.924 10.9449 147.924 8.5875C147.924 6.23015 146.24 4.7989 143.967 4.71471V12.4603Z" fill="white"/>
<path d="M130.917 0.420898V16.8382H127.381V6.06171L120.393 16.8382H116.857V0.420898H120.393V11.2816L127.381 0.420898H130.917Z" fill="white"/>
<path d="M115.089 13.6389V19.9533H111.637V16.8382H99.3456V0.420898H102.882V13.6389H109.449V0.420898H112.985V13.6389H115.089Z" fill="white"/>
<path d="M83.3493 0.505127H66.8478V4.12535H73.2464V17.0066H76.9508V4.12535H83.3493V0.505127Z" fill="white"/>
<path d="M90.5055 0.420898H86.7169V4.04112V16.9224H90.5055V0.420898Z" fill="white"/>
</svg>
