<svg width="53" height="51" viewBox="0 0 53 51" fill="none" xmlns="http://www.w3.org/2000/svg">
<path fill-rule="evenodd" clip-rule="evenodd" d="M37.7862 0.216416H12.7647C12.2839 7.74643 6.9131 12.9176 0 14.7321C1.95055 31.1802 10.8868 44.326 26.3551 50.976C39.528 45.2786 49.2173 34.5732 52.075 21.1644C54.579 9.80585 50.0428 0.161982 37.7862 0.216416ZM50.2969 20.7652C47.4663 33.793 38.3577 43.5185 26.3641 48.9619C12.7557 42.8926 4.21862 31.1439 2.00498 16.0294C8.4191 13.834 13.3 8.89861 14.3977 2.05809H37.7952C48.8816 2.01273 52.5105 10.6133 50.2969 20.7652Z" fill="white"/>
<path fill-rule="evenodd" clip-rule="evenodd" d="M29.3199 19.4493L41.7036 18.542C41.8311 18.542 41.9534 18.4914 42.0436 18.4012C42.1338 18.311 42.1844 18.1887 42.1844 18.0612C42.1844 17.9337 42.1338 17.8114 42.0436 17.7212C41.9534 17.631 41.8311 17.5804 41.7036 17.5804H28.8754L29.3199 19.4493Z" fill="white"/>
<path fill-rule="evenodd" clip-rule="evenodd" d="M17.1362 22.5067C17.0656 22.6804 17.0427 22.8699 17.07 23.0554C17.0972 23.241 17.1735 23.4159 17.2909 23.5621C17.4084 23.7082 17.5629 23.8203 17.7382 23.8868C17.9136 23.9533 18.1035 23.9717 18.2884 23.9401C19.4043 23.6952 21.255 21.3636 22.008 20.4382L22.3074 19.9755L25.0291 19.7759L25.5462 17.5623H23.8315L28.9393 9.95061L32.1962 8.83472C32.6045 8.68956 32.4865 8.39925 32.2779 8.39925H29.2205L28.8939 5.08785C28.8845 5.04554 28.8609 5.00769 28.8271 4.98057C28.7933 4.95344 28.7513 4.93866 28.7079 4.93866C28.6646 4.93866 28.6225 4.95344 28.5887 4.98057C28.5549 5.00769 28.5313 5.04554 28.5219 5.08785L27.524 8.41739H24.3396C24.0674 8.41739 24.0311 8.73492 24.3396 8.85286L27.2427 9.95061L20.4113 17.5986H5.97725C5.84491 17.5986 5.71799 17.6511 5.62442 17.7447C5.53084 17.8383 5.47827 17.9652 5.47827 18.0975C5.47827 18.2299 5.53084 18.3568 5.62442 18.4504C5.71799 18.5439 5.84491 18.5965 5.97725 18.5965L18.5152 20.1751C17.9737 20.9009 17.5114 21.6826 17.1362 22.5067Z" fill="white"/>
<path fill-rule="evenodd" clip-rule="evenodd" d="M27.8068 30.9462L26.455 24.2508L24.8583 30.9462H27.8068ZM36.0535 33.0601L39.2107 29.2134V29.0773C39.2107 28.6509 38.9658 28.2517 38.1946 28.2517V27.3445H42.0957V28.2517C41.134 28.2517 41.1068 28.6237 41.1068 29.5854V34.0489C41.1068 35.0378 41.1794 35.3826 42.0957 35.3826V36.2898H38.1946V35.3553C39.1018 35.3553 39.2107 35.0378 39.2107 34.0217V30.5742L36.0535 34.4481V34.6114C36.0535 35.1467 36.3529 35.3826 37.0696 35.3826V36.2898H27.3623V35.3553C28.0608 35.3553 28.5145 35.3009 28.5145 34.6114C28.4333 33.7069 28.2724 32.8113 28.0336 31.9351H24.5408L24.0872 33.7495C23.7333 34.9289 23.8785 35.3553 25.1305 35.3553V36.2626H17.038V35.3553C17.9996 35.3553 18.1085 35.0378 18.1085 34.0217V29.912L15.6499 35.9995L13.1641 29.7214V34.1578C13.1641 35.0106 13.273 35.4098 14.2074 35.4098V36.317H11.2136V35.3553C12.2297 35.3553 12.2841 34.7384 12.2841 33.8856V29.5854C12.2841 28.8142 12.2841 28.2517 11.2952 28.2517V27.3445H14.4705L16.2124 31.9351L17.9452 27.3445H21.0117V28.2517C20.05 28.2517 20.0228 28.6237 20.0228 29.5854V34.0489C20.0228 34.9017 20.1044 35.1739 20.3675 35.2555C20.9572 35.4642 22.055 35.4098 22.3725 34.7656C22.6707 34.1345 22.9048 33.4749 23.0711 32.797L27.208 16.5303L30.9912 32.4976C31.3904 34.2394 31.6353 34.6658 32.0073 35.0378C32.3793 35.4098 33.604 35.6003 34.0395 35.1195C34.1393 35.0106 34.1937 34.8201 34.1937 34.0489V29.5854C34.1937 28.5693 34.1121 28.2517 33.1776 28.2517V27.3445H37.0696V28.2517C36.108 28.2517 36.0535 28.6509 36.0535 29.5854V33.0601Z" fill="white"/>
</svg>
